Grade 1 lc.ufo
<glyph name="exclam" format="2">
  <advance width="656"/>
  <unicode hex="0021"/>
  <outline>
    <contour>
      <point x="168.17000000000002" y="130.78" type="qcurve" smooth="yes"/>
      <point x="168.17000000000002" y="193.06"/>
      <point x="257.77" y="283.83"/>
      <point x="327.73" y="283.83" type="qcurve" smooth="yes"/>
      <point x="398.11" y="283.83"/>
      <point x="487.71" y="193.06"/>
      <point x="487.71" y="130.78" type="qcurve" smooth="yes"/>
      <point x="487.71" y="68.77000000000001"/>
      <point x="398.11" y="-22.0"/>
      <point x="327.73" y="-22.0" type="qcurve" smooth="yes"/>
      <point x="257.77" y="-22.0"/>
      <point x="168.17000000000002" y="68.77000000000001"/>
    </contour>
    <contour>
      <point x="193.12" y="1374.57" type="line" smooth="yes"/>
      <point x="190.23" y="1447.84"/>
      <point x="258.02" y="1543.52"/>
      <point x="324.49" y="1544.21" type="qcurve" smooth="yes"/>
      <point x="391.27" y="1545.21"/>
      <point x="463.68" y="1449.22"/>
      <point x="460.79" y="1375.26" type="qcurve" smooth="yes"/>
      <point x="449.48" y="1095.4" type="line"/>
      <point x="407.81" y="787.4" type="line"/>
      <point x="382.40999999999997" y="432.6" type="line"/>
      <point x="269.81" y="432.6" type="line"/>
      <point x="244.41" y="787.4" type="line"/>
      <point x="204.43" y="1095.4" type="line"/>
    </contour>
  </outline>
</glyph>
<glyph name="numbersign" format="2">
  <advance width="1204"/>
  <unicode hex="0023"/>
  <outline>
    <contour>
      <point x="73.05" y="458.13" type="line"/>
      <point x="73.05" y="639.55" type="line"/>
      <point x="1044.28" y="639.55" type="line"/>
      <point x="1044.28" y="458.13" type="line"/>
    </contour>
    <contour>
      <point x="159.76" y="841.45" type="line"/>
      <point x="159.76" y="1022.87" type="line"/>
      <point x="1130.99" y="1022.87" type="line"/>
      <point x="1130.99" y="841.45" type="line"/>
    </contour>
    <contour>
      <point x="120.89999999999999" y="-14.94" type="line"/>
      <point x="619.96" y="1538.41" type="line"/>
      <point x="717.5899999999999" y="1513.5800000000002" type="line"/>
      <point x="218.79999999999998" y="-39.769999999999996" type="line"/>
    </contour>
    <contour>
      <point x="502.31000000000006" y="-14.94" type="line"/>
      <point x="1001.7900000000001" y="1538.41" type="line"/>
      <point x="1099.69" y="1513.5800000000002" type="line"/>
      <point x="600.2099999999999" y="-39.769999999999996" type="line"/>
    </contour>
  </outline>
</glyph>
<glyph name="percent" format="2">
  <advance width="1865"/>
  <unicode hex="0025"/>
  <outline>
    <contour>
      <point x="56.07999999999999" y="1076.04" type="qcurve" smooth="yes"/>
      <point x="56.07999999999999" y="1272.38"/>
      <point x="264.07" y="1521.69"/>
      <point x="432.38" y="1521.69" type="qcurve" smooth="yes"/>
      <point x="601.69" y="1521.69"/>
      <point x="812.26" y="1291.0"/>
      <point x="812.26" y="1081.42" type="qcurve" smooth="yes"/>
      <point x="812.26" y="884.84"/>
      <point x="605.5799999999999" y="628.91"/>
      <point x="436.85" y="628.91" type="qcurve" smooth="yes"/>
      <point x="267.54" y="628.91"/>
      <point x="56.07999999999999" y="864.22"/>
    </contour>
    <contour>
      <point x="269.07000000000005" y="1090.25" type="qcurve" smooth="yes"/>
      <point x="269.07000000000005" y="924.06"/>
      <point x="351.25" y="743.4699999999999"/>
      <point x="431.38" y="743.4699999999999" type="qcurve" smooth="yes"/>
      <point x="517.0500000000001" y="743.4699999999999"/>
      <point x="594.69" y="905.99"/>
      <point x="594.69" y="1080.8" type="qcurve" smooth="yes"/>
      <point x="594.69" y="1238.82"/>
      <point x="513.09" y="1403.13"/>
      <point x="432.38" y="1403.13" type="qcurve" smooth="yes"/>
      <point x="345.71" y="1403.13"/>
      <point x="268.38" y="1257.37"/>
    </contour>
    <contour>
      <point x="392.33" y="35.230000000000004" type="line"/>
      <point x="1360.8400000000001" y="1527.45" type="line"/>
      <point x="1471.99" y="1454.74" type="line"/>
      <point x="502.85999999999996" y="-38.72" type="line"/>
    </contour>
    <contour>
      <point x="1053.13" y="402.4" type="qcurve" smooth="yes"/>
      <point x="1053.13" y="599.05"/>
      <point x="1261.12" y="863.4"/>
      <point x="1429.4299999999998" y="863.4" type="qcurve" smooth="yes"/>
      <point x="1598.4299999999998" y="863.4"/>
      <point x="1809.31" y="617.67"/>
      <point x="1809.31" y="407.78" type="qcurve" smooth="yes"/>
      <point x="1809.31" y="225.93"/>
      <point x="1602.63" y="-29.07"/>
      <point x="1433.9" y="-29.07" type="qcurve" smooth="yes"/>
      <point x="1265.01" y="-29.07"/>
      <point x="1053.13" y="205.62"/>
    </contour>
    <contour>
      <point x="1266.1200000000001" y="418.16" type="qcurve" smooth="yes"/>
      <point x="1266.1200000000001" y="266.08"/>
      <point x="1347.9899999999998" y="86.17999999999999"/>
      <point x="1428.74" y="86.17999999999999" type="qcurve" smooth="yes"/>
      <point x="1514.1" y="86.17999999999999"/>
      <point x="1591.74" y="246.46"/>
      <point x="1591.74" y="408.4" type="qcurve" smooth="yes"/>
      <point x="1591.74" y="566.42"/>
      <point x="1510.14" y="744.1500000000001"/>
      <point x="1429.12" y="744.1500000000001" type="qcurve" smooth="yes"/>
      <point x="1342.87" y="744.1500000000001"/>
      <point x="1266.1200000000001" y="584.97"/>
    </contour>
  </outline>
</glyph>
<glyph name="ampersand" format="2">
  <advance width="1467"/>
  <unicode hex="0026"/>
  <outline>
    <contour>
      <point x="516.74" y="-28.0" type="qcurve" smooth="yes"/>
      <point x="271.58" y="-28.0"/>
      <point x="41.230000000000004" y="195.95"/>
      <point x="46.53" y="365.6" type="qcurve" smooth="yes"/>
      <point x="50.36" y="511.34"/>
      <point x="245.89000000000001" y="740.74"/>
      <point x="530.95" y="904.28" type="qcurve"/>
      <point x="643.2199999999999" y="971.7099999999999"/>
      <point x="737.02" y="1119.45"/>
      <point x="737.02" y="1209.45" type="qcurve" smooth="yes"/>
      <point x="737.02" y="1294.6200000000001"/>
      <point x="654.8" y="1402.28"/>
      <point x="571.63" y="1402.28" type="qcurve" smooth="yes"/>
      <point x="488.28000000000003" y="1402.28"/>
      <point x="391.17" y="1297.01"/>
      <point x="390.55" y="1206.04" type="qcurve" smooth="yes"/>
      <point x="389.93" y="1119.5"/>
      <point x="488.76" y="946.74"/>
      <point x="590.71" y="904.5600000000001" type="qcurve"/>
      <point x="1023.81" y="276.7" type="line" smooth="yes"/>
      <point x="1074.25" y="202.70000000000002"/>
      <point x="1161.85" y="124.25999999999999"/>
      <point x="1215.33" y="124.25999999999999" type="qcurve" smooth="yes"/>
      <point x="1263.81" y="124.25999999999999"/>
      <point x="1320.73" y="156.77"/>
      <point x="1350.81" y="196.42" type="qcurve"/>
      <point x="1425.85" y="124.24000000000001" type="line"/>
      <point x="1386.31" y="55.24"/>
      <point x="1259.5600000000002" y="-31.69"/>
      <point x="1155.58" y="-31.96" type="qcurve" smooth="yes"/>
      <point x="1053.02" y="-32.23"/>
      <point x="902.3700000000001" y="55.59"/>
      <point x="816.96" y="181.23999999999998" type="qcurve" smooth="yes"/>
      <point x="401.77" y="795.5699999999999" type="line"/>
      <point x="310.07" y="855.0"/>
      <point x="185.18" y="1056.73"/>
      <point x="187.96" y="1188.15" type="qcurve" smooth="yes"/>
      <point x="190.73999999999998" y="1340.43"/>
      <point x="401.78000000000003" y="1523.6100000000001"/>
      <point x="569.23" y="1523.6100000000001" type="qcurve" smooth="yes"/>
      <point x="726.52" y="1523.6100000000001"/>
      <point x="899.27" y="1349.99"/>
      <point x="896.79" y="1204.8700000000001" type="qcurve" smooth="yes"/>
      <point x="894.3100000000001" y="1066.46"/>
      <point x="717.57" y="875.5"/>
      <point x="604.13" y="820.54" type="qcurve"/>
      <point x="434.03999999999996" y="714.9200000000001"/>
      <point x="294.63" y="520.61"/>
      <point x="294.83000000000004" y="390.4" type="qcurve" smooth="yes"/>
      <point x="295.07" y="263.02"/>
      <point x="432.75" y="126.9"/>
      <point x="570.51" y="126.9" type="qcurve" smooth="yes"/>
      <point x="786.5699999999999" y="126.9"/>
      <point x="1163.5" y="529.69"/>
      <point x="1258.36" y="853.89" type="qcurve"/>
      <point x="1384.49" y="839.1999999999999" type="line"/>
      <point x="1300.9499999999998" y="468.15999999999997"/>
      <point x="796.87" y="-28.0"/>
    </contour>
    <contour>
      <point x="922.4599999999999" y="840.0500000000001" type="line"/>
      <point x="949.8499999999999" y="898.84"/>
      <point x="1038.89" y="968.4"/>
      <point x="1080.01" y="968.4" type="qcurve" smooth="yes"/>
      <point x="1120.13" y="968.4"/>
      <point x="1249.48" y="903.26"/>
      <point x="1287.51" y="903.26" type="qcurve" smooth="yes"/>
      <point x="1313.73" y="903.26"/>
      <point x="1361.15" y="917.26"/>
      <point x="1386.79" y="938.1899999999999" type="qcurve"/>
      <point x="1468.55" y="852.7199999999999" type="line"/>
      <point x="1414.31" y="766.78"/>
      <point x="1339.73" y="722.16"/>
      <point x="1291.89" y="723.0" type="qcurve" smooth="yes"/>
      <point x="1266.49" y="723.4200000000001"/>
      <point x="1128.0700000000002" y="802.2"/>
      <point x="1093.1100000000001" y="802.2" type="qcurve" smooth="yes"/>
      <point x="1058.15" y="802.2"/>
      <point x="1008.77" y="787.5"/>
      <point x="987.03" y="769.6" type="qcurve"/>
    </contour>
  </outline>
</glyph>
<glyph name="one" format="2">
  <advance width="846"/>
  <unicode hex="0031"/>
  <outline>
    <contour>
      <point x="68.97" y="0.0" type="line"/>
      <point x="68.97" y="101.2" type="line"/>
      <point x="302.87" y="136.20000000000002" type="line"/>
      <point x="302.87" y="754.0" type="line"/>
      <point x="300.87" y="1346.41" type="line"/>
      <point x="66.97" y="1374.53" type="line"/>
      <point x="66.97" y="1487.83" type="line"/>
      <point x="543.49" y="1510.83" type="line"/>
      <point x="575.49" y="1475.83" type="line"/>
      <point x="569.49" y="754.0" type="line"/>
      <point x="569.49" y="136.20000000000002" type="line"/>
      <point x="803.39" y="101.2" type="line"/>
      <point x="803.39" y="0.0" type="line"/>
    </contour>
  </outline>
</glyph>
<glyph name="five" format="2">
  <advance width="1003"/>
  <unicode hex="0035"/>
  <outline>
    <contour>
      <point x="4.16" y="137.86" type="qcurve"/>
      <point x="78.11999999999999" y="255.52" type="line"/>
      <point x="128.62" y="200.15"/>
      <point x="278.11" y="123.87"/>
      <point x="383.64000000000004" y="123.87" type="qcurve" smooth="yes"/>
      <point x="499.15" y="123.87"/>
      <point x="644.43" y="280.68"/>
      <point x="644.43" y="450.51" type="qcurve" smooth="yes"/>
      <point x="644.43" y="614.61"/>
      <point x="439.68" y="776.78"/>
      <point x="255.05999999999997" y="776.78" type="qcurve" smooth="yes"/>
      <point x="162.64" y="776.78" type="line"/>
      <point x="127.97999999999999" y="820.25" type="line"/>
      <point x="180.04999999999998" y="1467.0" type="line"/>
      <point x="205.37" y="1500.0" type="line"/>
      <point x="870.41" y="1500.0" type="line"/>
      <point x="859.08" y="1275.33" type="line"/>
      <point x="290.07" y="1275.33" type="line"/>
      <point x="279.36" y="1262.16" type="line"/>
      <point x="245.57" y="900.5" type="line"/>
      <point x="388.09000000000003" y="937.8399999999999" type="line"/>
      <point x="652.62" y="937.8399999999999"/>
      <point x="936.3299999999999" y="698.54"/>
      <point x="936.3299999999999" y="478.54999999999995" type="qcurve" smooth="yes"/>
      <point x="936.3299999999999" y="240.65"/>
      <point x="654.1800000000001" y="-23.24"/>
      <point x="441.91" y="-23.24" type="qcurve" smooth="yes"/>
      <point x="293.2" y="-23.24"/>
      <point x="62.19" y="70.96000000000001"/>
    </contour>
  </outline>
</glyph>
<glyph name="nine" format="2">
  <advance width="1133"/>
  <unicode hex="0039"/>
  <outline>
    <contour>
      <point x="47.73" y="993.24" type="qcurve" smooth="yes"/>
      <point x="47.73" y="1239.5900000000001"/>
      <point x="317.71999999999997" y="1522.01"/>
      <point x="526.79" y="1522.01" type="qcurve" smooth="yes"/>
      <point x="764.11" y="1522.01"/>
      <point x="1067.0" y="1169.94"/>
      <point x="1067.0" y="865.31" type="qcurve" smooth="yes"/>
      <point x="1067.0" y="515.3"/>
      <point x="632.25" y="10.38"/>
      <point x="259.12" y="-75.07000000000001" type="qcurve"/>
      <point x="238.48000000000002" y="38.669999999999995" type="line"/>
      <point x="483.26" y="120.87"/>
      <point x="782.49" y="513.0500000000001"/>
      <point x="782.49" y="871.8100000000001" type="qcurve" smooth="yes"/>
      <point x="782.49" y="1151.51"/>
      <point x="641.35" y="1403.26"/>
      <point x="528.51" y="1403.26" type="qcurve" smooth="yes"/>
      <point x="423.07" y="1403.26"/>
      <point x="312.23" y="1211.3"/>
      <point x="312.23" y="1035.77" type="qcurve" smooth="yes"/>
      <point x="312.23" y="852.72"/>
      <point x="430.41" y="703.95"/>
      <point x="529.41" y="703.95" type="qcurve" smooth="yes"/>
      <point x="568.3299999999999" y="703.95"/>
      <point x="629.25" y="718.34"/>
      <point x="653.82" y="729.9300000000001" type="qcurve"/>
      <point x="690.89" y="648.3000000000001" type="line"/>
      <point x="660.92" y="613.85"/>
      <point x="539.41" y="559.88"/>
      <point x="450.46999999999997" y="559.88" type="qcurve" smooth="yes"/>
      <point x="264.99" y="559.88"/>
      <point x="47.73" y="792.36"/>
    </contour>
  </outline>
</glyph>
<glyph name="equal" format="2">
  <advance width="961"/>
  <unicode hex="003D"/>
  <outline>
    <contour>
      <point x="97.15" y="333.45" type="line"/>
      <point x="97.15" y="528.39" type="line"/>
      <point x="478.87" y="524.39" type="line"/>
      <point x="863.6600000000001" y="528.39" type="line"/>
      <point x="863.6600000000001" y="333.45" type="line"/>
      <point x="478.87" y="337.45" type="line"/>
    </contour>
    <contour>
      <point x="97.15" y="716.71" type="line"/>
      <point x="97.15" y="911.6500000000001" type="line"/>
      <point x="478.87" y="907.6500000000001" type="line"/>
      <point x="863.6600000000001" y="911.6500000000001" type="line"/>
      <point x="863.6600000000001" y="716.71" type="line"/>
      <point x="478.87" y="720.71" type="line"/>
    </contour>
  </outline>
</glyph>
<glyph name="A" format="2">
  <advance width="1389"/>
  <unicode hex="0041"/>
  <outline>
    <contour>
      <point x="0.5499999999999989" y="0.0" type="line"/>
      <point x="0.5499999999999989" y="107.0" type="line"/>
      <point x="152.19" y="141.69" type="line"/>
      <point x="297.02000000000004" y="599.13" type="line"/>
      <point x="578.11" y="1505.52" type="line"/>
      <point x="803.9399999999999" y="1505.52" type="line"/>
      <point x="1087.63" y="620.94" type="line"/>
      <point x="1243.34" y="141.27" type="line"/>
      <point x="1384.36" y="107.0" type="line"/>
      <point x="1384.36" y="0.0" type="line"/>
      <point x="804.6400000000001" y="0.0" type="line"/>
      <point x="804.6400000000001" y="107.0" type="line"/>
      <point x="952.1700000000001" y="140.19000000000003" type="line"/>
      <point x="823.3" y="565.84" type="line"/>
      <point x="622.9100000000001" y="1189.52" type="line"/>
      <point x="422.42" y="568.43" type="line"/>
      <point x="300.2" y="139.92" type="line"/>
      <point x="447.59000000000003" y="107.0" type="line"/>
      <point x="447.59000000000003" y="0.0" type="line"/>
    </contour>
    <contour>
      <point x="627.72" y="573.28" type="line"/>
      <point x="928.38" y="587.73" type="line"/>
      <point x="961.65" y="460.6" type="line"/>
      <point x="627.72" y="460.6" type="line"/>
    </contour>
    <contour>
      <point x="313.81" y="460.6" type="line"/>
      <point x="347.89000000000004" y="586.73" type="line"/>
      <point x="627.72" y="573.28" type="line"/>
      <point x="627.72" y="460.6" type="line"/>
    </contour>
  </outline>
</glyph>
<glyph name="B" format="2">
  <advance width="1267"/>
  <unicode hex="0042"/>
  <outline>
    <contour>
      <point x="50.279999999999994" y="0.0" type="line"/>
      <point x="50.279999999999994" y="107.61999999999999" type="line"/>
      <point x="227.98000000000002" y="142.89000000000001" type="line"/>
      <point x="229.98000000000002" y="762.1" type="line"/>
      <point x="227.98000000000002" y="1345.22" type="line"/>
      <point x="50.279999999999994" y="1379.22" type="line"/>
      <point x="50.279999999999994" y="1500.0" type="line"/>
      <point x="716.8000000000001" y="1500.0" type="line" smooth="yes"/>
      <point x="926.98" y="1500.0"/>
      <point x="1120.1100000000001" y="1314.07"/>
      <point x="1120.1100000000001" y="1168.55" type="qcurve" smooth="yes"/>
      <point x="1120.1100000000001" y="1024.31"/>
      <point x="1002.13" y="853.58"/>
      <point x="908.87" y="830.31" type="qcurve"/>
      <point x="908.87" y="823.31" type="line"/>
      <point x="1030.2" y="793.36"/>
      <point x="1196.01" y="604.0"/>
      <point x="1196.01" y="433.0" type="qcurve" smooth="yes"/>
      <point x="1196.01" y="246.0"/>
      <point x="973.62" y="0.31"/>
      <point x="759.51" y="0.0" type="qcurve" smooth="yes"/>
    </contour>
    <contour>
      <point x="501.94" y="145.85" type="line"/>
      <point x="528.37" y="125.85" type="line"/>
      <point x="634.95" y="125.85" type="line" smooth="yes"/>
      <point x="780.38" y="125.85"/>
      <point x="916.45" y="273.48"/>
      <point x="916.45" y="440.0" type="qcurve" smooth="yes"/>
      <point x="916.45" y="586.48"/>
      <point x="789.73" y="733.35"/>
      <point x="670.03" y="733.35" type="qcurve" smooth="yes"/>
      <point x="509.78999999999996" y="733.35" type="line"/>
      <point x="501.32" y="720.28" type="line"/>
    </contour>
    <contour>
      <point x="501.04999999999995" y="868.79" type="line"/>
      <point x="508.48" y="856.03" type="line"/>
      <point x="612.61" y="856.03" type="line" smooth="yes"/>
      <point x="732.35" y="856.03"/>
      <point x="844.16" y="991.0"/>
      <point x="844.16" y="1129.0" type="qcurve" smooth="yes"/>
      <point x="844.16" y="1257.3"/>
      <point x="733.27" y="1363.8"/>
      <point x="616.64" y="1363.8" type="qcurve" smooth="yes"/>
      <point x="525.4399999999999" y="1363.8" type="line"/>
      <point x="503.62999999999994" y="1347.35" type="line"/>
    </contour>
  </outline>
</glyph>
<glyph name="I" format="2">
  <advance width="751"/>
  <unicode hex="0049"/>
  <outline>
    <contour>
      <point x="54.48" y="0.0" type="line"/>
      <point x="54.48" y="107.61999999999999" type="line"/>
      <point x="237.98000000000002" y="142.62" type="line"/>
      <point x="239.98000000000002" y="754.0" type="line"/>
      <point x="237.98000000000002" y="1345.22" type="line"/>
      <point x="54.48" y="1379.22" type="line"/>
      <point x="54.48" y="1500.0" type="line"/>
      <point x="696.79" y="1500.0" type="line"/>
      <point x="696.79" y="1379.22" type="line"/>
      <point x="513.29" y="1345.22" type="line"/>
      <point x="511.28999999999996" y="754.0" type="line"/>
      <point x="513.29" y="142.89000000000001" type="line"/>
      <point x="696.79" y="107.61999999999999" type="line"/>
      <point x="696.79" y="0.0" type="line"/>
    </contour>
  </outline>
</glyph>
<glyph name="M" format="2">
  <advance width="1852"/>
  <unicode hex="004D"/>
  <outline>
    <contour>
      <point x="53.07" y="0.0" type="line"/>
      <point x="53.07" y="107.61999999999999" type="line"/>
      <point x="222.01" y="142.62" type="line"/>
      <point x="223.59" y="754.0" type="line"/>
      <point x="222.01" y="1345.53" type="line"/>
      <point x="53.07" y="1379.53" type="line"/>
      <point x="53.07" y="1500.0" type="line"/>
      <point x="546.5600000000001" y="1500.0" type="line"/>
      <point x="746.64" y="839.97" type="line"/>
      <point x="911.56" y="304.35" type="line"/>
      <point x="1073.6599999999999" y="840.02" type="line"/>
      <point x="1281.55" y="1500.0" type="line"/>
      <point x="1801.81" y="1500.0" type="line"/>
      <point x="1801.81" y="1379.53" type="line"/>
      <point x="1627.94" y="1345.53" type="line"/>
      <point x="1626.3600000000001" y="754.0" type="line"/>
      <point x="1627.94" y="142.62" type="line"/>
      <point x="1801.81" y="107.61999999999999" type="line"/>
      <point x="1801.81" y="0.0" type="line"/>
      <point x="1171.3500000000001" y="0.0" type="line"/>
      <point x="1171.3500000000001" y="107.61999999999999" type="line"/>
      <point x="1353.69" y="142.62" type="line"/>
      <point x="1356.0" y="753.38" type="line"/>
      <point x="1353.69" y="1292.77" type="line"/>
      <point x="1180.97" y="757.94" type="line"/>
      <point x="945.46" y="-7.07" type="line"/>
      <point x="740.6700000000001" y="-7.07" type="line"/>
      <point x="517.4300000000001" y="736.35" type="line"/>
      <point x="342.07" y="1293.75" type="line"/>
      <point x="340.49" y="754.0" type="line"/>
      <point x="342.07" y="142.62" type="line"/>
      <point x="513.72" y="107.61999999999999" type="line"/>
      <point x="513.72" y="0.0" type="line"/>
    </contour>
  </outline>
</glyph>
<glyph name="O" format="2">
  <advance width="1499"/>
  <unicode hex="004F"/>
  <outline>
    <contour>
      <point x="68.63" y="740.54" type="qcurve" smooth="yes"/>
      <point x="68.63" y="1070.6999999999998"/>
      <point x="444.72" y="1522.17"/>
      <point x="749.5" y="1522.17" type="qcurve" smooth="yes"/>
      <point x="1054.59" y="1522.17"/>
      <point x="1429.95" y="1099.6999999999998"/>
      <point x="1429.95" y="755.54" type="qcurve" smooth="yes"/>
      <point x="1429.95" y="427.38"/>
      <point x="1058.48" y="-25.36"/>
      <point x="752.97" y="-25.36" type="qcurve" smooth="yes"/>
      <point x="451.8299999999999" y="-25.36"/>
      <point x="68.63" y="400.8"/>
    </contour>
    <contour>
      <point x="363.91" y="775.16" type="qcurve" smooth="yes"/>
      <point x="363.91" y="469.04999999999995"/>
      <point x="579.87" y="117.38"/>
      <point x="751.08" y="117.38" type="qcurve" smooth="yes"/>
      <point x="938.3" y="117.38"/>
      <point x="1135.3999999999999" y="427.35999999999996"/>
      <point x="1135.3999999999999" y="749.78" type="qcurve" smooth="yes"/>
      <point x="1135.3999999999999" y="1038.31"/>
      <point x="923.94" y="1373.29"/>
      <point x="750.46" y="1373.29" type="qcurve" smooth="yes"/>
      <point x="563.24" y="1373.29"/>
      <point x="363.91" y="1065.42"/>
    </contour>
  </outline>
</glyph>
<glyph name="P" format="2">
  <advance width="1250"/>
  <unicode hex="0050"/>
  <outline>
    <contour>
      <point x="50.279999999999994" y="0.0" type="line"/>
      <point x="50.279999999999994" y="107.2" type="line"/>
      <point x="227.98000000000002" y="143.05" type="line"/>
      <point x="229.98000000000002" y="754.0" type="line"/>
      <point x="227.98000000000002" y="1345.22" type="line"/>
      <point x="50.279999999999994" y="1379.22" type="line"/>
      <point x="50.279999999999994" y="1500.0" type="line"/>
      <point x="754.0500000000001" y="1500.0" type="line" smooth="yes"/>
      <point x="974.1399999999999" y="1500.0"/>
      <point x="1208.65" y="1281.83"/>
      <point x="1208.65" y="1069.52" type="qcurve" smooth="yes"/>
      <point x="1208.65" y="844.3"/>
      <point x="943.88" y="581.64"/>
      <point x="710.08" y="581.64" type="qcurve" smooth="yes"/>
      <point x="618.24" y="581.64"/>
      <point x="481.99" y="600.47"/>
      <point x="430.95" y="610.64" type="qcurve"/>
      <point x="438.69" y="731.83" type="line"/>
      <point x="488.38" y="719.76"/>
      <point x="574.4499999999999" y="710.14"/>
      <point x="653.0" y="710.14" type="qcurve" smooth="yes"/>
      <point x="784.1800000000001" y="710.14"/>
      <point x="924.1800000000001" y="889.05"/>
      <point x="922.94" y="1063.94" type="qcurve" smooth="yes"/>
      <point x="922.01" y="1216.46"/>
      <point x="785.83" y="1366.5"/>
      <point x="662.1099999999999" y="1366.5" type="qcurve" smooth="yes"/>
      <point x="531.08" y="1366.5" type="line"/>
      <point x="503.14" y="1345.12" type="line"/>
      <point x="500.86999999999995" y="764.0" type="line"/>
      <point x="502.86999999999995" y="141.39" type="line"/>
      <point x="687.01" y="107.61999999999999" type="line"/>
      <point x="687.01" y="0.0" type="line"/>
    </contour>
  </outline>
</glyph>
<glyph name="U" format="2">
  <advance width="1442"/>
  <unicode hex="0055"/>
  <outline>
    <contour>
      <point x="43.93" y="1379.53" type="line"/>
      <point x="43.93" y="1500.0" type="line"/>
      <point x="654.0999999999999" y="1500.0" type="line"/>
      <point x="654.0999999999999" y="1379.53" type="line"/>
      <point x="492.53000000000003" y="1345.53" type="line"/>
      <point x="488.99" y="794.0" type="line"/>
      <point x="491.95" y="467.15000000000003" type="line" smooth="yes"/>
      <point x="493.63999999999993" y="285.69"/>
      <point x="655.23" y="139.48"/>
      <point x="800.0799999999999" y="139.48" type="qcurve" smooth="yes"/>
      <point x="932.5500000000001" y="139.48"/>
      <point x="1102.8500000000001" y="302.24"/>
      <point x="1105.1100000000001" y="485.6" type="qcurve" smooth="yes"/>
      <point x="1108.48" y="794.0" type="line"/>
      <point x="1103.8500000000001" y="1345.53" type="line"/>
      <point x="936.21" y="1379.53" type="line"/>
      <point x="936.21" y="1500.0" type="line"/>
      <point x="1400.31" y="1500.0" type="line"/>
      <point x="1400.31" y="1379.53" type="line"/>
      <point x="1245.65" y="1345.53" type="line"/>
      <point x="1243.96" y="794.0" type="line"/>
      <point x="1247.49" y="479.95000000000005" type="line" smooth="yes"/>
      <point x="1250.6000000000001" y="224.91"/>
      <point x="971.7600000000001" y="-25.669999999999998"/>
      <point x="745.84" y="-25.669999999999998" type="qcurve" smooth="yes"/>
      <point x="501.96" y="-25.669999999999998"/>
      <point x="209.37" y="217.65"/>
      <point x="210.64000000000001" y="467.95000000000005" type="qcurve" smooth="yes"/>
      <point x="211.91" y="794.0" type="line"/>
      <point x="210.64000000000001" y="1345.53" type="line"/>
    </contour>
  </outline>
</glyph>
<glyph name="asciicircum" format="2">
  <advance width="1182"/>
  <unicode hex="005E"/>
  <outline>
    <contour>
      <point x="113.56" y="926.0" type="line"/>
      <point x="161.15" y="988.0"/>
      <point x="553.22" y="1501.0"/>
      <point x="573.28" y="1524.0" type="qcurve"/>
      <point x="591.31" y="1501.0"/>
      <point x="1015.3" y="989.0"/>
      <point x="1064.44" y="927.0" type="qcurve"/>
      <point x="964.46" y="836.5" type="line"/>
      <point x="857.48" y="950.5"/>
      <point x="588.1800000000001" y="1233.3"/>
      <point x="574.86" y="1245.3" type="qcurve"/>
      <point x="558.38" y="1226.3"/>
      <point x="325.54" y="958.88"/>
      <point x="215.54" y="838.5" type="qcurve"/>
    </contour>
  </outline>
</glyph>
<glyph name="k" format="2">
  <advance width="1150"/>
  <unicode hex="006B"/>
  <outline>
    <contour>
      <point x="50.07" y="0.0" type="line"/>
      <point x="50.07" y="92.4" type="line"/>
      <point x="176.29" y="127.4" type="line"/>
      <point x="178.29" y="528.55" type="line"/>
      <point x="176.29" y="1361.9199999999998" type="line"/>
      <point x="36.45" y="1393.6" type="line"/>
      <point x="36.45" y="1500.0" type="line"/>
      <point x="369.6" y="1534.0" type="line"/>
      <point x="401.6" y="1534.0" type="line"/>
      <point x="438.59000000000003" y="1497.35" type="line"/>
      <point x="438.56" y="535.6500000000001" type="line"/>
      <point x="438.17" y="127.4" type="line"/>
      <point x="559.32" y="92.4" type="line"/>
      <point x="559.32" y="0.0" type="line"/>
    </contour>
    <contour>
      <point x="406.98" y="402.64" type="line"/>
      <point x="390.52" y="525.21" type="line"/>
      <point x="752.3199999999999" y="880.0" type="line"/>
      <point x="628.12" y="910.0" type="line"/>
      <point x="628.12" y="1015.5" type="line"/>
      <point x="1066.42" y="1015.5" type="line"/>
      <point x="1066.42" y="910.0" type="line"/>
      <point x="917.6700000000001" y="875.0" type="line"/>
    </contour>
    <contour>
      <point x="518.3299999999999" y="564.8100000000001" type="line"/>
      <point x="702.18" y="738.51" type="line"/>
      <point x="1041.29" y="127.4" type="line"/>
      <point x="1145.87" y="92.4" type="line"/>
      <point x="1145.87" y="0.0" type="line"/>
      <point x="761.24" y="0.0" type="line"/>
      <point x="748.0" y="88.3" type="line"/>
      <point x="760.78" y="120.3" type="line"/>
    </contour>
  </outline>
</glyph>
<glyph name="o" format="2">
  <advance width="1121"/>
  <unicode hex="006F"/>
  <outline>
    <contour>
      <point x="55.019999999999996" y="507.75" type="qcurve" smooth="yes"/>
      <point x="55.019999999999996" y="738.5600000000001"/>
      <point x="331.44" y="1037.48"/>
      <point x="559.95" y="1037.48" type="qcurve" smooth="yes"/>
      <point x="789.4599999999999" y="1037.48"/>
      <point x="1066.25" y="758.87"/>
      <point x="1066.25" y="513.75" type="qcurve" smooth="yes"/>
      <point x="1066.25" y="283.94"/>
      <point x="792.56" y="-21.45"/>
      <point x="564.0500000000001" y="-21.45" type="qcurve" smooth="yes"/>
      <point x="334.96000000000004" y="-21.45"/>
      <point x="55.019999999999996" y="260.63"/>
    </contour>
    <contour>
      <point x="334.98" y="526.2" type="qcurve" smooth="yes"/>
      <point x="335.98" y="326.74"/>
      <point x="454.22" y="97.63000000000001"/>
      <point x="559.72" y="97.63000000000001" type="qcurve" smooth="yes"/>
      <point x="673.19" y="97.63000000000001"/>
      <point x="784.67" y="305.05"/>
      <point x="784.67" y="512.2" type="qcurve" smooth="yes"/>
      <point x="784.67" y="704.6600000000001"/>
      <point x="666.9599999999999" y="909.3000000000001"/>
      <point x="560.88" y="909.3000000000001" type="qcurve" smooth="yes"/>
      <point x="445.72" y="909.3000000000001"/>
      <point x="333.98" y="724.35"/>
    </contour>
  </outline>
</glyph>
<glyph name="s" format="2">
  <advance width="881"/>
  <unicode hex="0073"/>
  <outline>
    <contour>
      <point x="54.17" y="0.0" type="line"/>
      <point x="54.17" y="337.45" type="line"/>
      <point x="171.87" y="337.45" type="line"/>
      <point x="182.23000000000002" y="281.86" type="line" smooth="yes"/>
      <point x="198.41" y="196.79"/>
      <point x="320.96000000000004" y="98.53999999999999"/>
      <point x="418.01000000000005" y="98.12" type="qcurve" smooth="yes"/>
      <point x="496.89" y="98.12"/>
      <point x="592.5799999999999" y="173.74"/>
      <point x="592.5799999999999" y="242.64" type="qcurve" smooth="yes"/>
      <point x="592.5799999999999" y="313.76"/>
      <point x="494.52" y="389.49"/>
      <point x="359.15999999999997" y="436.56" type="qcurve" smooth="yes"/>
      <point x="199.0" y="490.45"/>
      <point x="75.84" y="634.19"/>
      <point x="75.84" y="756.52" type="qcurve" smooth="yes"/>
      <point x="75.84" y="879.14"/>
      <point x="256.07" y="1037.79"/>
      <point x="418.89" y="1037.79" type="qcurve" smooth="yes"/>
      <point x="498.74" y="1037.79"/>
      <point x="610.3000000000001" y="1002.91"/>
      <point x="643.78" y="979.63" type="qcurve"/>
      <point x="658.5" y="1015.5" type="line"/>
      <point x="759.29" y="1015.5" type="line"/>
      <point x="759.29" y="719.81" type="line"/>
      <point x="639.78" y="719.81" type="line"/>
      <point x="627.9599999999999" y="791.94" type="line" smooth="yes"/>
      <point x="618.3199999999999" y="844.99"/>
      <point x="518.8100000000001" y="917.8"/>
      <point x="443.71999999999997" y="917.8" type="qcurve" smooth="yes"/>
      <point x="370.26" y="917.8"/>
      <point x="301.40999999999997" y="861.78"/>
      <point x="301.40999999999997" y="811.39" type="qcurve" smooth="yes"/>
      <point x="301.40999999999997" y="757.14"/>
      <point x="372.71000000000004" y="689.67"/>
      <point x="503.87" y="647.48" type="qcurve" smooth="yes"/>
      <point x="656.22" y="598.5"/>
      <point x="828.1" y="447.19"/>
      <point x="828.1" y="300.95" type="qcurve" smooth="yes"/>
      <point x="828.1" y="152.22"/>
      <point x="630.19" y="-21.18"/>
      <point x="467.96000000000004" y="-21.18" type="qcurve" smooth="yes"/>
      <point x="364.21999999999997" y="-21.18"/>
      <point x="225.79" y="23.240000000000002"/>
      <point x="178.06" y="60.919999999999995" type="qcurve"/>
      <point x="148.26000000000002" y="0.0" type="line"/>
    </contour>
  </outline>
</glyph>
<glyph name="v" format="2">
  <advance width="1036"/>
  <unicode hex="0076"/>
  <outline>
    <contour>
      <point x="-2.7" y="910.0" type="line"/>
      <point x="-2.7" y="1015.5" type="line"/>
      <point x="493.64000000000004" y="1015.5" type="line"/>
      <point x="493.64000000000004" y="910.0" type="line"/>
      <point x="382.73" y="873.31" type="line"/>
      <point x="484.19" y="551.08" type="line"/>
      <point x="581.77" y="254.24" type="line"/>
      <point x="673.26" y="554.37" type="line"/>
      <point x="769.4" y="878.45" type="line"/>
      <point x="657.5400000000001" y="910.0" type="line"/>
      <point x="657.5400000000001" y="1015.5" type="line"/>
      <point x="1041.2199999999998" y="1015.5" type="line"/>
      <point x="1041.2199999999998" y="910.0" type="line"/>
      <point x="918.47" y="875.0" type="line"/>
      <point x="795.59" y="516.51" type="line"/>
      <point x="629.54" y="-5.52" type="line"/>
      <point x="411.51" y="-5.52" type="line"/>
      <point x="244.69" y="487.28000000000003" type="line"/>
      <point x="103.77000000000001" y="875.0" type="line"/>
    </contour>
  </outline>
</glyph>
<glyph name="z" format="2">
  <advance width="870"/>
  <unicode hex="007A"/>
  <outline>
    <contour>
      <point x="35.1" y="0.0" type="line"/>
      <point x="35.1" y="105.5" type="line"/>
      <point x="532.61" y="884.0" type="line"/>
      <point x="200.48999999999998" y="884.0" type="line"/>
      <point x="175.3" y="732.25" type="line"/>
      <point x="58.5" y="732.25" type="line"/>
      <point x="58.5" y="1015.5" type="line"/>
      <point x="826.78" y="1015.5" type="line"/>
      <point x="826.78" y="911.0" type="line"/>
      <point x="329.09999999999997" y="131.5" type="line"/>
      <point x="699.0" y="131.5" type="line"/>
      <point x="724.1899999999999" y="282.32" type="line"/>
      <point x="840.99" y="282.32" type="line"/>
      <point x="840.99" y="0.0" type="line"/>
    </contour>
  </outline>
</glyph>
<glyph name="bar" format="2">
  <advance width="601"/>
  <unicode hex="007C"/>
  <outline>
    <contour>
      <point x="181.92000000000002" y="-517.76" type="line"/>
      <point x="187.71" y="-37.0" type="line"/>
      <point x="196.81" y="271.0" type="line"/>
      <point x="194.81" y="851.0" type="line"/>
      <point x="185.64" y="1159.0" type="line"/>
      <point x="180.54" y="1502.24" type="line"/>
      <point x="421.63" y="1569.76" type="line"/>
      <point x="414.46" y="1159.0" type="line"/>
      <point x="402.59999999999997" y="851.0" type="line"/>
      <point x="404.59999999999997" y="271.0" type="line"/>
      <point x="415.15" y="-37.0" type="line"/>
      <point x="420.25" y="-450.24" type="line"/>
    </contour>
  </outline>
</glyph>
<glyph name="cent" format="2">
  <advance width="934"/>
  <unicode hex="00A2"/>
  <outline>
    <contour>
      <point x="66.80000000000001" y="497.92" type="qcurve" smooth="yes"/>
      <point x="66.80000000000001" y="739.74"/>
      <point x="325.85" y="1037.79"/>
      <point x="540.81" y="1037.79" type="qcurve" smooth="yes"/>
      <point x="611.9" y="1037.79"/>
      <point x="718.9799999999999" y="1005.94"/>
      <point x="745.8" y="982.98" type="qcurve"/>
      <point x="769.88" y="1034.5" type="line"/>
      <point x="866.18" y="1008.9499999999999" type="line"/>
      <point x="878.2199999999999" y="678.44" type="line"/>
      <point x="772.25" y="661.88" type="line"/>
      <point x="757.01" y="729.88" type="line" smooth="yes"/>
      <point x="738.86" y="811.66"/>
      <point x="635.22" y="913.41"/>
      <point x="570.66" y="913.41" type="qcurve" smooth="yes"/>
      <point x="467.05" y="913.41"/>
      <point x="331.57" y="719.99"/>
      <point x="331.57" y="521.34" type="qcurve" smooth="yes"/>
      <point x="331.57" y="322.13"/>
      <point x="483.11999999999995" y="125.43"/>
      <point x="613.73" y="125.43" type="qcurve" smooth="yes"/>
      <point x="695.24" y="125.43"/>
      <point x="823.3399999999999" y="191.64000000000001"/>
      <point x="869.45" y="243.88" type="qcurve"/>
      <point x="923.9999999999999" y="170.46" type="line"/>
      <point x="877.59" y="96.64"/>
      <point x="687.3399999999999" y="-21.45"/>
      <point x="542.64" y="-21.45" type="qcurve" smooth="yes"/>
      <point x="336.69" y="-21.45"/>
      <point x="66.80000000000001" y="252.98999999999998"/>
    </contour>
    <contour>
      <point x="487.6" y="-204.11" type="line"/>
      <point x="487.6" y="52.0" type="line"/>
      <point x="516.6" y="52.0" type="line"/>
      <point x="516.6" y="538.6" type="line"/>
      <point x="612.1999999999999" y="496.6" type="line"/>
      <point x="612.1999999999999" y="52.0" type="line"/>
      <point x="643.2" y="52.0" type="line"/>
      <point x="643.2" y="-162.1" type="line"/>
    </contour>
    <contour>
      <point x="486.6" y="1182.4" type="line"/>
      <point x="642.2" y="1216.2" type="line"/>
      <point x="642.2" y="997.3" type="line"/>
      <point x="612.1999999999999" y="997.3" type="line"/>
      <point x="612.1999999999999" y="496.6" type="line"/>
      <point x="516.6" y="538.6" type="line"/>
      <point x="516.6" y="997.3" type="line"/>
      <point x="486.6" y="997.3" type="line"/>
    </contour>
  </outline>
</glyph>
<glyph name="section" format="2">
  <advance width="1088"/>
  <unicode hex="00A7"/>
  <outline>
    <contour>
      <point x="989.92" y="137.0" type="qcurve" smooth="yes"/>
      <point x="989.92" y="-37.79"/>
      <point x="768.73" y="-253.0"/>
      <point x="586.13" y="-253.0" type="qcurve" smooth="yes"/>
      <point x="470.92999999999995" y="-253.0"/>
      <point x="308.04" y="-187.0"/>
      <point x="255.73" y="-135.0" type="qcurve"/>
      <point x="213.92999999999998" y="-235.0" type="line"/>
      <point x="112.72000000000001" y="-235.0" type="line"/>
      <point x="112.72000000000001" y="202.2" type="line"/>
      <point x="224.13" y="202.2" type="line"/>
      <point x="239.12" y="120.36" type="line" smooth="yes"/>
      <point x="263.28000000000003" y="-10.260000000000002"/>
      <point x="446.4" y="-121.6"/>
      <point x="566.49" y="-121.6" type="qcurve" smooth="yes"/>
      <point x="692.3100000000001" y="-121.6"/>
      <point x="808.4399999999999" y="-5.59"/>
      <point x="808.4399999999999" y="92.21" type="qcurve" smooth="yes"/>
      <point x="808.4399999999999" y="204.54999999999998"/>
      <point x="656.8100000000001" y="315.09"/>
      <point x="483.03" y="382.4" type="qcurve" smooth="yes"/>
      <point x="310.6" y="449.12"/>
      <point x="142.57" y="621.29"/>
      <point x="142.57" y="763.29" type="qcurve" smooth="yes"/>
      <point x="142.57" y="854.73"/>
      <point x="217.9" y="994.94"/>
      <point x="280.03" y="1039.7" type="qcurve"/>
      <point x="240.09" y="1077.01"/>
      <point x="201.39" y="1174.66"/>
      <point x="202.01" y="1239.93" type="qcurve" smooth="yes"/>
      <point x="202.94" y="1352.41"/>
      <point x="381.23" y="1512.0"/>
      <point x="537.23" y="1512.0" type="qcurve" smooth="yes"/>
      <point x="615.83" y="1512.0"/>
      <point x="724.7900000000001" y="1474.17"/>
      <point x="764.94" y="1449.0" type="qcurve"/>
      <point x="779.03" y="1480.0" type="line"/>
      <point x="874.9300000000001" y="1480.0" type="line"/>
      <point x="874.9300000000001" y="1177.8" type="line"/>
      <point x="763.94" y="1177.8" type="line"/>
      <point x="745.3299999999999" y="1277.47" type="line" smooth="yes"/>
      <point x="735.89" y="1326.74"/>
      <point x="628.37" y="1388.6"/>
      <point x="544.77" y="1388.6" type="qcurve" smooth="yes"/>
      <point x="463.24" y="1388.6"/>
      <point x="383.29" y="1323.11"/>
      <point x="383.29" y="1267.52" type="qcurve" smooth="yes"/>
      <point x="383.29" y="1208.62"/>
      <point x="471.11" y="1140.14"/>
      <point x="616.04" y="1100.1" type="qcurve" smooth="yes"/>
      <point x="781.61" y="1054.73"/>
      <point x="958.74" y="910.14"/>
      <point x="958.74" y="767.62" type="qcurve" smooth="yes"/>
      <point x="958.74" y="668.62"/>
      <point x="842.3" y="516.0"/>
      <point x="742.8100000000001" y="485.0" type="qcurve"/>
      <point x="858.01" y="430.62"/>
      <point x="989.92" y="267.38"/>
    </contour>
    <contour>
      <point x="311.27" y="802.56" type="qcurve" smooth="yes"/>
      <point x="311.27" y="726.73"/>
      <point x="415.48" y="619.65"/>
      <point x="572.79" y="557.51" type="qcurve"/>
      <point x="664.25" y="558.13"/>
      <point x="782.25" y="654.21"/>
      <point x="782.25" y="731.63" type="qcurve" smooth="yes"/>
      <point x="782.25" y="808.81"/>
      <point x="662.77" y="881.02"/>
      <point x="511.07" y="927.47" type="qcurve" smooth="yes"/>
      <point x="484.4" y="935.78"/>
      <point x="426.17" y="955.19"/>
      <point x="405.39" y="964.19" type="qcurve"/>
      <point x="360.59" y="943.12"/>
      <point x="311.27" y="860.7"/>
    </contour>
  </outline>
</glyph>
<glyph name="guillemetleft" format="2">
  <advance width="1290"/>
  <unicode hex="00AB"/>
  <outline>
    <contour>
      <point x="29.099999999999998" y="629.36" type="line"/>
      <point x="85.95" y="665.8000000000001"/>
      <point x="553.13" y="975.68"/>
      <point x="612.48" y="1015.66" type="qcurve" smooth="yes"/>
      <point x="687.45" y="1066.04"/>
      <point x="768.0899999999999" y="948.8599999999999"/>
      <point x="697.5400000000001" y="897.3" type="qcurve" smooth="yes"/>
      <point x="584.23" y="812.99"/>
      <point x="327.25" y="636.74"/>
      <point x="294.75" y="613.62" type="qcurve"/>
      <point x="327.47" y="590.76"/>
      <point x="617.03" y="378.73"/>
      <point x="701.12" y="315.04" type="qcurve" smooth="yes"/>
      <point x="769.94" y="263.71"/>
      <point x="703.01" y="146.42"/>
      <point x="630.22" y="188.96" type="qcurve" smooth="yes"/>
      <point x="567.03" y="226.21"/>
      <point x="97.8" y="538.94"/>
      <point x="29.099999999999998" y="584.84" type="qcurve"/>
    </contour>
    <contour>
      <point x="525.79" y="629.36" type="line"/>
      <point x="582.6400000000001" y="665.8000000000001"/>
      <point x="1049.8200000000002" y="975.68"/>
      <point x="1109.17" y="1015.66" type="qcurve" smooth="yes"/>
      <point x="1184.14" y="1066.04"/>
      <point x="1264.78" y="948.8599999999999"/>
      <point x="1194.23" y="897.3" type="qcurve" smooth="yes"/>
      <point x="1080.9199999999998" y="812.99"/>
      <point x="823.94" y="636.74"/>
      <point x="791.44" y="613.62" type="qcurve"/>
      <point x="824.1600000000001" y="590.76"/>
      <point x="1113.72" y="378.73"/>
      <point x="1197.81" y="315.04" type="qcurve" smooth="yes"/>
      <point x="1266.6299999999999" y="263.71"/>
      <point x="1199.7" y="146.42"/>
      <point x="1126.9099999999999" y="188.96" type="qcurve" smooth="yes"/>
      <point x="1063.72" y="226.21"/>
      <point x="594.49" y="538.94"/>
      <point x="525.79" y="584.84" type="qcurve"/>
    </contour>
  </outline>
</glyph>
<glyph name="logicalnot" format="2">
  <advance width="961"/>
  <unicode hex="00AC"/>
  <outline>
    <contour>
      <point x="64.38" y="769.38" type="line"/>
      <point x="878.35" y="769.38" type="line"/>
      <point x="878.35" y="252.01999999999998" type="line"/>
      <point x="675.7299999999999" y="252.01999999999998" type="line"/>
      <point x="675.7299999999999" y="585.26" type="line"/>
      <point x="64.38" y="585.26" type="line"/>
    </contour>
  </outline>
</glyph>
<glyph name="plusminus" format="2">
  <advance width="961"/>
  <unicode hex="00B1"/>
  <outline>
    <contour>
      <point x="68.43" y="593.5699999999999" type="line"/>
      <point x="68.43" y="775.83" type="line"/>
      <point x="892.38" y="775.83" type="line"/>
      <point x="892.38" y="593.5699999999999" type="line"/>
    </contour>
    <contour>
      <point x="379.65" y="266.61999999999995" type="line"/>
      <point x="379.65" y="1113.04" type="line"/>
      <point x="581.1600000000001" y="1113.04" type="line"/>
      <point x="581.1600000000001" y="266.61999999999995" type="line"/>
    </contour>
    <contour>
      <point x="68.43" y="7.33" type="line"/>
      <point x="68.43" y="183.36" type="line"/>
      <point x="892.38" y="183.36" type="line"/>
      <point x="892.38" y="7.33" type="line"/>
    </contour>
  </outline>
</glyph>
<glyph name="twosuperior" format="2">
  <advance width="770"/>
  <unicode hex="00B2"/>
  <outline>
    <contour>
      <point x="82.78" y="671.0" type="line"/>
      <point x="82.24000000000001" y="777.0" type="line"/>
      <point x="95.41" y="853.28"/>
      <point x="203.04999999999998" y="1004.2"/>
      <point x="330.68" y="1078.8" type="qcurve" smooth="yes"/>
      <point x="419.63" y="1130.75"/>
      <point x="480.8" y="1221.84"/>
      <point x="479.98999999999995" y="1284.36" type="qcurve" smooth="yes"/>
      <point x="479.18" y="1339.9"/>
      <point x="409.32" y="1395.05"/>
      <point x="357.42" y="1395.05" type="qcurve" smooth="yes"/>
      <point x="293.0" y="1395.05"/>
      <point x="194.54" y="1351.05"/>
      <point x="142.06" y="1301.05" type="qcurve"/>
      <point x="84.08" y="1386.5" type="line"/>
      <point x="126.93999999999998" y="1438.76"/>
      <point x="281.99" y="1520.0"/>
      <point x="397.08" y="1520.0" type="qcurve" smooth="yes"/>
      <point x="528.54" y="1520.0"/>
      <point x="680.29" y="1407.11"/>
      <point x="681.2199999999999" y="1305.8" type="qcurve" smooth="yes"/>
      <point x="682.15" y="1189.8"/>
      <point x="542.7" y="1046.9199999999998"/>
      <point x="451.17" y="1004.21" type="qcurve" smooth="yes"/>
      <point x="322.69" y="944.51"/>
      <point x="241.56" y="868.1999999999999"/>
      <point x="232.56" y="837.88" type="qcurve"/>
      <point x="235.70000000000002" y="822.01" type="line"/>
      <point x="700.38" y="821.7" type="line"/>
      <point x="700.38" y="671.0" type="line"/>
    </contour>
  </outline>
</glyph>
<glyph name="micro" format="2">
  <advance width="1176"/>
  <unicode hex="00B5"/>
  <outline>
    <contour>
      <point x="-40.339999999999996" y="-304.6" type="line"/>
      <point x="-1.2399999999999993" y="-282.6" type="line"/>
      <point x="37.710461384433" y="-125.418154462268"/>
      <point x="101.39999999999999" y="160.67000000000002"/>
      <point x="115.88" y="238.66" type="qcurve" smooth="yes"/>
      <point x="223.85000000000002" y="832.85" type="line"/>
      <point x="82.02" y="835.74" type="line"/>
      <point x="86.5" y="942.59" type="line"/>
      <point x="394.31" y="1016.57" type="line"/>
      <point x="455.74" y="1016.57" type="line"/>
      <point x="500.73" y="934.81" type="line"/>
      <point x="383.28999999999996" y="335.78" type="line" smooth="yes"/>
      <point x="366.97999999999996" y="252.78"/>
      <point x="409.76" y="176.57999999999998"/>
      <point x="470.61" y="176.57999999999998" type="qcurve" smooth="yes"/>
      <point x="527.7299999999999" y="176.57999999999998"/>
      <point x="655.58" y="249.46000000000004"/>
      <point x="699.2" y="308.43" type="qcurve"/>
      <point x="815.3900000000001" y="915.36" type="line"/>
      <point x="786.61" y="1001.3399999999999" type="line"/>
      <point x="1046.1000000000001" y="1025.48" type="line"/>
      <point x="1084.07" y="931.5999999999999" type="line"/>
      <point x="976.3900000000001" y="423.38" type="line"/>
      <point x="937.7499999999999" y="158.8" type="line"/>
      <point x="1075.6100000000001" y="160.04" type="line"/>
      <point x="1076.3700000000001" y="59.09" type="line"/>
      <point x="734.88" y="-15.0" type="line"/>
      <point x="684.1600000000001" y="55.72" type="line"/>
      <point x="687.29" y="169.91000000000003" type="line"/>
      <point x="627.45" y="100.17999999999999"/>
      <point x="477.35" y="19.529999999999998"/>
      <point x="402.76" y="12.710000000000003" type="qcurve" smooth="yes"/>
      <point x="371.62" y="10.540000000000001"/>
      <point x="323.23" y="17.87"/>
      <point x="300.88" y="29.62" type="qcurve"/>
      <point x="247.16000000000003" y="-261.6" type="line"/>
      <point x="393.16" y="-269.6" type="line"/>
      <point x="383.92" y="-371.0" type="line"/>
      <point x="-18.580000000000002" y="-399.0" type="line"/>
    </contour>
  </outline>
</glyph>
<glyph name="guillemetright" format="2">
  <advance width="1290"/>
  <unicode hex="00BB"/>
  <outline>
    <contour>
      <point x="1265.25" y="586.0400000000001" type="line"/>
      <point x="1208.3999999999999" y="549.6"/>
      <point x="741.22" y="239.72"/>
      <point x="681.87" y="199.74" type="qcurve" smooth="yes"/>
      <point x="606.9" y="149.35999999999999"/>
      <point x="526.26" y="266.54"/>
      <point x="596.8100000000001" y="318.1" type="qcurve" smooth="yes"/>
      <point x="710.12" y="402.41"/>
      <point x="967.1" y="578.6600000000001"/>
      <point x="999.6" y="601.78" type="qcurve"/>
      <point x="966.8799999999999" y="624.6400000000001"/>
      <point x="677.3199999999999" y="836.67"/>
      <point x="593.23" y="900.36" type="qcurve" smooth="yes"/>
      <point x="524.41" y="951.69"/>
      <point x="591.34" y="1068.9799999999998"/>
      <point x="664.13" y="1026.44" type="qcurve" smooth="yes"/>
      <point x="727.32" y="989.19"/>
      <point x="1196.55" y="676.4599999999999"/>
      <point x="1265.25" y="630.56" type="qcurve"/>
    </contour>
    <contour>
      <point x="768.56" y="586.0400000000001" type="line"/>
      <point x="711.71" y="549.6"/>
      <point x="244.52999999999997" y="239.72"/>
      <point x="185.18" y="199.74" type="qcurve" smooth="yes"/>
      <point x="110.21000000000001" y="149.35999999999999"/>
      <point x="29.57" y="266.54"/>
      <point x="100.11999999999999" y="318.1" type="qcurve" smooth="yes"/>
      <point x="213.43" y="402.41"/>
      <point x="470.41" y="578.6600000000001"/>
      <point x="502.9100000000001" y="601.78" type="qcurve"/>
      <point x="470.19000000000005" y="624.6400000000001"/>
      <point x="180.63000000000002" y="836.67"/>
      <point x="96.53999999999999" y="900.36" type="qcurve" smooth="yes"/>
      <point x="27.72" y="951.69"/>
      <point x="94.65" y="1068.9799999999998"/>
      <point x="167.44" y="1026.44" type="qcurve" smooth="yes"/>
      <point x="230.63" y="989.19"/>
      <point x="699.86" y="676.4599999999999"/>
      <point x="768.56" y="630.56" type="qcurve"/>
    </contour>
  </outline>
</glyph>
<glyph name="ae" format="2">
  <advance width="1563"/>
  <unicode hex="00E6"/>
  <outline>
    <contour>
      <point x="67.57" y="245.69000000000003" type="qcurve" smooth="yes"/>
      <point x="67.57" y="400.72"/>
      <point x="354.47" y="592.79"/>
      <point x="672.1800000000001" y="630.61" type="qcurve"/>
      <point x="679.61" y="532.98" type="line"/>
      <point x="505.53999999999996" y="509.86999999999995"/>
      <point x="327.23" y="387.56"/>
      <point x="327.23" y="272.43" type="qcurve" smooth="yes"/>
      <point x="327.23" y="201.84"/>
      <point x="395.92" y="131.93"/>
      <point x="457.37" y="131.93" type="qcurve" smooth="yes"/>
      <point x="522.99" y="131.93"/>
      <point x="646.33" y="209.84"/>
      <point x="674.99" y="260.53999999999996" type="qcurve"/>
      <point x="661.5600000000001" y="298.34"/>
      <point x="646.0" y="425.87"/>
      <point x="646.0" y="496.46000000000004" type="qcurve" smooth="yes"/>
      <point x="646.0" y="615.45" type="line" smooth="yes"/>
      <point x="646.0" y="778.86"/>
      <point x="554.75" y="899.8"/>
      <point x="464.06999999999994" y="899.8" type="qcurve" smooth="yes"/>
      <point x="399.42" y="899.8"/>
      <point x="303.91999999999996" y="865.67"/>
      <point x="280.88" y="841.47" type="qcurve"/>
      <point x="301.28" y="821.49"/>
      <point x="325.61" y="777.6"/>
      <point x="328.61" y="751.34" type="qcurve" smooth="yes"/>
      <point x="334.46" y="702.6700000000001"/>
      <point x="282.6" y="646.8"/>
      <point x="235.89999999999998" y="645.25" type="qcurve" smooth="yes"/>
      <point x="187.43" y="643.7"/>
      <point x="123.98" y="716.24"/>
      <point x="124.82000000000001" y="788.74" type="qcurve" smooth="yes"/>
      <point x="126.08" y="891.08"/>
      <point x="341.73" y="1038.06"/>
      <point x="518.57" y="1038.06" type="qcurve" smooth="yes"/>
      <point x="623.52" y="1038.06"/>
      <point x="765.51" y="967.09"/>
      <point x="799.77" y="913.26" type="qcurve"/>
      <point x="805.02" y="913.26" type="line"/>
      <point x="842.16" y="959.9100000000001"/>
      <point x="998.94" y="1037.79"/>
      <point x="1108.76" y="1037.79" type="qcurve" smooth="yes"/>
      <point x="1291.3799999999999" y="1037.79"/>
      <point x="1505.65" y="804.78"/>
      <point x="1518.6200000000001" y="596.06" type="qcurve"/>
      <point x="1518.6200000000001" y="523.35" type="line"/>
      <point x="860.11" y="523.35" type="line"/>
      <point x="860.11" y="630.51" type="line"/>
      <point x="1284.6200000000001" y="630.51" type="line"/>
      <point x="1275.89" y="773.85"/>
      <point x="1189.21" y="911.39"/>
      <point x="1103.31" y="911.39" type="qcurve" smooth="yes"/>
      <point x="1001.9" y="911.39"/>
      <point x="897.51" y="724.49"/>
      <point x="898.51" y="531.16" type="qcurve" smooth="yes"/>
      <point x="899.09" y="327.37"/>
      <point x="1039.6699999999998" y="126.8"/>
      <point x="1177.3999999999999" y="126.8" type="qcurve" smooth="yes"/>
      <point x="1269.64" y="126.8"/>
      <point x="1396.59" y="181.92999999999998"/>
      <point x="1437.6799999999998" y="222.34" type="qcurve"/>
      <point x="1489.82" y="148.07999999999998" type="line"/>
      <point x="1446.53" y="79.19"/>
      <point x="1264.67" y="-21.45"/>
      <point x="1125.3600000000001" y="-21.45" type="qcurve" smooth="yes"/>
      <point x="981.2900000000001" y="-21.45"/>
      <point x="780.99" y="74.6"/>
      <point x="731.43" y="154.28" type="qcurve"/>
      <point x="676.3199999999999" y="84.64999999999999"/>
      <point x="484.79999999999995" y="-15.049999999999999"/>
      <point x="353.28999999999996" y="-15.049999999999999" type="qcurve" smooth="yes"/>
      <point x="212.01" y="-15.049999999999999"/>
      <point x="67.57" y="131.70000000000002"/>
    </contour>
  </outline>
</glyph>
<glyph name="OE" format="2">
  <advance width="1973"/>
  <unicode hex="0152"/>
  <outline>
    <contour>
      <point x="68.63" y="738.86" type="qcurve" smooth="yes"/>
      <point x="68.63" y="1069.86"/>
      <point x="432.70000000000005" y="1520.79"/>
      <point x="764.36" y="1520.79" type="qcurve" smooth="yes"/>
      <point x="822.38" y="1520.79"/>
      <point x="1030.82" y="1504.03"/>
      <point x="1083.3" y="1500.0" type="qcurve" smooth="yes"/>
      <point x="1842.77" y="1500.0" type="line"/>
      <point x="1842.77" y="1152.17" type="line"/>
      <point x="1715.26" y="1152.17" type="line"/>
      <point x="1684.4599999999998" y="1369.6" type="line"/>
      <point x="1317.55" y="1369.6" type="line"/>
      <point x="1284.27" y="1348.36" type="line"/>
      <point x="1282.69" y="783.0" type="line"/>
      <point x="1284.27" y="147.81" type="line"/>
      <point x="1316.3799999999999" y="123.5" type="line"/>
      <point x="1736.0700000000002" y="123.5" type="line"/>
      <point x="1801.5900000000001" y="385.13" type="line"/>
      <point x="1932.9899999999998" y="385.13" type="line"/>
      <point x="1898.65" y="0.0" type="line"/>
      <point x="1116.25" y="0.0" type="line" smooth="yes"/>
      <point x="1062.7399999999998" y="-3.7199999999999998"/>
      <point x="836.19" y="-25.69"/>
      <point x="765.15" y="-25.69" type="qcurve" smooth="yes"/>
      <point x="442.16999999999996" y="-25.69"/>
      <point x="68.63" y="397.86"/>
    </contour>
    <contour>
      <point x="363.91" y="770.07" type="qcurve" smooth="yes"/>
      <point x="363.91" y="463.12"/>
      <point x="576.0" y="111.26"/>
      <point x="781.44" y="111.26" type="qcurve" smooth="yes"/>
      <point x="856.8599999999999" y="111.26"/>
      <point x="963.5100000000001" y="132.15"/>
      <point x="1009.6499999999999" y="149.94" type="qcurve"/>
      <point x="1011.6499999999999" y="774.01" type="line"/>
      <point x="1009.6499999999999" y="1337.37" type="line"/>
      <point x="976.2499999999999" y="1351.12"/>
      <point x="849.8299999999999" y="1378.39"/>
      <point x="774.62" y="1378.39" type="qcurve" smooth="yes"/>
      <point x="557.58" y="1378.39"/>
      <point x="363.91" y="1060.75"/>
    </contour>
    <contour>
      <point x="1156.97" y="731.8" type="line"/>
      <point x="1156.97" y="840.2" type="line"/>
      <point x="1588.28" y="850.2" type="line"/>
      <point x="1616.6" y="1004.31" type="line"/>
      <point x="1731.6799999999998" y="1004.31" type="line"/>
      <point x="1731.6799999999998" y="565.52" type="line"/>
      <point x="1616.6" y="565.52" type="line"/>
      <point x="1588.28" y="721.8" type="line"/>
    </contour>
  </outline>
</glyph>
<glyph name="oe" format="2">
  <advance width="1705"/>
  <unicode hex="0153"/>
  <outline>
    <contour>
      <point x="54.4" y="507.75" type="qcurve" smooth="yes"/>
      <point x="54.4" y="738.5600000000001"/>
      <point x="330.82" y="1037.48"/>
      <point x="559.33" y="1037.48" type="qcurve" smooth="yes"/>
      <point x="679.08" y="1037.48"/>
      <point x="857.72" y="951.28"/>
      <point x="914.28" y="885.82" type="qcurve"/>
      <point x="921.26" y="885.82" type="line"/>
      <point x="970.24" y="950.9399999999999"/>
      <point x="1133.72" y="1037.79"/>
      <point x="1237.85" y="1037.79" type="qcurve" smooth="yes"/>
      <point x="1432.56" y="1037.79"/>
      <point x="1647.13" y="804.78"/>
      <point x="1660.1000000000001" y="596.06" type="qcurve"/>
      <point x="1660.1000000000001" y="523.35" type="line"/>
      <point x="1001.5900000000001" y="523.35" type="line"/>
      <point x="1001.5900000000001" y="630.51" type="line"/>
      <point x="1426.1" y="630.51" type="line"/>
      <point x="1417.3700000000001" y="773.85"/>
      <point x="1330.69" y="911.39"/>
      <point x="1244.79" y="911.39" type="qcurve" smooth="yes"/>
      <point x="1143.3799999999999" y="911.39"/>
      <point x="1039.8" y="724.49"/>
      <point x="1040.8" y="531.16" type="qcurve" smooth="yes"/>
      <point x="1041.38" y="327.37"/>
      <point x="1181.15" y="126.8"/>
      <point x="1318.88" y="126.8" type="qcurve" smooth="yes"/>
      <point x="1411.1200000000001" y="126.8"/>
      <point x="1538.07" y="181.92999999999998"/>
      <point x="1579.16" y="222.34" type="qcurve"/>
      <point x="1631.3" y="148.07999999999998" type="line"/>
      <point x="1588.0100000000002" y="79.19"/>
      <point x="1406.1499999999999" y="-21.45"/>
      <point x="1262.79" y="-21.45" type="qcurve" smooth="yes"/>
      <point x="1150.6499999999999" y="-21.45"/>
      <point x="962.1299999999999" y="63.36"/>
      <point x="907.0899999999999" y="134.8" type="qcurve"/>
      <point x="902.1599999999999" y="134.8" type="line"/>
      <point x="851.54" y="67.4"/>
      <point x="676.17" y="-21.45"/>
      <point x="563.4300000000001" y="-21.45" type="qcurve" smooth="yes"/>
      <point x="334.34000000000003" y="-21.45"/>
      <point x="54.4" y="260.63"/>
    </contour>
    <contour>
      <point x="334.36" y="526.2" type="qcurve" smooth="yes"/>
      <point x="335.36" y="326.74"/>
      <point x="453.6" y="97.63000000000001"/>
      <point x="559.1" y="97.63000000000001" type="qcurve" smooth="yes"/>
      <point x="672.57" y="97.63000000000001"/>
      <point x="784.05" y="305.05"/>
      <point x="784.05" y="512.2" type="qcurve" smooth="yes"/>
      <point x="784.05" y="704.6600000000001"/>
      <point x="666.3399999999999" y="909.3000000000001"/>
      <point x="560.26" y="909.3000000000001" type="qcurve" smooth="yes"/>
      <point x="445.1" y="909.3000000000001"/>
      <point x="333.36" y="724.35"/>
    </contour>
  </outline>
</glyph>
<glyph name="doubleprimemod" format="2">
  <advance width="856"/>
  <unicode hex="02BA"/>
  <outline>
    <contour>
      <point x="221.18" y="1502.0" type="line"/>
      <point x="449.24" y="1502.0" type="line"/>
      <point x="305.40000000000003" y="958.55" type="line"/>
      <point x="166.04000000000002" y="963.55" type="line"/>
    </contour>
    <contour>
      <point x="554.18" y="1502.0" type="line"/>
      <point x="782.24" y="1502.0" type="line"/>
      <point x="638.4" y="958.55" type="line"/>
      <point x="499.03999999999996" y="963.55" type="line"/>
    </contour>
  </outline>
</glyph>
<glyph name="circumflex" format="2">
  <advance width="1024"/>
  <unicode hex="02C6"/>
  <outline>
    <contour>
      <point x="512.0" y="1526.5200000000002" type="qcurve" smooth="yes"/>
      <point x="546.91" y="1526.5200000000002"/>
      <point x="596.3199999999999" y="1492.95"/>
      <point x="630.4" y="1448.71" type="qcurve" smooth="yes"/>
      <point x="825.2099999999999" y="1202.33" type="line"/>
      <point x="747.71" y="1129.72" type="line"/>
      <point x="512.0" y="1339.93" type="line"/>
      <point x="276.29" y="1129.72" type="line"/>
      <point x="198.79" y="1202.33" type="line"/>
      <point x="393.6" y="1448.71" type="line" smooth="yes"/>
      <point x="433.83" y="1499.44"/>
      <point x="477.09" y="1526.5200000000002"/>
    </contour>
  </outline>
</glyph>
<glyph name="caron" format="2">
  <advance width="1024"/>
  <unicode hex="02C7"/>
  <outline>
    <contour>
      <point x="512.0" y="1132.82" type="qcurve" smooth="yes"/>
      <point x="477.09" y="1132.82"/>
      <point x="427.68" y="1166.39"/>
      <point x="393.6" y="1210.6299999999999" type="qcurve" smooth="yes"/>
      <point x="198.79" y="1457.01" type="line"/>
      <point x="276.29" y="1529.6200000000001" type="line"/>
      <point x="512.0" y="1319.41" type="line"/>
      <point x="747.71" y="1529.6200000000001" type="line"/>
      <point x="825.2099999999999" y="1457.01" type="line"/>
      <point x="630.4" y="1210.6299999999999" type="line" smooth="yes"/>
      <point x="590.1700000000001" y="1159.9"/>
      <point x="546.91" y="1132.82"/>
    </contour>
  </outline>
</glyph>
<glyph name="breve" format="2">
  <advance width="1024"/>
  <unicode hex="02D8"/>
  <outline>
    <contour>
      <point x="769.29" y="1465.06" type="qcurve"/>
      <point x="846.37" y="1416.95" type="line"/>
      <point x="829.0799999999999" y="1319.47"/>
      <point x="648.4100000000001" y="1142.86"/>
      <point x="513.0" y="1142.86" type="qcurve" smooth="yes"/>
      <point x="377.59000000000003" y="1142.86"/>
      <point x="200.60000000000002" y="1299.07"/>
      <point x="177.63" y="1414.3700000000001" type="qcurve"/>
      <point x="258.6" y="1466.06" type="line"/>
      <point x="289.94" y="1400.87"/>
      <point x="419.71000000000004" y="1301.1899999999998"/>
      <point x="514.0" y="1300.65" type="qcurve" smooth="yes"/>
      <point x="613.48" y="1301.1899999999998"/>
      <point x="743.26" y="1402.4499999999998"/>
    </contour>
  </outline>
</glyph>
<glyph name="dotaccent" format="2">
  <advance width="1024"/>
  <unicode hex="02D9"/>
  <outline>
    <contour>
      <point x="390.22999999999996" y="1288.9199999999998" type="qcurve" smooth="yes"/>
      <point x="390.22999999999996" y="1349.4"/>
      <point x="453.08000000000004" y="1413.04"/>
      <point x="512.31" y="1413.04" type="qcurve" smooth="yes"/>
      <point x="567.96" y="1413.04"/>
      <point x="634.39" y="1344.78"/>
      <point x="634.39" y="1288.9199999999998" type="qcurve" smooth="yes"/>
      <point x="634.39" y="1229.1699999999998"/>
      <point x="572.1600000000001" y="1164.8"/>
      <point x="512.31" y="1164.8" type="qcurve" smooth="yes"/>
      <point x="456.66" y="1164.8"/>
      <point x="390.22999999999996" y="1232.75"/>
    </contour>
  </outline>
</glyph>
<glyph name="hookabovecomb" format="2">
  <advance width="1024"/>
  <unicode hex="0309"/>
  <outline>
    <contour>
      <point x="399.9" y="1022.1099999999999" type="line"/>
      <point x="399.9" y="1152.14" type="line"/>
      <point x="468.93" y="1235.34" type="line"/>
      <point x="486.44" y="1229.34"/>
      <point x="522.6700000000001" y="1223.3"/>
      <point x="537.2900000000001" y="1223.3" type="qcurve" smooth="yes"/>
      <point x="579.2" y="1223.3"/>
      <point x="629.78" y="1267.1699999999998"/>
      <point x="629.78" y="1306.56" type="qcurve" smooth="yes"/>
      <point x="629.78" y="1345.5"/>
      <point x="571.48" y="1385.6"/>
      <point x="523.53" y="1385.6" type="qcurve" smooth="yes"/>
      <point x="475.62" y="1385.6"/>
      <point x="374.61" y="1362.24"/>
      <point x="335.01" y="1344.5" type="qcurve"/>
      <point x="287.71" y="1455.55" type="line"/>
      <point x="345.83000000000004" y="1482.15"/>
      <point x="471.41" y="1514.33"/>
      <point x="526.22" y="1514.33" type="qcurve" smooth="yes"/>
      <point x="651.14" y="1514.33"/>
      <point x="794.68" y="1407.55"/>
      <point x="794.68" y="1303.08" type="qcurve" smooth="yes"/>
      <point x="794.68" y="1215.97"/>
      <point x="689.6500000000001" y="1107.5"/>
      <point x="612.0899999999999" y="1107.5" type="qcurve" smooth="yes"/>
      <point x="585.0300000000001" y="1107.5"/>
      <point x="539.0" y="1114.53"/>
      <point x="523.95" y="1118.11" type="qcurve"/>
      <point x="523.95" y="1022.1099999999999" type="line"/>
    </contour>
  </outline>
</glyph>
<glyph name="dblgravecomb" format="2">
  <advance width="1024"/>
  <unicode hex="0311"/>
  <outline>
    <contour>
      <point x="84.39" y="1451.45" type="qcurve"/>
      <point x="87.33" y="1485.68"/>
      <point x="147.92" y="1531.5100000000002"/>
      <point x="184.08" y="1529.41" type="qcurve" smooth="yes"/>
      <point x="222.39000000000001" y="1527.3100000000002"/>
      <point x="287.63" y="1459.9299999999998"/>
      <point x="318.45" y="1415.6499999999999" type="qcurve" smooth="yes"/>
      <point x="470.45" y="1197.49" type="line"/>
      <point x="394.75" y="1128.99" type="line"/>
      <point x="160.79000000000002" y="1320.87" type="line" smooth="yes"/>
      <point x="123.98" y="1350.96"/>
      <point x="81.45" y="1415.77"/>
    </contour>
    <contour>
      <point x="443.16" y="1451.03" type="qcurve"/>
      <point x="446.1" y="1485.68"/>
      <point x="506.69" y="1531.5100000000002"/>
      <point x="542.85" y="1529.41" type="qcurve" smooth="yes"/>
      <point x="581.16" y="1526.89"/>
      <point x="646.67" y="1459.66"/>
      <point x="677.49" y="1415.38" type="qcurve" smooth="yes"/>
      <point x="829.22" y="1197.49" type="line"/>
      <point x="753.52" y="1128.99" type="line"/>
      <point x="519.5600000000001" y="1320.87" type="line" smooth="yes"/>
      <point x="483.17" y="1350.96"/>
      <point x="440.22" y="1415.77"/>
    </contour>
  </outline>
</glyph>
<glyph name="horncomb" format="2">
  <advance width="1024"/>
  <unicode hex="031B"/>
  <outline>
    <contour>
      <point x="16.64" y="987.82" type="line"/>
      <point x="47.76" y="981.6700000000001"/>
      <point x="107.53999999999999" y="975.21"/>
      <point x="137.6" y="975.21" type="qcurve" smooth="yes"/>
      <point x="198.14000000000001" y="975.21"/>
      <point x="253.62" y="1020.9799999999999"/>
      <point x="253.62" y="1068.78" type="qcurve" smooth="yes"/>
      <point x="253.62" y="1100.84"/>
      <point x="243.08" y="1177.5600000000002"/>
      <point x="233.3" y="1221.98" type="qcurve"/>
      <point x="347.97999999999996" y="1221.98" type="line"/>
      <point x="369.88" y="1176.18"/>
      <point x="394.35999999999996" y="1084.58"/>
      <point x="394.35999999999996" y="1045.36" type="qcurve" smooth="yes"/>
      <point x="394.35999999999996" y="951.4499999999999"/>
      <point x="280.96" y="843.17"/>
      <point x="172.67000000000002" y="843.17" type="qcurve" smooth="yes"/>
      <point x="137.34" y="843.17"/>
      <point x="56.269999999999996" y="856.75"/>
      <point x="16.64" y="870.56" type="qcurve"/>
    </contour>
  </outline>
</glyph>
<glyph name="dieresisbelowcomb" format="2">
  <advance width="1024"/>
  <unicode hex="0324"/>
  <outline>
    <contour>
      <point x="195.8" y="-297.61" type="qcurve" smooth="yes"/>
      <point x="195.8" y="-240.17"/>
      <point x="256.03000000000003" y="-178.73000000000002"/>
      <point x="312.68" y="-178.73000000000002" type="qcurve" smooth="yes"/>
      <point x="366.02000000000004" y="-178.73000000000002"/>
      <point x="429.56" y="-244.37"/>
      <point x="429.56" y="-297.61" type="qcurve" smooth="yes"/>
      <point x="429.56" y="-354.78"/>
      <point x="370.02000000000004" y="-416.53"/>
      <point x="312.68" y="-416.53" type="qcurve" smooth="yes"/>
      <point x="259.34000000000003" y="-416.53"/>
      <point x="195.8" y="-351.47"/>
    </contour>
    <contour>
      <point x="594.44" y="-297.61" type="qcurve" smooth="yes"/>
      <point x="594.44" y="-240.17"/>
      <point x="654.98" y="-178.73000000000002"/>
      <point x="711.32" y="-178.73000000000002" type="qcurve" smooth="yes"/>
      <point x="764.6600000000001" y="-178.73000000000002"/>
      <point x="828.1999999999999" y="-244.37"/>
      <point x="828.1999999999999" y="-297.61" type="qcurve" smooth="yes"/>
      <point x="828.1999999999999" y="-354.78"/>
      <point x="768.97" y="-416.53"/>
      <point x="711.32" y="-416.53" type="qcurve" smooth="yes"/>
      <point x="657.98" y="-416.53"/>
      <point x="594.44" y="-351.47"/>
    </contour>
  </outline>
</glyph>
<glyph name="lownumeralsign" format="2">
  <advance width="429"/>
  <unicode hex="0375"/>
  <outline>
    <contour>
      <point x="223.9" y="-258.87" type="line"/>
      <point x="47.88" y="-228.01" type="line"/>
      <point x="8.400000000000002" y="-179.22" type="line"/>
      <point x="232.17" y="265.0" type="line"/>
      <point x="326.60999999999996" y="231.0" type="line"/>
    </contour>
  </outline>
</glyph>
<glyph name="tonos" format="2">
  <advance width="909"/>
  <unicode hex="0384"/>
  <anchor x="398.96" y="1015.5" name="_GRKtop"/>
  <outline>
    <contour>
      <point x="434.25" y="1166.12" type="line"/>
      <point x="339.81" y="1200.1200000000001" type="line"/>
      <point x="439.42" y="1642.93" type="line"/>
      <point x="615.4399999999999" y="1612.07" type="line"/>
      <point x="654.9200000000001" y="1563.28" type="line"/>
    </contour>
  </outline>
</glyph>
<glyph name="Xi" format="2">
  <advance width="1247"/>
  <unicode hex="039E"/>
  <outline>
    <contour>
      <point x="96.94" y="0.0" type="line"/>
      <point x="56.07000000000001" y="463.23" type="line"/>
      <point x="186.76999999999998" y="463.23" type="line"/>
      <point x="251.18" y="210.0" type="line"/>
      <point x="616.28" y="206.38" type="line"/>
      <point x="996.26" y="210.0" type="line"/>
      <point x="1060.67" y="463.23" type="line"/>
      <point x="1191.37" y="463.23" type="line"/>
      <point x="1150.5" y="0.0" type="line"/>
    </contour>
    <contour>
      <point x="296.27000000000004" y="516.0" type="line"/>
      <point x="296.27000000000004" y="967.19" type="line"/>
      <point x="409.75" y="967.19" type="line"/>
      <point x="440.33" y="820.33" type="line"/>
      <point x="619.38" y="809.2" type="line"/>
      <point x="807.1100000000001" y="820.33" type="line"/>
      <point x="837.6899999999999" y="967.19" type="line"/>
      <point x="951.1699999999998" y="967.19" type="line"/>
      <point x="951.1699999999998" y="516.0" type="line"/>
      <point x="837.6899999999999" y="516.0" type="line"/>
      <point x="807.1100000000001" y="665.0300000000001" type="line"/>
      <point x="619.38" y="676.16" type="line"/>
      <point x="440.33" y="665.0300000000001" type="line"/>
      <point x="409.75" y="516.0" type="line"/>
    </contour>
    <contour>
      <point x="98.53" y="1038.84" type="line"/>
      <point x="98.53" y="1500.31" type="line"/>
      <point x="1148.91" y="1500.31" type="line"/>
      <point x="1148.91" y="1038.84" type="line"/>
      <point x="1023.36" y="1038.84" type="line"/>
      <point x="992.11" y="1284.03" type="line"/>
      <point x="616.9" y="1287.65" type="line"/>
      <point x="255.33" y="1284.03" type="line"/>
      <point x="224.08" y="1038.84" type="line"/>
    </contour>
  </outline>
</glyph>
<glyph name="beta" format="2">
  <advance width="1156"/>
  <unicode hex="03B2"/>
  <outline>
    <contour>
      <point x="174.35999999999999" y="-480.0" type="line"/>
      <point x="136.88" y="-446.49" type="line"/>
      <point x="144.39000000000001" y="247.1" type="line"/>
      <point x="143.67000000000002" y="982.4399999999999" type="line" smooth="yes"/>
      <point x="143.52" y="1264.5800000000002"/>
      <point x="379.70000000000005" y="1537.0"/>
      <point x="594.02" y="1537.0" type="qcurve" smooth="yes"/>
      <point x="794.4399999999999" y="1537.0"/>
      <point x="992.4599999999999" y="1330.73"/>
      <point x="992.4599999999999" y="1177.18" type="qcurve" smooth="yes"/>
      <point x="992.4599999999999" y="998.51"/>
      <point x="765.12" y="744.68"/>
      <point x="554.46" y="687.33" type="qcurve" smooth="yes"/>
      <point x="498.92999999999995" y="676.38" type="line"/>
      <point x="471.15000000000003" y="719.06" type="line"/>
      <point x="529.27" y="923.23" type="line"/>
      <point x="587.6" y="916.5300000000001" type="line" smooth="yes"/>
      <point x="853.7900000000001" y="886.53"/>
      <point x="1098.88" y="653.58"/>
      <point x="1098.88" y="458.0" type="qcurve" smooth="yes"/>
      <point x="1098.88" y="237.52"/>
      <point x="848.02" y="-19.9"/>
      <point x="659.0" y="-19.9" type="qcurve"/>
      <point x="553.0" y="-19.9"/>
      <point x="369.72999999999996" y="73.37"/>
      <point x="309.94" y="179.95999999999998" type="qcurve"/>
      <point x="309.94" y="273.74" type="line"/>
      <point x="372.15000000000003" y="273.74" type="line"/>
      <point x="415.75" y="183.55"/>
      <point x="530.29" y="113.75"/>
      <point x="600.09" y="113.75" type="qcurve" smooth="yes"/>
      <point x="705.53" y="113.75"/>
      <point x="832.8" y="291.5"/>
      <point x="832.8" y="438.2" type="qcurve" smooth="yes"/>
      <point x="832.8" y="611.07"/>
      <point x="668.51" y="783.35"/>
      <point x="558.12" y="788.0" type="qcurve"/>
      <point x="572.9599999999999" y="834.0" type="line"/>
      <point x="644.75" y="847.38"/>
      <point x="771.04" y="1022.6500000000001"/>
      <point x="771.04" y="1171.63" type="qcurve" smooth="yes"/>
      <point x="771.04" y="1300.47"/>
      <point x="680.56" y="1418.9299999999998"/>
      <point x="595.98" y="1418.9299999999998" type="qcurve" smooth="yes"/>
      <point x="492.99" y="1418.9299999999998"/>
      <point x="391.82" y="1242.72"/>
      <point x="392.44" y="1017.0" type="qcurve" smooth="yes"/>
      <point x="394.61" y="127.74000000000001" type="line"/>
      <point x="416.95" y="-457.92" type="line"/>
    </contour>
  </outline>
</glyph>
<glyph name="epsilon" format="2">
  <advance width="947"/>
  <unicode hex="03B5"/>
  <anchor x="520.57" y="1015.5" name="GRKtop"/>
  <outline>
    <contour>
      <point x="469.52" y="-21.139999999999997" type="qcurve" smooth="yes"/>
      <point x="271.51" y="-21.139999999999997"/>
      <point x="51.6" y="125.35"/>
      <point x="51.6" y="255.8" type="qcurve" smooth="yes"/>
      <point x="51.6" y="393.55"/>
      <point x="327.88" y="572.01"/>
      <point x="563.66" y="609.4" type="qcurve" smooth="yes"/>
      <point x="631.88" y="619.6" type="line"/>
      <point x="660.9" y="577.8900000000001" type="line"/>
      <point x="589.37" y="399.8" type="line"/>
      <point x="549.27" y="405.54" type="line" smooth="yes"/>
      <point x="338.16999999999996" y="436.43"/>
      <point x="89.34" y="609.75"/>
      <point x="89.34" y="738.5" type="qcurve" smooth="yes"/>
      <point x="89.34" y="865.49"/>
      <point x="308.27" y="1038.1"/>
      <point x="514.02" y="1038.1" type="qcurve" smooth="yes"/>
      <point x="621.96" y="1038.1"/>
      <point x="812.19" y="984.1899999999999"/>
      <point x="855.36" y="945.36" type="qcurve"/>
      <point x="852.84" y="656.15" type="line"/>
      <point x="740.56" y="656.15" type="line"/>
      <point x="703.26" y="854.54" type="line"/>
      <point x="682.65" y="876.0500000000001"/>
      <point x="591.6700000000001" y="901.78"/>
      <point x="547.65" y="901.78" type="qcurve" smooth="yes"/>
      <point x="446.7" y="901.78"/>
      <point x="342.37" y="807.8100000000001"/>
      <point x="342.37" y="725.59" type="qcurve" smooth="yes"/>
      <point x="342.37" y="662.0"/>
      <point x="425.07" y="561.78"/>
      <point x="576.7800000000001" y="506.41" type="qcurve"/>
      <point x="565.79" y="477.3" type="line"/>
      <point x="449.76" y="463.8"/>
      <point x="329.03000000000003" y="364.85"/>
      <point x="329.03000000000003" y="287.3" type="qcurve" smooth="yes"/>
      <point x="329.03000000000003" y="206.4"/>
      <point x="447.34999999999997" y="126.86"/>
      <point x="535.1" y="126.86" type="qcurve" smooth="yes"/>
      <point x="632.73" y="126.86"/>
      <point x="791.97" y="200.09"/>
      <point x="859.0600000000001" y="272.64" type="qcurve"/>
      <point x="921.6200000000001" y="198.31" type="line"/>
      <point x="855.42" y="93.75"/>
      <point x="635.64" y="-21.139999999999997"/>
    </contour>
  </outline>
</glyph>
<glyph name="eta" format="2">
  <advance width="1140"/>
  <unicode hex="03B7"/>
  <anchor x="500.39000000000004" y="1015.5" name="GRKtop"/>
  <outline>
    <contour>
      <point x="780.3399999999999" y="-480.0" type="line"/>
      <point x="742.86" y="-446.18" type="line"/>
      <point x="758.93" y="391.32" type="line"/>
      <point x="758.93" y="674.32" type="line" smooth="yes"/>
      <point x="758.93" y="768.0799999999999"/>
      <point x="692.46" y="855.37"/>
      <point x="627.02" y="855.37" type="qcurve"/>
      <point x="566.4" y="855.37"/>
      <point x="460.68999999999994" y="781.8199999999999"/>
      <point x="428.65999999999997" y="721.2900000000001" type="qcurve"/>
      <point x="427.19" y="538.29" type="line"/>
      <point x="436.86" y="22.08" type="line"/>
      <point x="198.32" y="0.0" type="line"/>
      <point x="160.84" y="33.82" type="line"/>
      <point x="172.54000000000002" y="677.11" type="line"/>
      <point x="171.89000000000001" y="791.8199999999999"/>
      <point x="146.58" y="858.84"/>
      <point x="104.70000000000002" y="868.55" type="qcurve" smooth="yes"/>
      <point x="48.39" y="882.17" type="line"/>
      <point x="48.39" y="988.26" type="line"/>
      <point x="282.98" y="1022.57" type="line"/>
      <point x="336.45" y="1021.73"/>
      <point x="409.82" y="946.99"/>
      <point x="423.75" y="858.63" type="qcurve"/>
      <point x="425.06" y="858.63" type="line"/>
      <point x="464.72999999999996" y="924.77"/>
      <point x="624.84" y="1034.71"/>
      <point x="734.29" y="1034.71" type="qcurve" smooth="yes"/>
      <point x="876.9899999999999" y="1034.71"/>
      <point x="1015.84" y="871.11"/>
      <point x="1020.22" y="710.74" type="qcurve" smooth="yes"/>
      <point x="1018.1499999999999" y="408.51" type="line"/>
      <point x="1022.9300000000001" y="-457.92" type="line"/>
    </contour>
  </outline>
</glyph>
<glyph name="theta" format="2">
  <advance width="1130"/>
  <unicode hex="03B8"/>
  <outline>
    <contour>
      <point x="561.24" y="-23.84" type="qcurve" smooth="yes"/>
      <point x="289.04" y="-21.669999999999998"/>
      <point x="67.26" y="351.45"/>
      <point x="67.10000000000001" y="753.72" type="qcurve" smooth="yes"/>
      <point x="66.94000000000001" y="1178.49"/>
      <point x="316.75" y="1546.3"/>
      <point x="572.69" y="1546.3" type="qcurve" smooth="yes"/>
      <point x="827.03" y="1546.3"/>
      <point x="1063.18" y="1206.7900000000002"/>
      <point x="1063.34" y="780.58" type="qcurve" smooth="yes"/>
      <point x="1063.5" y="366.85999999999996"/>
      <point x="815.33" y="-25.7"/>
    </contour>
    <contour>
      <point x="564.19" y="98.32000000000001" type="qcurve" smooth="yes"/>
      <point x="686.99" y="98.32000000000001"/>
      <point x="789.77" y="369.17"/>
      <point x="789.77" y="784.59" type="qcurve" smooth="yes"/>
      <point x="789.77" y="1149.54"/>
      <point x="689.4399999999999" y="1413.14"/>
      <point x="568.4300000000001" y="1413.14" type="qcurve" smooth="yes"/>
      <point x="440.68" y="1413.14"/>
      <point x="341.09" y="1160.22"/>
      <point x="341.09" y="791.65" type="qcurve" smooth="yes"/>
      <point x="341.09" y="374.49"/>
      <point x="440.59999999999997" y="98.32000000000001"/>
    </contour>
    <contour>
      <point x="276.18" y="636.3499999999999" type="line"/>
      <point x="276.18" y="891.03" type="line"/>
      <point x="564.1500000000001" y="826.7299999999999" type="line"/>
      <point x="849.86" y="891.03" type="line"/>
      <point x="849.86" y="636.3499999999999" type="line"/>
      <point x="564.1500000000001" y="700.65" type="line"/>
    </contour>
  </outline>
</glyph>
<glyph name="kappa" format="2">
  <advance width="1089"/>
  <unicode hex="03BA"/>
  <outline>
    <contour>
      <point x="149.98999999999998" y="0.0" type="line"/>
      <point x="152.35" y="393.71999999999997" type="line"/>
      <point x="141.31" y="993.73" type="line"/>
      <point x="390.41" y="1016.12" type="line"/>
      <point x="427.89" y="982.3" type="line"/>
      <point x="411.87" y="372.51" type="line"/>
      <point x="413.03" y="0.0" type="line"/>
    </contour>
    <contour>
      <point x="316.69" y="103.98" type="line"/>
      <point x="316.69" y="326.65999999999997" type="line"/>
      <point x="706.38" y="867.06" type="line" smooth="yes"/>
      <point x="753.63" y="932.5300000000001"/>
      <point x="866.04" y="1023.02"/>
      <point x="970.97" y="1025.33" type="qcurve"/>
      <point x="1003.8100000000001" y="996.44" type="line"/>
      <point x="982.1200000000001" y="796.0" type="line"/>
      <point x="900.02" y="796.0"/>
      <point x="836.5" y="769.2"/>
      <point x="798.59" y="720.66" type="qcurve" smooth="yes"/>
    </contour>
    <contour>
      <point x="860.7" y="-10.17" type="line"/>
      <point x="789.52" y="-10.17"/>
      <point x="715.6099999999999" y="43.03"/>
      <point x="677.25" y="136.58999999999997" type="qcurve" smooth="yes"/>
      <point x="515.0" y="509.89" type="line"/>
      <point x="664.11" y="672.19" type="line"/>
      <point x="879.17" y="255.15999999999997" type="line" smooth="yes"/>
      <point x="923.08" y="168.62"/>
      <point x="973.51" y="128.37"/>
      <point x="1016.48" y="128.37" type="qcurve" smooth="yes"/>
      <point x="1073.4" y="128.37" type="line"/>
      <point x="1073.4" y="30.24" type="line"/>
    </contour>
  </outline>
</glyph>
<glyph name="pi" format="2">
  <advance width="1194"/>
  <unicode hex="03C0"/>
  <outline>
    <contour>
      <point x="1130.15" y="799.78" type="line"/>
      <point x="32.47" y="821.23" type="line"/>
      <point x="32.47" y="926.79" type="line"/>
      <point x="154.43" y="996.23" type="line"/>
      <point x="1119.0" y="1025.33" type="line"/>
      <point x="1151.84" y="996.44" type="line"/>
    </contour>
    <contour>
      <point x="211.45000000000002" y="0.0" type="line"/>
      <point x="173.97" y="33.82" type="line"/>
      <point x="235.75" y="493.48" type="line"/>
      <point x="282.49" y="911.62" type="line"/>
      <point x="456.45" y="911.62" type="line"/>
      <point x="448.76" y="492.28" type="line"/>
      <point x="447.84" y="22.08" type="line"/>
    </contour>
    <contour>
      <point x="892.7600000000001" y="-10.17" type="line"/>
      <point x="802.92" y="-10.59"/>
      <point x="720.0799999999999" y="80.97999999999999"/>
      <point x="723.25" y="204.64000000000001" type="qcurve" smooth="yes"/>
      <point x="742.68" y="911.62" type="line"/>
      <point x="949.3000000000001" y="911.62" type="line"/>
      <point x="958.4699999999999" y="252.16" type="line" smooth="yes"/>
      <point x="959.2" y="187.93"/>
      <point x="1007.0100000000001" y="129.6"/>
      <point x="1050.44" y="128.79" type="qcurve"/>
      <point x="1121.69" y="128.79" type="line"/>
      <point x="1121.69" y="31.919999999999998" type="line"/>
    </contour>
  </outline>
</glyph>
<glyph name="rho" format="2">
  <advance width="1115"/>
  <unicode hex="03C1"/>
  <outline>
    <contour>
      <point x="138.22" y="-480.0" type="line"/>
      <point x="105.78" y="-446.49" type="line"/>
      <point x="114.52000000000001" y="110.0" type="line"/>
      <point x="114.52000000000001" y="444.0" type="line" smooth="yes"/>
      <point x="114.52000000000001" y="750.38"/>
      <point x="359.98" y="1037.48"/>
      <point x="592.3199999999999" y="1037.48" type="qcurve" smooth="yes"/>
      <point x="826.8299999999999" y="1037.48"/>
      <point x="1058.97" y="766.1899999999999"/>
      <point x="1058.97" y="524.54" type="qcurve" smooth="yes"/>
      <point x="1058.97" y="290.52"/>
      <point x="830.67" y="-10.58"/>
      <point x="633.33" y="-11.69" type="qcurve" smooth="yes"/>
      <point x="514.6800000000001" y="-12.38"/>
      <point x="323.12" y="93.48"/>
      <point x="272.27" y="190.43" type="qcurve"/>
      <point x="272.27" y="261.53000000000003" type="line"/>
      <point x="346.65999999999997" y="261.53000000000003" type="line"/>
      <point x="382.7" y="190.18"/>
      <point x="501.41" y="114.25"/>
      <point x="574.8700000000001" y="114.25" type="qcurve" smooth="yes"/>
      <point x="669.5699999999999" y="114.25"/>
      <point x="777.93" y="310.55"/>
      <point x="777.93" y="509.36" type="qcurve" smooth="yes"/>
      <point x="777.93" y="709.0300000000001"/>
      <point x="671.53" y="881.1500000000001"/>
      <point x="572.32" y="881.1500000000001" type="qcurve" smooth="yes"/>
      <point x="466.46999999999997" y="881.1500000000001"/>
      <point x="368.04" y="680.0600000000001"/>
      <point x="370.30999999999995" y="426.5" type="qcurve"/>
      <point x="373.34999999999997" y="103.8" type="line"/>
      <point x="384.17" y="-458.76" type="line"/>
    </contour>
  </outline>
</glyph>
<glyph name="tau" format="2">
  <advance width="929"/>
  <unicode hex="03C4"/>
  <outline>
    <contour>
      <point x="877.12" y="799.78" type="line"/>
      <point x="18.28" y="821.23" type="line"/>
      <point x="18.28" y="926.79" type="line"/>
      <point x="140.24" y="996.23" type="line"/>
      <point x="865.9699999999999" y="1025.33" type="line"/>
      <point x="898.81" y="996.44" type="line"/>
    </contour>
    <contour>
      <point x="481.08000000000004" y="-10.17" type="line"/>
      <point x="385.44" y="-10.17"/>
      <point x="296.72" y="95.24"/>
      <point x="305.09000000000003" y="228.35000000000002" type="qcurve" smooth="yes"/>
      <point x="346.04" y="921.35" type="line"/>
      <point x="553.8900000000001" y="921.35" type="line"/>
      <point x="556.28" y="266.83000000000004" type="line" smooth="yes"/>
      <point x="556.59" y="180.08"/>
      <point x="611.76" y="126.36"/>
      <point x="695.5300000000001" y="126.36" type="qcurve" smooth="yes"/>
      <point x="797.9100000000001" y="126.36" type="line"/>
      <point x="797.9100000000001" y="29.31" type="line"/>
    </contour>
  </outline>
</glyph>
<glyph name="upsilon" format="2">
  <advance width="1099"/>
  <unicode hex="03C5"/>
  <anchor x="529.31" y="1015.5" name="GRKtop"/>
  <outline>
    <contour>
      <point x="558.76" y="-17.0" type="qcurve" smooth="yes"/>
      <point x="352.20000000000005" y="-17.0"/>
      <point x="144.3" y="191.91"/>
      <point x="151.54999999999998" y="396.23" type="qcurve" smooth="yes"/>
      <point x="161.43" y="680.0" type="line" smooth="yes"/>
      <point x="165.01" y="781.1"/>
      <point x="139.43" y="857.04"/>
      <point x="92.41" y="868.9699999999999" type="qcurve"/>
      <point x="37.589999999999996" y="882.17" type="line"/>
      <point x="37.589999999999996" y="988.26" type="line"/>
      <point x="272.45" y="1022.57" type="line"/>
      <point x="345.15" y="1020.8900000000001"/>
      <point x="425.70000000000005" y="907.06"/>
      <point x="422.70000000000005" y="791.0" type="qcurve" smooth="yes"/>
      <point x="412.25000000000006" y="377.62" type="line" smooth="yes"/>
      <point x="409.71" y="261.96999999999997"/>
      <point x="495.54" y="158.09"/>
      <point x="575.4100000000001" y="158.09" type="qcurve" smooth="yes"/>
      <point x="663.03" y="158.09"/>
      <point x="770.71" y="310.26"/>
      <point x="770.71" y="497.29999999999995" type="qcurve" smooth="yes"/>
      <point x="770.71" y="631.63"/>
      <point x="704.4200000000001" y="863.29"/>
      <point x="633.3900000000001" y="965.9" type="qcurve"/>
      <point x="809.21" y="1048.84" type="line"/>
      <point x="918.3499999999999" y="948.07"/>
      <point x="1032.8799999999999" y="677.7"/>
      <point x="1032.57" y="517.63" type="qcurve" smooth="yes"/>
      <point x="1032.26" y="277.21000000000004"/>
      <point x="781.64" y="-17.0"/>
    </contour>
  </outline>
</glyph>
<glyph name="chi" format="2">
  <advance width="976"/>
  <unicode hex="03C7"/>
  <outline>
    <contour>
      <point x="802.47" y="-489.86" type="line"/>
      <point x="745.5699999999999" y="-489.86"/>
      <point x="675.3" y="-449.85999999999996"/>
      <point x="655.38" y="-402.34" type="qcurve" smooth="yes"/>
      <point x="428.42" y="174.65" type="line"/>
      <point x="184.06" y="712.12" type="line" smooth="yes"/>
      <point x="138.88" y="818.26"/>
      <point x="87.24" y="859.51"/>
      <point x="48.050000000000004" y="868.86" type="qcurve" smooth="yes"/>
      <point x="-6.710000000000001" y="882.17" type="line"/>
      <point x="-8.260000000000002" y="988.26" type="line"/>
      <point x="227.78999999999996" y="1022.57" type="line"/>
      <point x="288.78" y="1020.47"/>
      <point x="354.29" y="939.6"/>
      <point x="386.01" y="856.05" type="qcurve" smooth="yes"/>
      <point x="577.1800000000001" y="377.07" type="line"/>
      <point x="875.66" y="-290.97" type="line" smooth="yes"/>
      <point x="893.03" y="-331.04"/>
      <point x="933.97" y="-349.97"/>
      <point x="968.7199999999999" y="-351.32" type="qcurve"/>
      <point x="1025.53" y="-351.32" type="line"/>
      <point x="1026.77" y="-449.45" type="line"/>
    </contour>
    <contour>
      <point x="51.46" y="-480.0" type="line"/>
      <point x="13.36" y="-446.18" type="line"/>
      <point x="246.59" y="-20.319999999999997" type="line"/>
      <point x="435.0" y="344.17" type="line"/>
      <point x="509.33000000000004" y="174.74" type="line"/>
      <point x="405.14000000000004" y="-102.27000000000001" type="line"/>
      <point x="275.14" y="-457.92" type="line"/>
    </contour>
    <contour>
      <point x="572.2" y="206.39" type="line"/>
      <point x="497.87000000000006" y="375.51" type="line"/>
      <point x="594.59" y="638.7" type="line"/>
      <point x="724.9000000000001" y="994.35" type="line"/>
      <point x="948.58" y="1016.43" type="line"/>
      <point x="986.68" y="982.61" type="line"/>
      <point x="753.4499999999999" y="556.75" type="line"/>
    </contour>
  </outline>
</glyph>
<glyph name="Dzhe" format="2">
  <advance width="1550"/>
  <unicode hex="040F"/>
  <outline>
    <contour>
      <point x="710.29" y="-338.0" type="line"/>
      <point x="654.0899999999999" y="0.0" type="line"/>
      <point x="50.279999999999994" y="0.0" type="line"/>
      <point x="50.279999999999994" y="117.0" type="line"/>
      <point x="227.98000000000002" y="151.27" type="line"/>
      <point x="229.98000000000002" y="743.3000000000001" type="line"/>
      <point x="227.98000000000002" y="1353.8700000000001" type="line"/>
      <point x="50.279999999999994" y="1388.6" type="line"/>
      <point x="50.279999999999994" y="1500.0" type="line"/>
      <point x="676.17" y="1500.0" type="line"/>
      <point x="676.17" y="1388.6" type="line"/>
      <point x="503.28999999999996" y="1353.8700000000001" type="line"/>
      <point x="501.28999999999996" y="743.3000000000001" type="line"/>
      <point x="503.28999999999996" y="151.1" type="line"/>
      <point x="539.23" y="127.7" type="line"/>
      <point x="1010.4499999999999" y="127.7" type="line"/>
      <point x="1046.39" y="151.1" type="line"/>
      <point x="1048.39" y="743.3000000000001" type="line"/>
      <point x="1046.39" y="1353.8700000000001" type="line"/>
      <point x="873.51" y="1388.6" type="line"/>
      <point x="873.51" y="1500.0" type="line"/>
      <point x="1499.3999999999999" y="1500.0" type="line"/>
      <point x="1499.3999999999999" y="1388.6" type="line"/>
      <point x="1321.7" y="1353.8700000000001" type="line"/>
      <point x="1319.7" y="743.3000000000001" type="line"/>
      <point x="1321.7" y="151.27" type="line"/>
      <point x="1499.3999999999999" y="117.0" type="line"/>
      <point x="1499.3999999999999" y="0.0" type="line"/>
      <point x="895.5899999999999" y="0.0" type="line"/>
      <point x="839.39" y="-338.0" type="line"/>
    </contour>
  </outline>
</glyph>
<glyph name="Pe" format="2">
  <advance width="1550"/>
  <unicode hex="041F"/>
  <outline>
    <contour>
      <point x="1046.39" y="1346.1999999999998" type="line"/>
      <point x="1010.4499999999999" y="1369.6" type="line"/>
      <point x="539.23" y="1369.6" type="line"/>
      <point x="503.28999999999996" y="1346.1999999999998" type="line"/>
      <point x="501.28999999999996" y="754.0" type="line"/>
      <point x="503.28999999999996" y="142.62" type="line"/>
      <point x="676.17" y="107.61999999999999" type="line"/>
      <point x="676.17" y="0.0" type="line"/>
      <point x="50.279999999999994" y="0.0" type="line"/>
      <point x="50.279999999999994" y="107.61999999999999" type="line"/>
      <point x="227.98000000000002" y="142.62" type="line"/>
      <point x="229.98000000000002" y="754.0" type="line"/>
      <point x="227.98000000000002" y="1345.22" type="line"/>
      <point x="50.279999999999994" y="1379.22" type="line"/>
      <point x="50.279999999999994" y="1500.0" type="line"/>
      <point x="1499.3999999999999" y="1500.0" type="line"/>
      <point x="1499.3999999999999" y="1379.22" type="line"/>
      <point x="1321.7" y="1345.22" type="line"/>
      <point x="1319.7" y="754.0" type="line"/>
      <point x="1321.7" y="142.62" type="line"/>
      <point x="1499.3999999999999" y="107.61999999999999" type="line"/>
      <point x="1499.3999999999999" y="0.0" type="line"/>
      <point x="873.51" y="0.0" type="line"/>
      <point x="873.51" y="107.61999999999999" type="line"/>
      <point x="1046.39" y="142.62" type="line"/>
      <point x="1048.39" y="754.0" type="line"/>
    </contour>
  </outline>
</glyph>
<glyph name="Ucyr" format="2">
  <advance width="1268"/>
  <unicode hex="0423"/>
  <outline>
    <contour>
      <point x="671.56" y="569.38" type="qcurve" smooth="yes"/>
      <point x="838.07" y="983.36" type="line"/>
      <point x="987.27" y="1347.15" type="line"/>
      <point x="840.8000000000001" y="1379.53" type="line"/>
      <point x="840.8000000000001" y="1500.0" type="line"/>
      <point x="1272.83" y="1500.0" type="line"/>
      <point x="1272.83" y="1379.53" type="line"/>
      <point x="1136.99" y="1347.4199999999998" type="line"/>
      <point x="959.6700000000001" y="937.0" type="line"/>
      <point x="791.0" y="519.2" type="line" smooth="yes"/>
      <point x="667.26" y="230.42"/>
      <point x="470.26000000000005" y="-19.48"/>
      <point x="285.74" y="-19.48" type="qcurve" smooth="yes"/>
      <point x="252.44" y="-19.48"/>
      <point x="203.95999999999998" y="-10.51"/>
      <point x="180.0" y="0.0" type="qcurve"/>
      <point x="180.0" y="227.95" type="line"/>
      <point x="204.8" y="220.05999999999997"/>
      <point x="256.46999999999997" y="210.92000000000002"/>
      <point x="307.8" y="210.92000000000002" type="qcurve" smooth="yes"/>
      <point x="438.67" y="210.92000000000002"/>
      <point x="596.01" y="393.18"/>
    </contour>
    <contour>
      <point x="580.98" y="326.26" type="line"/>
      <point x="339.36" y="876.3399999999999" type="line"/>
      <point x="127.94" y="1347.69" type="line"/>
      <point x="-3.450000000000001" y="1379.53" type="line"/>
      <point x="-3.450000000000001" y="1500.0" type="line"/>
      <point x="548.74" y="1500.0" type="line"/>
      <point x="548.74" y="1379.53" type="line"/>
      <point x="430.95" y="1345.26" type="line"/>
      <point x="576.3599999999999" y="991.43" type="line"/>
      <point x="742.5899999999999" y="603.16" type="line"/>
    </contour>
  </outline>
</glyph>
<glyph name="Ecyr" format="2">
  <advance width="1329"/>
  <unicode hex="042D"/>
  <guideline x="1147.0" y="753.0" angle="90.0" identifier="Ovo68woMtl"/>
  <guideline x="211.0" y="787.0" angle="90.0" identifier="BltxzGcBtl"/>
  <outline>
    <contour>
      <point x="593.04" y="-25.36" type="qcurve" smooth="yes"/>
      <point x="475.98" y="-25.36"/>
      <point x="318.25" y="43.489999999999995"/>
      <point x="274.15000000000003" y="88.09" type="qcurve"/>
      <point x="248.65000000000003" y="-3.3899999999999997" type="line"/>
      <point x="137.62" y="-3.3899999999999997" type="line"/>
      <point x="137.62" y="462.88" type="line"/>
      <point x="267.92" y="462.88" type="line"/>
      <point x="298.26" y="312.43" type="line" smooth="yes"/>
      <point x="317.29" y="220.58"/>
      <point x="450.94" y="116.72"/>
      <point x="576.38" y="116.72" type="qcurve" smooth="yes"/>
      <point x="771.0924262295019" y="116.72"/>
      <point x="966.13" y="426.82"/>
      <point x="966.13" y="749.78" type="qcurve" smooth="yes"/>
      <point x="966.13" y="1037.47"/>
      <point x="774.2656551724081" y="1378.63"/>
      <point x="588.6700000000001" y="1378.63" type="qcurve" smooth="yes"/>
      <point x="463.91999999999996" y="1378.63"/>
      <point x="330.73999999999995" y="1275.88"/>
      <point x="311.09" y="1183.76" type="qcurve" smooth="yes"/>
      <point x="280.75" y="1036.01" type="line"/>
      <point x="150.45000000000002" y="1036.01" type="line"/>
      <point x="150.45000000000002" y="1499.58" type="line"/>
      <point x="261.48" y="1499.58" type="line"/>
      <point x="286.98" y="1408.1" type="line"/>
      <point x="333.66999999999996" y="1454.1299999999999"/>
      <point x="491.1" y="1520.0"/>
      <point x="622.8599999999999" y="1520.0" type="qcurve" smooth="yes"/>
      <point x="911.03" y="1520.0"/>
      <point x="1259.99" y="1103.9199999999998"/>
      <point x="1259.99" y="755.54" type="qcurve" smooth="yes"/>
      <point x="1259.99" y="427.38"/>
      <point x="893.5300000000001" y="-25.36"/>
    </contour>
    <contour>
      <point x="1113.06" y="710.45" type="line"/>
      <point x="554.9100000000001" y="700.45" type="line"/>
      <point x="526.5899999999999" y="544.1700000000001" type="line"/>
      <point x="407.31" y="544.1700000000001" type="line"/>
      <point x="407.31" y="982.96" type="line"/>
      <point x="526.5899999999999" y="982.96" type="line"/>
      <point x="554.9100000000001" y="828.85" type="line"/>
      <point x="1113.06" y="818.85" type="line"/>
    </contour>
  </outline>
</glyph>
<glyph name="zhe" format="2">
  <advance width="1637"/>
  <unicode hex="0436"/>
  <guideline x="241.0" y="553.0" angle="90.0" identifier="8KgqZm3A67"/>
  <outline>
    <contour>
      <point x="685.3" y="507.75" type="line"/>
      <point x="683.3" y="888.1" type="line"/>
      <point x="580.2800000000001" y="923.1" type="line"/>
      <point x="580.2800000000001" y="1015.5" type="line"/>
      <point x="1048.31" y="1015.5" type="line"/>
      <point x="1048.31" y="923.1" type="line"/>
      <point x="944.4499999999999" y="888.1" type="line"/>
      <point x="942.98" y="507.75" type="line"/>
      <point x="944.4499999999999" y="127.4" type="line"/>
      <point x="1047.74" y="92.4" type="line"/>
      <point x="1047.74" y="0.0" type="line"/>
      <point x="580.55" y="0.0" type="line"/>
      <point x="580.55" y="92.4" type="line"/>
      <point x="683.3" y="127.4" type="line"/>
    </contour>
    <contour>
      <point x="1028.4" y="496.23" type="line"/>
      <point x="1211.71" y="667.91" type="line"/>
      <point x="1529.1699999999998" y="127.4" type="line"/>
      <point x="1633.75" y="92.4" type="line"/>
      <point x="1633.75" y="0.0" type="line"/>
      <point x="1254.7" y="0.0" type="line"/>
      <point x="1241.46" y="88.3" type="line"/>
      <point x="1254.24" y="120.3" type="line"/>
    </contour>
    <contour>
      <point x="814.14" y="583.8900000000001" type="line"/>
      <point x="1044.7800000000002" y="581.2" type="line"/>
      <point x="1274.7" y="880.0" type="line"/>
      <point x="1153.2" y="910.0" type="line"/>
      <point x="1153.2" y="1015.5" type="line"/>
      <point x="1586.1" y="1015.5" type="line"/>
      <point x="1586.1" y="910.0" type="line"/>
      <point x="1440.05" y="875.0" type="line"/>
      <point x="1072.1200000000001" y="462.79999999999995" type="line"/>
      <point x="814.14" y="461.53" type="line"/>
    </contour>
    <contour>
      <point x="600.1899999999999" y="496.23" type="line"/>
      <point x="373.51" y="120.3" type="line"/>
      <point x="386.28999999999996" y="88.3" type="line"/>
      <point x="373.05" y="0.0" type="line"/>
      <point x="3.3000000000000007" y="0.0" type="line"/>
      <point x="3.3000000000000007" y="92.4" type="line"/>
      <point x="112.95" y="127.4" type="line"/>
      <point x="431.25" y="667.91" type="line"/>
    </contour>
    <contour>
      <point x="814.14" y="583.8900000000001" type="line"/>
      <point x="814.14" y="461.53" type="line"/>
      <point x="539.85" y="462.79999999999995" type="line"/>
      <point x="172.23" y="875.0" type="line"/>
      <point x="35.01" y="910.0" type="line"/>
      <point x="35.01" y="1015.5" type="line"/>
      <point x="475.38999999999993" y="1015.5" type="line"/>
      <point x="475.38999999999993" y="910.0" type="line"/>
      <point x="353.89" y="880.0" type="line"/>
      <point x="583.81" y="581.2" type="line"/>
    </contour>
  </outline>
</glyph>
<glyph name="ze" format="2">
  <advance width="942"/>
  <unicode hex="0437"/>
  <outline>
    <contour>
      <point x="432.03000000000003" y="104.76" type="qcurve" smooth="yes"/>
      <point x="532.78" y="104.76"/>
      <point x="634.81" y="205.04"/>
      <point x="634.81" y="292.51" type="qcurve" smooth="yes"/>
      <point x="634.81" y="371.00048780488197"/>
      <point x="544.76" y="456.63"/>
      <point x="455.91" y="455.48" type="qcurve" smooth="yes"/>
      <point x="316.74" y="453.59999999999997" type="line"/>
      <point x="316.74" y="576.0899999999999" type="line"/>
      <point x="427.31" y="573.9" type="line" smooth="yes"/>
      <point x="515.3317362162869" y="571.670107966052"/>
      <point x="593.19" y="665.114213274784"/>
      <point x="593.19" y="738.75" type="qcurve" smooth="yes"/>
      <point x="593.19" y="821.35"/>
      <point x="514.79" y="908.79"/>
      <point x="433.42" y="908.79" type="qcurve" smooth="yes"/>
      <point x="345.29" y="908.79"/>
      <point x="253.17" y="823.74"/>
      <point x="235.74" y="737.42" type="qcurve" smooth="yes"/>
      <point x="222.41000000000003" y="673.45" type="line"/>
      <point x="114.33000000000001" y="673.45" type="line"/>
      <point x="116.43" y="1023.09" type="line"/>
      <point x="219.92" y="1023.09" type="line"/>
      <point x="239.03" y="970.88" type="line"/>
      <point x="271.39" y="997.64"/>
      <point x="404.82" y="1037.79"/>
      <point x="495.89" y="1037.79" type="qcurve" smooth="yes"/>
      <point x="665.19" y="1037.79"/>
      <point x="846.37" y="897.0600000000001"/>
      <point x="846.37" y="773.85" type="qcurve" smooth="yes"/>
      <point x="846.37" y="683.8859118457129"/>
      <point x="743.610718197531" y="556.692969971364"/>
      <point x="644.83" y="533.99" type="qcurve"/>
      <point x="644.83" y="529.99" type="line"/>
      <point x="765.684957489007" y="514.7301027912439"/>
      <point x="891.99" y="387.902614107879"/>
      <point x="891.99" y="281.58" type="qcurve" smooth="yes"/>
      <point x="891.99" y="139.212111801238"/>
      <point x="670.25" y="-21.72"/>
      <point x="481.82" y="-21.72" type="qcurve" smooth="yes"/>
      <point x="381.94000000000005" y="-21.72"/>
      <point x="255.39000000000001" y="19.630000000000003"/>
      <point x="222.7" y="45.19" type="qcurve"/>
      <point x="203.59" y="-7.02" type="line"/>
      <point x="100.10000000000001" y="-7.02" type="line"/>
      <point x="98.0" y="342.62" type="line"/>
      <point x="206.08" y="342.62" type="line"/>
      <point x="219.72" y="277.41" type="line" smooth="yes"/>
      <point x="237.04000000000002" y="193.25"/>
      <point x="333.08000000000004" y="104.76"/>
    </contour>
  </outline>
</glyph>
<glyph name="sha" format="2">
  <advance width="1766"/>
  <unicode hex="0448"/>
  <guideline x="302.0" y="625.0" angle="90.0" identifier="NJObwdl7Zg"/>
  <guideline x="953.0" y="554.0" angle="90.0" identifier="1530lh32tn"/>
  <guideline x="627.0" y="553.0" angle="90.0" identifier="24e3XVDPIE"/>
  <outline>
    <contour>
      <point x="1712.65" y="0.0" type="line"/>
      <point x="53.449999999999996" y="0.0" type="line"/>
      <point x="53.449999999999996" y="92.4" type="line"/>
      <point x="181.29000000000002" y="127.4" type="line"/>
      <point x="183.29000000000002" y="507.75" type="line"/>
      <point x="181.29000000000002" y="888.1" type="line"/>
      <point x="53.449999999999996" y="923.1" type="line"/>
      <point x="53.449999999999996" y="1015.5" type="line"/>
      <point x="537.6199999999999" y="1015.5" type="line"/>
      <point x="537.6199999999999" y="923.1" type="line"/>
      <point x="442.86" y="888.1" type="line"/>
      <point x="440.86" y="507.33" type="line"/>
      <point x="442.86" y="120.26" type="line"/>
      <point x="751.69" y="120.26" type="line"/>
      <point x="753.69" y="507.75" type="line"/>
      <point x="751.42" y="888.1" type="line"/>
      <point x="657.77" y="923.1" type="line"/>
      <point x="657.77" y="1015.5" type="line"/>
      <point x="1107.48" y="1015.5" type="line"/>
      <point x="1107.48" y="923.1" type="line"/>
      <point x="1012.99" y="888.1" type="line"/>
      <point x="1011.26" y="506.91" type="line"/>
      <point x="1013.26" y="120.26" type="line"/>
      <point x="1322.93" y="120.26" type="line"/>
      <point x="1324.93" y="509.43" type="line"/>
      <point x="1322.93" y="888.1" type="line"/>
      <point x="1228.17" y="923.1" type="line"/>
      <point x="1228.17" y="1015.5" type="line"/>
      <point x="1712.65" y="1015.5" type="line"/>
      <point x="1712.65" y="923.1" type="line"/>
      <point x="1584.5" y="888.1" type="line"/>
      <point x="1582.5" y="507.75" type="line"/>
      <point x="1584.5" y="127.4" type="line"/>
      <point x="1712.65" y="92.4" type="line"/>
    </contour>
  </outline>
</glyph>
<glyph name="hard" format="2">
  <advance width="1202"/>
  <unicode hex="044A"/>
  <guideline x="302.0" y="625.0" angle="90.0" identifier="0glbwjr6f1"/>
  <guideline x="953.0" y="554.0" angle="90.0" identifier="41A0uQDzZV"/>
  <guideline x="627.0" y="553.0" angle="90.0" identifier="rA3XBl1QkZ"/>
  <guideline x="302.0" y="625.0" angle="90.0" identifier="9bXjTXCOsd"/>
  <guideline x="953.0" y="554.0" angle="90.0" identifier="70YHiu6Ygv"/>
  <guideline x="627.0" y="553.0" angle="90.0" identifier="lr0dX83lJL"/>
  <outline>
    <contour>
      <point x="358.29" y="895.24" type="line"/>
      <point x="204.5" y="895.24" type="line"/>
      <point x="145.11" y="650.22" type="line"/>
      <point x="36.55" y="650.22" type="line"/>
      <point x="39.65" y="1015.5" type="line"/>
      <point x="737.05" y="1015.5" type="line"/>
      <point x="737.05" y="923.1" type="line"/>
      <point x="619.44" y="888.1" type="line"/>
      <point x="617.9699999999999" y="507.75" type="line"/>
      <point x="619.44" y="119.33000000000001" type="line"/>
      <point x="712.9" y="119.33000000000001" type="line" smooth="yes"/>
      <point x="819.39" y="119.33000000000001"/>
      <point x="901.3000000000001" y="232.46"/>
      <point x="901.3000000000001" y="322.06" type="qcurve" smooth="yes"/>
      <point x="901.3000000000001" y="409.75"/>
      <point x="820.32" y="519.1"/>
      <point x="715.69" y="519.1" type="qcurve" smooth="yes"/>
      <point x="489.13000000000005" y="519.1" type="line"/>
      <point x="489.13000000000005" y="637.5" type="line"/>
      <point x="781.1" y="637.5" type="line" smooth="yes"/>
      <point x="966.4200000000001" y="637.5"/>
      <point x="1166.68" y="471.83000000000004"/>
      <point x="1166.68" y="320.82" type="qcurve" smooth="yes"/>
      <point x="1166.68" y="172.93"/>
      <point x="967.97" y="0.0"/>
      <point x="781.1" y="0.0" type="qcurve" smooth="yes"/>
      <point x="230.45000000000002" y="0.0" type="line"/>
      <point x="230.45000000000002" y="92.4" type="line"/>
      <point x="358.29" y="127.4" type="line"/>
      <point x="360.29" y="507.75" type="line"/>
    </contour>
  </outline>
</glyph>
<glyph name="ieukran" format="2">
  <advance width="951"/>
  <unicode hex="0454"/>
  <guideline x="180.0" y="548.0" angle="90.0" identifier="n4jm0tBg3Y"/>
  <outline>
    <contour>
      <point x="195.11" y="572.91" type="line"/>
      <point x="665.5500000000001" y="575.91" type="line"/>
      <point x="665.5500000000001" y="453.55" type="line"/>
      <point x="195.11" y="455.55" type="line"/>
    </contour>
    <contour>
      <point x="54.4" y="483.78999999999996" type="qcurve" smooth="yes"/>
      <point x="54.4" y="729.48"/>
      <point x="311.25" y="1037.79"/>
      <point x="513.62" y="1037.79" type="qcurve" smooth="yes"/>
      <point x="604.6500000000001" y="1037.79"/>
      <point x="710.63" y="999.4699999999999"/>
      <point x="742.06" y="970.88" type="qcurve"/>
      <point x="761.1700000000001" y="1023.09" type="line"/>
      <point x="864.6600000000001" y="1023.09" type="line"/>
      <point x="866.7600000000001" y="673.45" type="line"/>
      <point x="758.68" y="673.45" type="line"/>
      <point x="744.4200000000001" y="741.14" type="line" smooth="yes"/>
      <point x="728.939917578259" y="815.098531042759"/>
      <point x="641.01" y="908.79"/>
      <point x="556.82" y="908.79" type="qcurve" smooth="yes"/>
      <point x="458.24384615383" y="908.79"/>
      <point x="335.09" y="715.55"/>
      <point x="335.09" y="506.46000000000004" type="qcurve" smooth="yes"/>
      <point x="335.09" y="315.09"/>
      <point x="479.14617647060794" y="126.51"/>
      <point x="604.4000000000001" y="126.51" type="qcurve" smooth="yes"/>
      <point x="687.53" y="126.51"/>
      <point x="809.41" y="189.76"/>
      <point x="855.21" y="240.76" type="qcurve"/>
      <point x="917.77" y="166.43" type="line"/>
      <point x="869.72" y="91.21"/>
      <point x="679.3000000000001" y="-21.45"/>
      <point x="531.83" y="-21.45" type="qcurve" smooth="yes"/>
      <point x="328.71999999999997" y="-21.45"/>
      <point x="54.4" y="252.98999999999998"/>
    </contour>
  </outline>
</glyph>
<glyph name="lje" format="2">
  <advance width="1500"/>
  <unicode hex="0459"/>
  <guideline x="302.0" y="493.25" angle="90.0" identifier="jHuxcyi1x5"/>
  <guideline x="953.0" y="554.0" angle="90.0" identifier="b1mHk7wgTR"/>
  <guideline x="627.0" y="553.0" angle="90.0" identifier="m4aYe0x4PZ"/>
  <guideline x="302.0" y="625.0" angle="90.0" identifier="vLcWUVIRLn"/>
  <guideline x="953.0" y="554.0" angle="90.0" identifier="6dzOxXKOwA"/>
  <guideline x="627.0" y="553.0" angle="90.0" identifier="mJzxvRVyB1"/>
  <guideline x="463.19000000000005" y="609.88" angle="180.0" identifier="NbdfSyw2GO"/>
  <outline>
    <contour>
      <point x="656.11" y="895.24" type="line"/>
      <point x="658.38" y="507.75" type="line"/>
      <point x="656.38" y="127.4" type="line"/>
      <point x="528.54" y="92.4" type="line"/>
      <point x="528.54" y="0.0" type="line"/>
      <point x="1079.19" y="0.0" type="line" smooth="yes"/>
      <point x="1266.06" y="0.0"/>
      <point x="1464.77" y="172.93"/>
      <point x="1464.77" y="320.82" type="qcurve" smooth="yes"/>
      <point x="1464.77" y="471.83000000000004"/>
      <point x="1264.51" y="637.5"/>
      <point x="1079.19" y="637.5" type="qcurve" smooth="yes"/>
      <point x="787.22" y="637.5" type="line"/>
      <point x="787.22" y="519.1" type="line"/>
      <point x="1013.7800000000001" y="519.1" type="line" smooth="yes"/>
      <point x="1118.4099999999999" y="519.1"/>
      <point x="1199.39" y="409.75"/>
      <point x="1199.39" y="322.06" type="qcurve" smooth="yes"/>
      <point x="1199.39" y="232.46"/>
      <point x="1117.48" y="119.33000000000001"/>
      <point x="1010.9899999999999" y="119.33000000000001" type="qcurve" smooth="yes"/>
      <point x="917.5300000000001" y="119.33000000000001" type="line"/>
      <point x="916.06" y="507.75" type="line"/>
      <point x="917.5300000000001" y="888.1" type="line"/>
      <point x="1035.14" y="923.1" type="line"/>
      <point x="1035.14" y="1015.5" type="line"/>
      <point x="148.39" y="1015.5" type="line"/>
      <point x="148.39" y="923.1" type="line"/>
      <point x="273.53000000000003" y="888.1" type="line"/>
      <point x="246.36" y="477.25" type="line" smooth="yes"/>
      <point x="237.01000000000002" y="342.5"/>
      <point x="174.84" y="195.64"/>
      <point x="103.42" y="195.64" type="qcurve" smooth="yes"/>
      <point x="84.0" y="195.64"/>
      <point x="53.040000000000006" y="201.05999999999997"/>
      <point x="32.300000000000004" y="207.64" type="qcurve"/>
      <point x="32.300000000000004" y="-1.38" type="line"/>
      <point x="50.29" y="-9.03"/>
      <point x="93.692857142866" y="-17.31"/>
      <point x="118.88" y="-17.31" type="qcurve" smooth="yes"/>
      <point x="259.525037273285" y="-17.31"/>
      <point x="375.21302045074697" y="205.911843939861"/>
      <point x="391.34" y="455.74" type="qcurve" smooth="yes"/>
      <point x="420.09000000000003" y="895.24" type="line"/>
    </contour>
  </outline>
</glyph>
<glyph name="Kaverticalstrokecyr" format="2">
  <advance width="1662"/>
  <unicode hex="049C"/>
  <guideline x="480.0" y="796.0" angle="90.0" identifier="LxfLwWU0sJ"/>
  <outline>
    <contour>
      <point x="50.279999999999994" y="0.0" type="line"/>
      <point x="50.279999999999994" y="107.61999999999999" type="line"/>
      <point x="227.98000000000002" y="142.62" type="line"/>
      <point x="229.98000000000002" y="754.0" type="line"/>
      <point x="227.98000000000002" y="1345.22" type="line"/>
      <point x="50.279999999999994" y="1379.22" type="line"/>
      <point x="50.279999999999994" y="1500.0" type="line"/>
      <point x="673.47" y="1500.0" type="line"/>
      <point x="673.47" y="1379.22" type="line"/>
      <point x="503.28999999999996" y="1345.22" type="line"/>
      <point x="501.28999999999996" y="754.0" type="line"/>
      <point x="503.28999999999996" y="142.62" type="line"/>
      <point x="666.87" y="107.61999999999999" type="line"/>
      <point x="666.87" y="0.0" type="line"/>
    </contour>
    <contour>
      <point x="756.06" y="710.64" type="line"/>
      <point x="756.06" y="850.26" type="line"/>
      <point x="921.8900000000001" y="845.64" type="line"/>
      <point x="1246.9" y="1342.0600000000002" type="line"/>
      <point x="1119.6499999999999" y="1379.53" type="line"/>
      <point x="1119.6499999999999" y="1500.0" type="line"/>
      <point x="1577.82" y="1500.0" type="line"/>
      <point x="1577.82" y="1379.53" type="line"/>
      <point x="1421.77" y="1342.0600000000002" type="line"/>
      <point x="1044.7299999999998" y="792.7299999999999" type="line"/>
      <point x="977.9699999999999" y="710.64" type="line"/>
    </contour>
    <contour>
      <point x="908.13" y="735.99" type="line"/>
      <point x="1093.21" y="933.37" type="line"/>
      <point x="1528.59" y="142.20000000000002" type="line"/>
      <point x="1654.07" y="107.61999999999999" type="line"/>
      <point x="1654.07" y="0.0" type="line"/>
      <point x="1100.61" y="0.0" type="line"/>
      <point x="1100.61" y="107.61999999999999" type="line"/>
      <point x="1232.0" y="142.20000000000002" type="line"/>
    </contour>
    <contour>
      <point x="837.26" y="1187.48" type="line"/>
      <point x="837.26" y="350.41999999999996" type="line"/>
      <point x="674.86" y="350.41999999999996" type="line"/>
      <point x="674.86" y="1187.48" type="line"/>
    </contour>
  </outline>
</glyph>
<glyph name="Shha" format="2">
  <advance width="1519"/>
  <unicode hex="04BA"/>
  <outline>
    <contour>
      <point x="690.4599999999999" y="1500.0" type="line"/>
      <point x="690.4599999999999" y="1388.04" type="line"/>
      <point x="502.98" y="1353.3500000000001" type="line"/>
      <point x="500.98" y="740.6" type="line"/>
      <point x="502.98" y="146.44000000000003" type="line"/>
      <point x="672.76" y="111.39999999999999" type="line"/>
      <point x="672.76" y="0.0" type="line"/>
      <point x="50.279999999999994" y="0.0" type="line"/>
      <point x="50.279999999999994" y="111.39999999999999" type="line"/>
      <point x="227.98000000000002" y="146.44000000000003" type="line"/>
      <point x="229.98000000000002" y="746.0" type="line"/>
      <point x="227.98000000000002" y="1353.3500000000001" type="line"/>
      <point x="50.279999999999994" y="1388.04" type="line"/>
      <point x="50.279999999999994" y="1500.0" type="line"/>
    </contour>
    <contour>
      <point x="1482.1999999999998" y="111.39999999999999" type="line"/>
      <point x="1482.1999999999998" y="0.0" type="line"/>
      <point x="859.41" y="0.0" type="line"/>
      <point x="859.41" y="111.39999999999999" type="line"/>
      <point x="1028.92" y="146.44000000000003" type="line"/>
      <point x="1030.23" y="473.1" type="line" smooth="yes"/>
      <point x="1030.81" y="630.83"/>
      <point x="895.5600000000001" y="766.39"/>
      <point x="734.88" y="766.39" type="qcurve" smooth="yes"/>
      <point x="640.304251010384" y="766.39"/>
      <point x="462.91648395297995" y="728.3466492792261"/>
      <point x="365.47999999999996" y="692.4599999999999" type="qcurve"/>
      <point x="365.47999999999996" y="825.98" type="line"/>
      <point x="465.870458962626" y="865.070306739606"/>
      <point x="661.2206" y="909.46"/>
      <point x="807.69" y="909.46" type="qcurve" smooth="yes"/>
      <point x="1049.2" y="909.46"/>
      <point x="1302.42" y="702.75"/>
      <point x="1303.46" y="468.27000000000004" type="qcurve" smooth="yes"/>
      <point x="1304.5" y="146.44000000000003" type="line"/>
    </contour>
  </outline>
</glyph>
<glyph name="Obarcyr" format="2">
  <advance width="1499"/>
  <unicode hex="04E8"/>
  <outline>
    <contour>
      <point x="215.14" y="702.25" type="line"/>
      <point x="215.14" y="841.87" type="line"/>
      <point x="753.91" y="833.87" type="line"/>
      <point x="1283.44" y="841.87" type="line"/>
      <point x="1283.44" y="702.25" type="line"/>
      <point x="753.91" y="702.25" type="line"/>
    </contour>
    <contour>
      <point x="68.63" y="740.54" type="qcurve" smooth="yes"/>
      <point x="68.63" y="1070.6999999999998"/>
      <point x="444.72" y="1522.17"/>
      <point x="749.5" y="1522.17" type="qcurve" smooth="yes"/>
      <point x="1054.59" y="1522.17"/>
      <point x="1429.95" y="1099.6999999999998"/>
      <point x="1429.95" y="755.54" type="qcurve" smooth="yes"/>
      <point x="1429.95" y="427.38"/>
      <point x="1058.48" y="-25.36"/>
      <point x="752.97" y="-25.36" type="qcurve" smooth="yes"/>
      <point x="451.8299999999999" y="-25.36"/>
      <point x="68.63" y="400.8"/>
    </contour>
    <contour>
      <point x="361.65000000000003" y="775.16" type="qcurve" smooth="yes"/>
      <point x="361.65000000000003" y="469.04999999999995"/>
      <point x="578.8765423903991" y="117.38"/>
      <point x="751.08" y="117.38" type="qcurve" smooth="yes"/>
      <point x="939.0411367809259" y="117.38"/>
      <point x="1136.9299999999998" y="427.35999999999996"/>
      <point x="1136.9299999999998" y="749.78" type="qcurve" smooth="yes"/>
      <point x="1136.9299999999998" y="1038.31"/>
      <point x="924.625884568323" y="1373.29"/>
      <point x="750.46" y="1373.29" type="qcurve" smooth="yes"/>
      <point x="562.150643284019" y="1373.29"/>
      <point x="361.65000000000003" y="1065.42"/>
    </contour>
  </outline>
</glyph>
<glyph name="obarcyr" format="2">
  <advance width="1121"/>
  <unicode hex="04E9"/>
  <guideline x="585.0" y="692.0" angle="90.0" identifier="TW15yk9ONy"/>
  <outline>
    <contour>
      <point x="55.019999999999996" y="507.75" type="qcurve" smooth="yes"/>
      <point x="55.019999999999996" y="738.5600000000001"/>
      <point x="331.44" y="1037.48"/>
      <point x="559.95" y="1037.48" type="qcurve" smooth="yes"/>
      <point x="789.4599999999999" y="1037.48"/>
      <point x="1066.25" y="758.87"/>
      <point x="1066.25" y="513.75" type="qcurve" smooth="yes"/>
      <point x="1066.25" y="283.94"/>
      <point x="792.56" y="-21.45"/>
      <point x="564.0500000000001" y="-21.45" type="qcurve" smooth="yes"/>
      <point x="334.96000000000004" y="-21.45"/>
      <point x="55.019999999999996" y="260.63"/>
    </contour>
    <contour>
      <point x="328.51" y="526.2" type="qcurve" smooth="yes"/>
      <point x="329.51000002457" y="326.73999555391003"/>
      <point x="451.30866071428704" y="97.63000000000001"/>
      <point x="559.72" y="97.63000000000001" type="qcurve" smooth="yes"/>
      <point x="677.06644970415" y="97.63000000000001"/>
      <point x="792.49" y="305.05"/>
      <point x="792.49" y="512.2" type="qcurve" smooth="yes"/>
      <point x="792.49" y="704.6600000000001"/>
      <point x="670.482857142861" y="909.3000000000001"/>
      <point x="560.88" y="909.3000000000001" type="qcurve" smooth="yes"/>
      <point x="442.488994082838" y="909.3000000000001"/>
      <point x="327.509999975322" y="724.350004444308"/>
    </contour>
    <contour>
      <point x="191.9" y="584.1" type="line"/>
      <point x="559.8399999999999" y="581.1" type="line"/>
      <point x="929.3699999999999" y="584.1" type="line"/>
      <point x="929.3699999999999" y="461.74" type="line"/>
      <point x="559.8399999999999" y="463.74" type="line"/>
      <point x="191.9" y="461.74" type="line"/>
    </contour>
  </outline>
</glyph>
<glyph name="Hastroke-cy" format="2">
  <advance width="1308"/>
  <unicode hex="04FE"/>
  <outline>
    <contour>
      <point x="248.71" y="721.96" type="line"/>
      <point x="248.71" y="868.02" type="line"/>
      <point x="648.65" y="867.21" type="line"/>
      <point x="1036.51" y="868.02" type="line"/>
      <point x="1036.51" y="721.96" type="line"/>
      <point x="625.64" y="722.77" type="line"/>
    </contour>
    <contour>
      <point x="-1.0399999999999991" y="0.0" type="line"/>
      <point x="-1.879999999999999" y="108.03999999999999" type="line"/>
      <point x="139.18" y="142.73000000000002" type="line"/>
      <point x="580.8900000000001" y="851.63" type="line"/>
      <point x="630.98" y="849.77" type="line"/>
      <point x="921.5999999999999" y="1349.37" type="line"/>
      <point x="784.75" y="1379.53" type="line"/>
      <point x="784.75" y="1500.0" type="line"/>
      <point x="1232.97" y="1500.0" type="line"/>
      <point x="1232.97" y="1379.53" type="line"/>
      <point x="1085.03" y="1346.34" type="line"/>
      <point x="711.29" y="740.17" type="line"/>
      <point x="661.1099999999999" y="742.03" type="line"/>
      <point x="303.03000000000003" y="139.7" type="line"/>
      <point x="437.91999999999996" y="108.03999999999999" type="line"/>
      <point x="437.91999999999996" y="0.0" type="line"/>
    </contour>
    <contour>
      <point x="29.71" y="1379.53" type="line"/>
      <point x="29.71" y="1500.0" type="line"/>
      <point x="611.98" y="1500.0" type="line"/>
      <point x="611.98" y="1379.53" type="line"/>
      <point x="481.09000000000003" y="1345.38" type="line"/>
      <point x="753.15" y="856.46" type="line"/>
      <point x="1171.02" y="142.31" type="line"/>
      <point x="1315.86" y="108.03999999999999" type="line"/>
      <point x="1315.86" y="0.0" type="line"/>
      <point x="719.06" y="0.0" type="line"/>
      <point x="719.06" y="108.03999999999999" type="line"/>
      <point x="855.01" y="142.31" type="line"/>
      <point x="530.3299999999999" y="730.21" type="line"/>
      <point x="168.07" y="1346.34" type="line"/>
    </contour>
  </outline>
</glyph>
<glyph name="dagger" format="2">
  <advance width="945"/>
  <unicode hex="2020"/>
  <outline>
    <contour>
      <point x="448.0" y="-540.0" type="line"/>
      <point x="363.8" y="-58.0" type="line"/>
      <point x="394.0" y="550.0" type="line"/>
      <point x="392.0" y="834.2" type="line"/>
      <point x="353.8" y="1438.0" type="line"/>
      <point x="410.0" y="1503.93" type="line"/>
      <point x="508.6" y="1505.58" type="line"/>
      <point x="560.8" y="1438.0" type="line"/>
      <point x="530.6" y="834.2" type="line"/>
      <point x="532.6" y="550.0" type="line"/>
      <point x="560.8" y="-58.0" type="line"/>
      <point x="486.6" y="-540.0" type="line"/>
    </contour>
    <contour>
      <point x="67.8" y="850.0" type="line"/>
      <point x="67.8" y="1000.0" type="line"/>
      <point x="463.3" y="992.0" type="line"/>
      <point x="876.8000000000001" y="1000.0" type="line"/>
      <point x="876.8000000000001" y="850.0" type="line"/>
      <point x="463.3" y="855.26" type="line"/>
    </contour>
  </outline>
</glyph>
<glyph name="perthousand" format="2">
  <advance width="2724"/>
  <unicode hex="2030"/>
  <outline>
    <contour>
      <point x="56.07999999999999" y="1076.04" type="qcurve" smooth="yes"/>
      <point x="56.07999999999999" y="1272.38"/>
      <point x="264.07" y="1521.69"/>
      <point x="432.38" y="1521.69" type="qcurve" smooth="yes"/>
      <point x="601.69" y="1521.69"/>
      <point x="812.26" y="1291.0"/>
      <point x="812.26" y="1081.42" type="qcurve" smooth="yes"/>
      <point x="812.26" y="884.84"/>
      <point x="605.5799999999999" y="628.91"/>
      <point x="436.85" y="628.91" type="qcurve" smooth="yes"/>
      <point x="267.54" y="628.91"/>
      <point x="56.07999999999999" y="864.22"/>
    </contour>
    <contour>
      <point x="264.87" y="1090.25" type="qcurve" smooth="yes"/>
      <point x="264.87" y="924.06"/>
      <point x="351.25" y="743.4699999999999"/>
      <point x="431.38" y="743.4699999999999" type="qcurve" smooth="yes"/>
      <point x="517.0500000000001" y="743.4699999999999"/>
      <point x="598.8900000000001" y="905.99"/>
      <point x="598.8900000000001" y="1080.8" type="qcurve" smooth="yes"/>
      <point x="598.8900000000001" y="1238.82"/>
      <point x="513.09" y="1403.13"/>
      <point x="432.38" y="1403.13" type="qcurve" smooth="yes"/>
      <point x="345.71" y="1403.13"/>
      <point x="264.18" y="1257.37"/>
    </contour>
    <contour>
      <point x="392.33" y="35.230000000000004" type="line"/>
      <point x="1360.8400000000001" y="1527.45" type="line"/>
      <point x="1471.99" y="1454.74" type="line"/>
      <point x="502.85999999999996" y="-38.72" type="line"/>
    </contour>
    <contour>
      <point x="1053.13" y="402.4" type="qcurve" smooth="yes"/>
      <point x="1053.13" y="599.05"/>
      <point x="1261.12" y="863.4"/>
      <point x="1429.4299999999998" y="863.4" type="qcurve" smooth="yes"/>
      <point x="1598.4299999999998" y="863.4"/>
      <point x="1809.31" y="617.67"/>
      <point x="1809.31" y="407.78" type="qcurve" smooth="yes"/>
      <point x="1809.31" y="225.93"/>
      <point x="1602.63" y="-29.07"/>
      <point x="1433.9" y="-29.07" type="qcurve" smooth="yes"/>
      <point x="1265.01" y="-29.07"/>
      <point x="1053.13" y="205.62"/>
    </contour>
    <contour>
      <point x="1261.92" y="418.16" type="qcurve" smooth="yes"/>
      <point x="1261.92" y="266.08"/>
      <point x="1347.9899999999998" y="86.17999999999999"/>
      <point x="1428.74" y="86.17999999999999" type="qcurve" smooth="yes"/>
      <point x="1514.1" y="86.17999999999999"/>
      <point x="1595.94" y="246.46"/>
      <point x="1595.94" y="408.4" type="qcurve" smooth="yes"/>
      <point x="1595.94" y="566.42"/>
      <point x="1510.14" y="744.1500000000001"/>
      <point x="1429.12" y="744.1500000000001" type="qcurve" smooth="yes"/>
      <point x="1342.87" y="744.1500000000001"/>
      <point x="1261.92" y="584.97"/>
    </contour>
    <contour>
      <point x="1912.1200000000001" y="402.4" type="qcurve" smooth="yes"/>
      <point x="1912.1200000000001" y="599.05"/>
      <point x="2120.11" y="863.4"/>
      <point x="2288.4199999999996" y="863.4" type="qcurve" smooth="yes"/>
      <point x="2457.42" y="863.4"/>
      <point x="2668.3" y="617.67"/>
      <point x="2668.3" y="407.78" type="qcurve" smooth="yes"/>
      <point x="2668.3" y="225.93"/>
      <point x="2461.62" y="-29.07"/>
      <point x="2292.8900000000003" y="-29.07" type="qcurve" smooth="yes"/>
      <point x="2124.0" y="-29.07"/>
      <point x="1912.1200000000001" y="205.62"/>
    </contour>
    <contour>
      <point x="2120.91" y="418.16" type="qcurve" smooth="yes"/>
      <point x="2120.91" y="266.08"/>
      <point x="2206.9800000000005" y="86.17999999999999"/>
      <point x="2287.73" y="86.17999999999999" type="qcurve" smooth="yes"/>
      <point x="2373.09" y="86.17999999999999"/>
      <point x="2454.9300000000003" y="246.46"/>
      <point x="2454.9300000000003" y="408.4" type="qcurve" smooth="yes"/>
      <point x="2454.9300000000003" y="566.42"/>
      <point x="2369.13" y="744.1500000000001"/>
      <point x="2288.1099999999997" y="744.1500000000001" type="qcurve" smooth="yes"/>
      <point x="2201.86" y="744.1500000000001"/>
      <point x="2120.91" y="584.97"/>
    </contour>
  </outline>
</glyph>
<glyph name="commercialMinusSign" format="2">
  <advance width="914"/>
  <unicode hex="2052"/>
  <outline>
    <contour>
      <point x="86.00999999999999" y="6.68" type="line"/>
      <point x="675.86" y="1538.0" type="line"/>
      <point x="824.61" y="1485.39" type="line"/>
      <point x="235.07" y="-45.0" type="line"/>
    </contour>
    <contour>
      <point x="505.13000000000005" y="145.03" type="qcurve" smooth="yes"/>
      <point x="505.13000000000005" y="212.31"/>
      <point x="599.64" y="312.75"/>
      <point x="672.85" y="312.75" type="qcurve" smooth="yes"/>
      <point x="746.6800000000001" y="312.75"/>
      <point x="840.88" y="212.31"/>
      <point x="840.88" y="145.03" type="qcurve" smooth="yes"/>
      <point x="840.88" y="78.44"/>
      <point x="746.6800000000001" y="-22.0"/>
      <point x="672.85" y="-22.0" type="qcurve" smooth="yes"/>
      <point x="599.64" y="-22.0"/>
      <point x="505.13000000000005" y="78.44"/>
    </contour>
    <contour>
      <point x="90.83" y="1350.28" type="qcurve" smooth="yes"/>
      <point x="90.83" y="1417.5600000000002"/>
      <point x="185.03" y="1518.0"/>
      <point x="258.85999999999996" y="1518.0" type="qcurve" smooth="yes"/>
      <point x="332.38" y="1518.0"/>
      <point x="426.89" y="1417.5600000000002"/>
      <point x="426.89" y="1350.28" type="qcurve" smooth="yes"/>
      <point x="426.89" y="1283.69"/>
      <point x="332.38" y="1183.25"/>
      <point x="258.85999999999996" y="1183.25" type="qcurve" smooth="yes"/>
      <point x="185.03" y="1183.25"/>
      <point x="90.83" y="1283.69"/>
    </contour>
  </outline>
</glyph>
<glyph name="peseta" format="2">
  <advance width="2470"/>
  <unicode hex="20A7"/>
  <outline>
    <contour>
      <point x="56.99999999999999" y="0.0" type="line"/>
      <point x="56.99999999999999" y="107.61999999999999" type="line"/>
      <point x="231.91" y="141.29999999999998" type="line"/>
      <point x="233.91" y="754.0" type="line"/>
      <point x="231.91" y="1345.22" type="line"/>
      <point x="56.99999999999999" y="1379.22" type="line"/>
      <point x="56.99999999999999" y="1500.0" type="line"/>
      <point x="648.97" y="1500.0" type="line" smooth="yes"/>
      <point x="861.2800000000001" y="1500.0"/>
      <point x="1104.01" y="1277.0"/>
      <point x="1104.01" y="1107.47" type="qcurve" smooth="yes"/>
      <point x="1104.01" y="873.28"/>
      <point x="857.3199999999999" y="623.73"/>
      <point x="632.34" y="623.73" type="qcurve" smooth="yes"/>
      <point x="575.8299999999999" y="623.73"/>
      <point x="464.34" y="639.8"/>
      <point x="421.65" y="651.35" type="qcurve"/>
      <point x="430.65" y="772.54" type="line"/>
      <point x="462.21" y="761.23"/>
      <point x="531.4499999999999" y="751.54"/>
      <point x="574.18" y="751.54" type="qcurve" smooth="yes"/>
      <point x="699.4499999999999" y="751.54"/>
      <point x="832.85" y="918.72"/>
      <point x="831.61" y="1082.57" type="qcurve" smooth="yes"/>
      <point x="830.6800000000001" y="1225.43"/>
      <point x="688.1800000000001" y="1366.5"/>
      <point x="569.9399999999999" y="1366.5" type="qcurve" smooth="yes"/>
      <point x="526.17" y="1366.5" type="line"/>
      <point x="499.04999999999995" y="1346.5" type="line"/>
      <point x="497.04999999999995" y="802.64" type="line"/>
      <point x="499.04999999999995" y="139.53" type="line"/>
      <point x="681.62" y="107.61999999999999" type="line"/>
      <point x="681.62" y="0.0" type="line"/>
    </contour>
    <contour>
      <point x="1053.4599999999998" y="821.32" type="line"/>
      <point x="1053.4599999999998" y="909.1" type="line"/>
      <point x="1205.84" y="931.51"/>
      <point x="1320.4199999999998" y="1092.68"/>
      <point x="1340.99" y="1202.0500000000002" type="qcurve"/>
      <point x="1437.97" y="1202.0500000000002" type="line"/>
      <point x="1492.1100000000001" y="1149.4" type="line"/>
      <point x="1479.97" y="927.1" type="line"/>
      <point x="1677.25" y="927.1" type="line"/>
      <point x="1677.25" y="809.6" type="line"/>
      <point x="1470.87" y="809.6" type="line"/>
      <point x="1463.29" y="587.89" type="line"/>
      <point x="1470.6299999999999" y="229.33" type="line" smooth="yes"/>
      <point x="1471.21" y="176.5"/>
      <point x="1511.67" y="126.36"/>
      <point x="1564.19" y="126.36" type="qcurve" smooth="yes"/>
      <point x="1669.01" y="126.36" type="line"/>
      <point x="1669.01" y="29.31" type="line"/>
      <point x="1363.04" y="-10.17" type="line"/>
      <point x="1272.24" y="-10.17"/>
      <point x="1196.5400000000002" y="78.58"/>
      <point x="1197.16" y="170.44" type="qcurve"/>
      <point x="1203.74" y="528.55" type="line"/>
      <point x="1203.74" y="784.06" type="line"/>
    </contour>
    <contour>
      <point x="1660.95" y="17.630000000000003" type="line"/>
      <point x="1660.4099999999999" y="333.65999999999997" type="line"/>
      <point x="1767.09" y="333.65999999999997" type="line"/>
      <point x="1777.1399999999999" y="278.65000000000003" type="line" smooth="yes"/>
      <point x="1792.4299999999998" y="194.16"/>
      <point x="1909.21" y="96.8"/>
      <point x="2005.41" y="96.8" type="qcurve" smooth="yes"/>
      <point x="2082.76" y="96.8"/>
      <point x="2173.44" y="168.75"/>
      <point x="2173.44" y="239.73999999999998" type="qcurve" smooth="yes"/>
      <point x="2173.44" y="310.28"/>
      <point x="2082.54" y="385.15999999999997"/>
      <point x="1952.44" y="431.65000000000003" type="qcurve" smooth="yes"/>
      <point x="1799.6699999999998" y="485.23"/>
      <point x="1681.23" y="626.92"/>
      <point x="1681.23" y="748.0500000000001" type="qcurve" smooth="yes"/>
      <point x="1681.23" y="866.81"/>
      <point x="1853.76" y="1028.81"/>
      <point x="2009.1499999999999" y="1028.81" type="qcurve" smooth="yes"/>
      <point x="2084.71" y="1028.81"/>
      <point x="2191.63" y="996.4"/>
      <point x="2229.6299999999997" y="971.23" type="qcurve"/>
      <point x="2242.92" y="1003.8199999999999" type="line"/>
      <point x="2334.11" y="1003.8199999999999" type="line"/>
      <point x="2334.11" y="711.61" type="line"/>
      <point x="2227.19" y="711.61" type="line"/>
      <point x="2213.34" y="788.29" type="line" smooth="yes"/>
      <point x="2202.86" y="840.76"/>
      <point x="2106.68" y="909.48"/>
      <point x="2032.4299999999998" y="909.48" type="qcurve" smooth="yes"/>
      <point x="1960.56" y="909.48"/>
      <point x="1895.65" y="852.1500000000001"/>
      <point x="1895.65" y="802.03" type="qcurve" smooth="yes"/>
      <point x="1895.65" y="748.36"/>
      <point x="1964.32" y="682.28"/>
      <point x="2090.22" y="640.67" type="qcurve" smooth="yes"/>
      <point x="2235.76" y="592.27"/>
      <point x="2397.19" y="441.93"/>
      <point x="2397.19" y="297.43" type="qcurve" smooth="yes"/>
      <point x="2397.19" y="160.42999999999998"/>
      <point x="2210.97" y="-21.72"/>
      <point x="2053.7599999999998" y="-21.72" type="qcurve" smooth="yes"/>
      <point x="1959.51" y="-21.72"/>
      <point x="1829.3" y="19.240000000000002"/>
      <point x="1779.0" y="59.76" type="qcurve"/>
      <point x="1752.8300000000002" y="10.73" type="line"/>
    </contour>
  </outline>
</glyph>
<glyph name="peso" format="2">
  <advance width="1425"/>
  <unicode hex="20B1"/>
  <outline>
    <contour>
      <point x="83.17999999999999" y="0.0" type="line"/>
      <point x="83.17999999999999" y="109.3" type="line"/>
      <point x="255.15" y="145.99" type="line"/>
      <point x="257.15" y="754.0" type="line"/>
      <point x="255.15" y="1352.45" type="line"/>
      <point x="83.17999999999999" y="1376.7" type="line"/>
      <point x="83.17999999999999" y="1500.0" type="line"/>
      <point x="757.26" y="1505.46" type="line" smooth="yes"/>
      <point x="998.11" y="1507.98"/>
      <point x="1232.1000000000001" y="1238.72"/>
      <point x="1232.1000000000001" y="1011.92" type="qcurve" smooth="yes"/>
      <point x="1232.1000000000001" y="768.07"/>
      <point x="969.9699999999999" y="474.84"/>
      <point x="710.73" y="474.84" type="qcurve" smooth="yes"/>
      <point x="614.69" y="474.84"/>
      <point x="499.04999999999995" y="497.12"/>
      <point x="452.65999999999997" y="510.73999999999995" type="qcurve"/>
      <point x="461.24" y="631.93" type="line"/>
      <point x="506.97" y="619.86"/>
      <point x="597.33" y="603.34"/>
      <point x="670.5699999999999" y="603.34" type="qcurve" smooth="yes"/>
      <point x="819.78" y="603.34"/>
      <point x="954.1099999999999" y="812.13"/>
      <point x="952.8699999999999" y="1006.34" type="qcurve" smooth="yes"/>
      <point x="951.94" y="1187.84"/>
      <point x="826.11" y="1370.55"/>
      <point x="680.52" y="1374.9" type="qcurve" smooth="yes"/>
      <point x="557.8299999999999" y="1374.9" type="line"/>
      <point x="528.63" y="1353.52" type="line"/>
      <point x="525.9399999999999" y="764.0" type="line"/>
      <point x="527.9399999999999" y="142.23" type="line"/>
      <point x="715.68" y="109.3" type="line"/>
      <point x="715.68" y="0.0" type="line"/>
    </contour>
    <contour>
      <point x="1352.25" y="769.4" type="line"/>
      <point x="1079.1" y="769.4" type="line"/>
      <point x="1079.1" y="779.36" type="line"/>
      <point x="762.86" y="779.36" type="line"/>
      <point x="689.96" y="903.87" type="line"/>
      <point x="1097.28" y="903.87" type="line"/>
      <point x="1097.28" y="916.6700000000001" type="line"/>
      <point x="1388.89" y="916.6700000000001" type="line"/>
    </contour>
    <contour>
      <point x="77.56" y="768.86" type="line"/>
      <point x="41.919999999999995" y="916.4" type="line"/>
      <point x="351.44" y="916.4" type="line"/>
      <point x="351.44" y="903.87" type="line"/>
      <point x="689.96" y="903.87" type="line"/>
      <point x="762.86" y="779.78" type="line"/>
      <point x="351.44" y="779.78" type="line"/>
      <point x="351.44" y="768.86" type="line"/>
    </contour>
    <contour>
      <point x="1371.12" y="1059.04" type="line"/>
      <point x="1115.46" y="1059.04" type="line"/>
      <point x="1115.46" y="1069.4199999999998" type="line"/>
      <point x="719.48" y="1069.4199999999998" type="line"/>
      <point x="643.13" y="1193.93" type="line"/>
      <point x="1103.34" y="1193.93" type="line"/>
      <point x="1103.34" y="1206.31" type="line"/>
      <point x="1407.76" y="1206.31" type="line"/>
    </contour>
    <contour>
      <point x="77.56" y="1058.77" type="line"/>
      <point x="41.919999999999995" y="1206.31" type="line"/>
      <point x="351.44" y="1206.31" type="line"/>
      <point x="351.44" y="1193.93" type="line"/>
      <point x="643.13" y="1193.93" type="line"/>
      <point x="719.48" y="1069.84" type="line"/>
      <point x="351.44" y="1069.84" type="line"/>
      <point x="351.44" y="1058.77" type="line"/>
    </contour>
  </outline>
</glyph>
<glyph name="leftanglebracket" format="2">
  <advance width="967"/>
  <unicode hex="27E8"/>
  <outline>
    <contour>
      <point x="852.8" y="1514.9" type="line"/>
      <point x="961.77" y="1375.52" type="line"/>
      <point x="286.65000000000003" y="704.97" type="line"/>
      <point x="963.39" y="-20.689999999999998" type="line"/>
      <point x="848.1800000000001" y="-168.92000000000002" type="line"/>
      <point x="43.73" y="611.66" type="line"/>
      <point x="43.73" y="789.64" type="line"/>
    </contour>
  </outline>
</glyph>
<glyph name="rightanglebracket" format="2">
  <advance width="967"/>
  <unicode hex="27E9"/>
  <outline>
    <contour>
      <point x="115.0" y="-168.92000000000002" type="line"/>
      <point x="5.19" y="-25.010000000000005" type="line"/>
      <point x="680.3100000000001" y="683.64" type="line"/>
      <point x="3.57" y="1371.2" type="line"/>
      <point x="117.94" y="1514.9" type="line"/>
      <point x="923.23" y="767.5" type="line"/>
      <point x="923.23" y="589.52" type="line"/>
    </contour>
  </outline>
</glyph>
<glyph name="Zhe.bgr" format="2">
  <advance width="2067"/>
  <outline>
    <contour>
      <point x="727.46" y="0.0" type="line"/>
      <point x="727.46" y="107.61999999999999" type="line"/>
      <point x="891.04" y="142.62" type="line"/>
      <point x="893.04" y="754.0" type="line"/>
      <point x="891.04" y="1345.22" type="line"/>
      <point x="720.24" y="1379.22" type="line"/>
      <point x="720.24" y="1500.0" type="line"/>
      <point x="1336.53" y="1500.0" type="line"/>
      <point x="1336.53" y="1379.22" type="line"/>
      <point x="1166.35" y="1345.22" type="line"/>
      <point x="1164.35" y="754.0" type="line"/>
      <point x="1166.35" y="142.62" type="line"/>
      <point x="1329.9299999999998" y="107.61999999999999" type="line"/>
      <point x="1329.9299999999998" y="0.0" type="line"/>
    </contour>
    <contour>
      <point x="1028.8500000000001" y="367.2" type="line"/>
      <point x="1028.8500000000001" y="557.04" type="line"/>
      <point x="1662.03" y="1342.0600000000002" type="line"/>
      <point x="1533.6999999999998" y="1379.53" type="line"/>
      <point x="1533.6999999999998" y="1500.0" type="line"/>
      <point x="1995.65" y="1500.0" type="line"/>
      <point x="1995.65" y="1379.53" type="line"/>
      <point x="1839.6000000000001" y="1342.0600000000002" type="line"/>
      <point x="1438.51" y="841.6600000000001" type="line"/>
      <point x="1399.7" y="802.22" type="line"/>
    </contour>
    <contour>
      <point x="1287.3000000000002" y="771.54" type="line"/>
      <point x="1473.6399999999999" y="975.22" type="line"/>
      <point x="1946.4199999999998" y="142.20000000000002" type="line"/>
      <point x="2068.7999999999997" y="107.61999999999999" type="line"/>
      <point x="2068.7999999999997" y="0.0" type="line"/>
      <point x="1511.5600000000002" y="0.0" type="line"/>
      <point x="1511.5600000000002" y="107.61999999999999" type="line"/>
      <point x="1639.85" y="142.20000000000002" type="line"/>
    </contour>
    <contour>
      <point x="1028.8500000000001" y="363.55" type="line"/>
      <point x="654.72" y="798.5699999999999" type="line"/>
      <point x="601.86" y="841.6600000000001" type="line"/>
      <point x="200.77" y="1342.0600000000002" type="line"/>
      <point x="48.37" y="1379.53" type="line"/>
      <point x="48.37" y="1500.0" type="line"/>
      <point x="523.69" y="1500.0" type="line"/>
      <point x="523.69" y="1379.53" type="line"/>
      <point x="395.35999999999996" y="1342.0600000000002" type="line"/>
      <point x="1028.8500000000001" y="557.04" type="line"/>
    </contour>
    <contour>
      <point x="770.0899999999999" y="771.54" type="line"/>
      <point x="417.54" y="142.20000000000002" type="line"/>
      <point x="545.83" y="107.61999999999999" type="line"/>
      <point x="545.83" y="0.0" type="line"/>
      <point x="-2.1099999999999994" y="0.0" type="line"/>
      <point x="-2.1099999999999994" y="107.61999999999999" type="line"/>
      <point x="126.01" y="142.20000000000002" type="line"/>
      <point x="598.79" y="975.22" type="line"/>
    </contour>
  </outline>
</glyph>
<glyph name="brevebelowcomb.case" format="2">
  <advance width="1024"/>
  <outline>
    <contour>
      <point x="781.47" y="-123.07" type="qcurve"/>
      <point x="866.8000000000001" y="-182.07000000000002" type="line"/>
      <point x="838.2900000000001" y="-283.69"/>
      <point x="656.12" y="-455.46999999999997"/>
      <point x="512.04" y="-455.46999999999997" type="qcurve" smooth="yes"/>
      <point x="377.74" y="-455.46999999999997"/>
      <point x="191.54" y="-299.95"/>
      <point x="157.35" y="-182.31" type="qcurve"/>
      <point x="248.64" y="-122.75999999999999" type="line"/>
      <point x="286.31" y="-187.47"/>
      <point x="419.44" y="-289.13"/>
      <point x="512.35" y="-289.13" type="qcurve" smooth="yes"/>
      <point x="611.53" y="-289.13"/>
      <point x="745.24" y="-190.3"/>
    </contour>
  </outline>
</glyph>
<glyph name="brevecombstack.case" format="2">
  <advance width="1024"/>
  <outline>
    <contour>
      <point x="781.74" y="1954.8899999999999" type="qcurve"/>
      <point x="867.0699999999999" y="1895.89" type="line"/>
      <point x="838.56" y="1794.27"/>
      <point x="656.39" y="1626.69"/>
      <point x="512.31" y="1626.69" type="qcurve" smooth="yes"/>
      <point x="378.01000000000005" y="1626.69"/>
      <point x="191.81" y="1778.01"/>
      <point x="157.62" y="1895.65" type="qcurve"/>
      <point x="248.91" y="1955.2" type="line"/>
      <point x="286.58000000000004" y="1890.49"/>
      <point x="423.07" y="1795.13"/>
      <point x="513.88" y="1795.13" type="qcurve" smooth="yes"/>
      <point x="612.22" y="1795.13"/>
      <point x="745.51" y="1887.66"/>
    </contour>
  </outline>
</glyph>
<glyph name="caroncomb.alt" format="2">
  <advance width="1024"/>
  <outline>
    <contour>
      <point x="371.31" y="1032.67" type="line"/>
      <point x="448.52" y="1383.5800000000002" type="line" smooth="yes"/>
      <point x="464.03" y="1453.9599999999998"/>
      <point x="523.17" y="1526.2"/>
      <point x="571.83" y="1526.2" type="qcurve" smooth="yes"/>
      <point x="619.25" y="1526.2"/>
      <point x="675.3199999999999" y="1478.78"/>
      <point x="675.3199999999999" y="1438.8" type="qcurve" smooth="yes"/>
      <point x="675.3199999999999" y="1400.08"/>
      <point x="650.62" y="1331.4"/>
      <point x="625.9399999999999" y="1288.3500000000001" type="qcurve" smooth="yes"/>
      <point x="464.54" y="1000.55" type="line"/>
    </contour>
  </outline>
</glyph>
<glyph name="caroncomb.case" format="2">
  <advance width="1024"/>
  <outline>
    <contour>
      <point x="512.0" y="1602.55" type="qcurve" smooth="yes"/>
      <point x="476.66999999999996" y="1602.55"/>
      <point x="428.52" y="1637.3799999999999"/>
      <point x="392.34000000000003" y="1681.2" type="qcurve" smooth="yes"/>
      <point x="175.32999999999998" y="1930.1" type="line"/>
      <point x="252.05" y="2010.06" type="line"/>
      <point x="512.0" y="1802.52" type="line"/>
      <point x="767.8100000000001" y="2008.17" type="line"/>
      <point x="848.6700000000001" y="1930.1" type="line"/>
      <point x="631.66" y="1681.2" type="line" smooth="yes"/>
      <point x="588.37" y="1631.43"/>
      <point x="547.3299999999999" y="1602.55"/>
    </contour>
  </outline>
</glyph>
<glyph name="circumflexcomb.case" format="2">
  <advance width="1024"/>
  <outline>
    <contour>
      <point x="512.0" y="2006.9599999999998" type="qcurve" smooth="yes"/>
      <point x="547.3299999999999" y="2006.9599999999998"/>
      <point x="595.4799999999999" y="1972.13"/>
      <point x="631.66" y="1928.31" type="qcurve" smooth="yes"/>
      <point x="848.6700000000001" y="1679.4099999999999" type="line"/>
      <point x="771.95" y="1599.4499999999998" type="line"/>
      <point x="512.0" y="1806.99" type="line"/>
      <point x="256.19" y="1601.3400000000001" type="line"/>
      <point x="175.32999999999998" y="1679.4099999999999" type="line"/>
      <point x="392.34000000000003" y="1928.31" type="line" smooth="yes"/>
      <point x="435.63" y="1978.0800000000002"/>
      <point x="476.66999999999996" y="2006.9599999999998"/>
    </contour>
  </outline>
</glyph>
<glyph name="circumflexcombstack.case" format="2">
  <advance width="1024"/>
  <outline>
    <contour>
      <point x="512.0" y="1961.21" type="qcurve" smooth="yes"/>
      <point x="548.17" y="1961.21"/>
      <point x="592.85" y="1932.39"/>
      <point x="635.02" y="1892.88" type="qcurve" smooth="yes"/>
      <point x="858.33" y="1685.7" type="line"/>
      <point x="779.51" y="1603.22" type="line"/>
      <point x="512.0" y="1765.68" type="line"/>
      <point x="248.63" y="1608.05" type="line"/>
      <point x="165.67" y="1685.7" type="line"/>
      <point x="388.98" y="1892.88" type="line" smooth="yes"/>
      <point x="438.98" y="1939.15"/>
      <point x="475.83" y="1961.21"/>
    </contour>
  </outline>
</glyph>
<glyph name="commaaccentcomb.case" format="2">
  <advance width="1024"/>
  <outline>
    <contour>
      <point x="363.90999999999997" y="-593.59" type="line"/>
      <point x="403.67" y="-566.9300000000001"/>
      <point x="495.02" y="-467.75"/>
      <point x="512.52" y="-410.09" type="qcurve"/>
      <point x="451.72" y="-409.4"/>
      <point x="379.03" y="-337.06"/>
      <point x="379.03" y="-281.87" type="qcurve" smooth="yes"/>
      <point x="379.03" y="-228.41"/>
      <point x="454.89000000000004" y="-148.35000000000002"/>
      <point x="515.41" y="-148.35000000000002" type="qcurve" smooth="yes"/>
      <point x="573.39" y="-148.35000000000002"/>
      <point x="654.38" y="-219.83"/>
      <point x="654.38" y="-292.0" type="qcurve" smooth="yes"/>
      <point x="654.38" y="-399.89"/>
      <point x="504.73" y="-600.3100000000001"/>
      <point x="411.69" y="-650.57" type="qcurve"/>
    </contour>
  </outline>
</glyph>
<glyph name="de.bgr" format="2">
  <advance width="1145"/>
  <outline>
    <contour>
      <point x="339.02" y="512.61" type="qcurve" smooth="yes"/>
      <point x="339.02" y="321.24"/>
      <point x="447.44000000000005" y="138.39"/>
      <point x="549.6199999999999" y="138.39" type="qcurve" smooth="yes"/>
      <point x="614.16" y="138.39"/>
      <point x="710.9" y="196.01"/>
      <point x="739.4399999999999" y="248.32999999999998" type="qcurve"/>
      <point x="740.82" y="808.62" type="line"/>
      <point x="715.8399999999999" y="860.3599999999999"/>
      <point x="628.9300000000001" y="905.29"/>
      <point x="569.1800000000001" y="905.29" type="qcurve" smooth="yes"/>
      <point x="460.03" y="905.29"/>
      <point x="339.02" y="700.32"/>
    </contour>
    <contour>
      <point x="736.24" y="-15.149999999999999" type="qcurve" smooth="yes"/>
      <point x="737.51" y="108.97" type="line"/>
      <point x="696.93" y="57.16"/>
      <point x="555.3499999999999" y="-9.0"/>
      <point x="457.76" y="-9.0" type="qcurve" smooth="yes"/>
      <point x="280.12" y="-9.0"/>
      <point x="57.25" y="253.69"/>
      <point x="57.25" y="488.54" type="qcurve" smooth="yes"/>
      <point x="57.25" y="746.26"/>
      <point x="314.55" y="1033.4"/>
      <point x="515.24" y="1033.4" type="qcurve" smooth="yes"/>
      <point x="589.8699999999999" y="1033.4"/>
      <point x="712.86" y="986.26"/>
      <point x="756.4000000000001" y="941.58" type="qcurve"/>
      <point x="814.82" y="1022.2700000000001" type="line"/>
      <point x="1122.1799999999998" y="994.83" type="line"/>
      <point x="1122.1799999999998" y="887.75" type="line"/>
      <point x="1000.1399999999999" y="853.27" type="line"/>
      <point x="994.2900000000001" y="435.75" type="line"/>
      <point x="996.76" y="27.860000000000007" type="line" smooth="yes"/>
      <point x="999.0208903381081" y="-235.859827034256"/>
      <point x="742.0740000000001" y="-504.47999999999996"/>
      <point x="502.19999999999993" y="-504.47999999999996" type="qcurve" smooth="yes"/>
      <point x="409.26317073169696" y="-504.47999999999996"/>
      <point x="281.5" y="-463.28999999999996"/>
      <point x="251.05" y="-437.57000000000005" type="qcurve"/>
      <point x="231.94" y="-489.78000000000003" type="line"/>
      <point x="128.45000000000002" y="-489.78000000000003" type="line"/>
      <point x="126.35000000000001" y="-122.83999999999999" type="line"/>
      <point x="234.43" y="-122.83999999999999" type="line"/>
      <point x="248.69000000000003" y="-193.63" type="line" smooth="yes"/>
      <point x="265.338164174336" y="-276.171177414853"/>
      <point x="366.481325301211" y="-375.47999999999996"/>
      <point x="474.16999999999996" y="-375.47999999999996" type="qcurve" smooth="yes"/>
      <point x="599.948306834626" y="-375.47999999999996"/>
      <point x="734.102771133868" y="-195.829991780432"/>
    </contour>
  </outline>
</glyph>
<glyph name="dotbelowcomb.case" format="2">
  <advance width="1024"/>
  <outline>
    <contour>
      <point x="382.54999999999995" y="-282.79" type="qcurve" smooth="yes"/>
      <point x="382.54999999999995" y="-221.20000000000002"/>
      <point x="449.03000000000003" y="-156.03"/>
      <point x="512.31" y="-156.03" type="qcurve" smooth="yes"/>
      <point x="571.59" y="-156.03"/>
      <point x="642.07" y="-225.82000000000002"/>
      <point x="642.07" y="-282.79" type="qcurve" smooth="yes"/>
      <point x="642.07" y="-343.8"/>
      <point x="576.21" y="-409.7"/>
      <point x="512.31" y="-409.7" type="qcurve" smooth="yes"/>
      <point x="453.03000000000003" y="-409.7"/>
      <point x="382.54999999999995" y="-340.22"/>
    </contour>
  </outline>
</glyph>
<glyph name="eight.lc" format="2">
  <advance width="1041"/>
  <outline>
    <contour>
      <point x="38.64" y="315.79" type="qcurve" smooth="yes"/>
      <point x="38.64" y="470.91999999999996"/>
      <point x="261.65" y="669.85"/>
      <point x="431.6" y="718.41" type="qcurve"/>
      <point x="506.98" y="659.6800000000001" type="line"/>
      <point x="400.68" y="610.1899999999999"/>
      <point x="262.66" y="441.59000000000003"/>
      <point x="262.66" y="322.62" type="qcurve" smooth="yes"/>
      <point x="262.66" y="209.71"/>
      <point x="394.96" y="91.44999999999999"/>
      <point x="509.36000000000007" y="91.44999999999999" type="qcurve" smooth="yes"/>
      <point x="619.07" y="91.44999999999999"/>
      <point x="757.84" y="218.19"/>
      <point x="757.84" y="320.42" type="qcurve" smooth="yes"/>
      <point x="757.84" y="411.51"/>
      <point x="643.3599999999999" y="532.1899999999999"/>
      <point x="485.75999999999993" y="600.34" type="qcurve" smooth="yes"/>
      <point x="294.63" y="681.6899999999999"/>
      <point x="142.53" y="861.55"/>
      <point x="146.77" y="998.1700000000001" type="qcurve" smooth="yes"/>
      <point x="150.59" y="1141.92"/>
      <point x="378.43" y="1319.3799999999999"/>
      <point x="564.8100000000001" y="1319.3799999999999" type="qcurve" smooth="yes"/>
      <point x="741.09" y="1319.3799999999999"/>
      <point x="940.3" y="1164.6599999999999"/>
      <point x="941.68" y="1047.45" type="qcurve" smooth="yes"/>
      <point x="943.06" y="922.75"/>
      <point x="778.4799999999999" y="755.91"/>
      <point x="632.09" y="695.25" type="qcurve"/>
      <point x="540.6600000000001" y="750.8100000000001" type="line"/>
      <point x="634.77" y="803.37"/>
      <point x="737.22" y="939.23"/>
      <point x="737.22" y="1026.94" type="qcurve" smooth="yes"/>
      <point x="737.22" y="1107.63"/>
      <point x="638.9100000000001" y="1199.6499999999999"/>
      <point x="554.41" y="1199.6499999999999" type="qcurve" smooth="yes"/>
      <point x="469.96999999999997" y="1199.6499999999999"/>
      <point x="361.46" y="1106.14"/>
      <point x="361.46" y="1030.2800000000002" type="qcurve" smooth="yes"/>
      <point x="361.46" y="948.6700000000001"/>
      <point x="466.52" y="843.36"/>
      <point x="643.8399999999999" y="771.48" type="qcurve" smooth="yes"/>
      <point x="828.11" y="697.17"/>
      <point x="1005.5600000000001" y="517.51"/>
      <point x="1005.5600000000001" y="360.8" type="qcurve" smooth="yes"/>
      <point x="1005.5600000000001" y="194.81"/>
      <point x="733.97" y="-22.55"/>
      <point x="501.52000000000004" y="-22.55" type="qcurve" smooth="yes"/>
      <point x="273.58000000000004" y="-22.55"/>
      <point x="38.64" y="157.15"/>
    </contour>
  </outline>
</glyph>
<glyph name="five.tab" format="2">
  <advance width="1072"/>
  <outline>
    <contour>
      <point x="47.08" y="137.86" type="qcurve"/>
      <point x="119.69000000000001" y="255.52" type="line"/>
      <point x="169.38" y="200.15"/>
      <point x="315.63000000000005" y="122.78999999999999"/>
      <point x="418.73" y="123.87" type="qcurve" smooth="yes"/>
      <point x="528.72" y="124.94999999999999"/>
      <point x="674.21" y="280.68"/>
      <point x="674.21" y="450.51" type="qcurve" smooth="yes"/>
      <point x="674.21" y="610.83"/>
      <point x="476.18" y="776.78"/>
      <point x="291.29" y="776.78" type="qcurve" smooth="yes"/>
      <point x="202.86" y="776.78" type="line"/>
      <point x="169.01" y="820.25" type="line"/>
      <point x="219.73000000000002" y="1467.0" type="line"/>
      <point x="244.77999999999997" y="1500.0" type="line"/>
      <point x="889.81" y="1500.0" type="line"/>
      <point x="878.48" y="1275.33" type="line"/>
      <point x="329.48" y="1275.33" type="line"/>
      <point x="318.77" y="1262.16" type="line"/>
      <point x="286.06" y="900.5" type="line"/>
      <point x="425.13" y="935.14" type="line"/>
      <point x="675.11" y="942.27"/>
      <point x="955.7900000000001" y="701.36"/>
      <point x="955.7900000000001" y="475.85" type="qcurve" smooth="yes"/>
      <point x="955.7900000000001" y="237.95"/>
      <point x="681.2900000000001" y="-23.24"/>
      <point x="476.73" y="-23.24" type="qcurve" smooth="yes"/>
      <point x="330.72" y="-23.24"/>
      <point x="103.76" y="70.96000000000001"/>
    </contour>
  </outline>
</glyph>
<glyph name="ghe.bgr" format="2">
  <advance width="884"/>
  <outline>
    <contour>
      <point x="813.76" y="773.1400000000001" type="qcurve" smooth="yes"/>
      <point x="813.76" y="890.64"/>
      <point x="643.24" y="1037.79"/>
      <point x="472.84000000000003" y="1037.79" type="qcurve" smooth="yes"/>
      <point x="390.05" y="1037.79"/>
      <point x="278.49" y="1002.91"/>
      <point x="245.01" y="979.63" type="qcurve"/>
      <point x="230.29" y="1015.5" type="line"/>
      <point x="129.5" y="1015.5" type="line"/>
      <point x="129.5" y="719.81" type="line"/>
      <point x="249.01000000000002" y="719.81" type="line"/>
      <point x="260.29" y="788.1600000000001" type="line" smooth="yes"/>
      <point x="270.47" y="845.3000000000001"/>
      <point x="360.35" y="917.8"/>
      <point x="440.73" y="917.8" type="qcurve" smooth="yes"/>
      <point x="508.83" y="917.8"/>
      <point x="569.99" y="861.78"/>
      <point x="569.99" y="809.5" type="qcurve" smooth="yes"/>
      <point x="569.99" y="749.5899999999999"/>
      <point x="489.548939419068" y="662.968718851542"/>
      <point x="351.90000000000003" y="611.61" type="qcurve" smooth="yes"/>
      <point x="192.05999999999997" y="553.57"/>
      <point x="52.39" y="393.49"/>
      <point x="52.39" y="267.79" type="qcurve" smooth="yes"/>
      <point x="52.39" y="140.71"/>
      <point x="237.10999999999999" y="-21.18"/>
      <point x="412.53000000000003" y="-21.18" type="qcurve" smooth="yes"/>
      <point x="516.27" y="-21.18"/>
      <point x="654.6999999999999" y="23.240000000000002"/>
      <point x="702.4300000000001" y="60.919999999999995" type="qcurve"/>
      <point x="732.23" y="0.0" type="line"/>
      <point x="826.32" y="0.0" type="line"/>
      <point x="826.32" y="337.45" type="line"/>
      <point x="708.62" y="337.45" type="line"/>
      <point x="698.26" y="281.86" type="line" smooth="yes"/>
      <point x="681.46" y="194.97"/>
      <point x="560.3399999999999" y="98.53999999999999"/>
      <point x="462.48" y="98.12" type="qcurve" smooth="yes"/>
      <point x="390.74999999999994" y="98.12"/>
      <point x="306.83" y="172.60999999999999"/>
      <point x="306.83" y="234.71" type="qcurve" smooth="yes"/>
      <point x="306.83" y="308.66"/>
      <point x="394.55" y="393.62"/>
      <point x="515.12" y="441.02" type="qcurve" smooth="yes"/>
      <point x="681.0052650439691" y="503.4886264236"/>
      <point x="813.76" y="653.47"/>
    </contour>
  </outline>
</glyph>
<glyph name="hard.bgr" format="2">
  <advance width="1015"/>
  <outline>
    <contour>
      <point x="476.13000000000005" y="543.6800000000001" type="line" smooth="yes"/>
      <point x="432.026823639354" y="475.18197594638804"/>
      <point x="400.53999999999996" y="359.606518218616"/>
      <point x="400.22999999999996" y="290.59999999999997" type="qcurve" smooth="yes"/>
      <point x="399.91999999999996" y="202.12"/>
      <point x="477.67999999999995" y="99.23"/>
      <point x="556.8900000000001" y="99.23" type="qcurve" smooth="yes"/>
      <point x="641.92" y="99.23"/>
      <point x="714.84" y="224.75"/>
      <point x="714.84" y="326.18" type="qcurve" smooth="yes"/>
      <point x="714.84" y="417.25"/>
      <point x="636.588051948062" y="530.7"/>
      <point x="530.87" y="530.7" type="qcurve" smooth="yes"/>
      <point x="363.55" y="530.7" type="line"/>
      <point x="363.55" y="649.1" type="line"/>
      <point x="555.78" y="649.1" type="line" smooth="yes"/>
      <point x="774.677482014396" y="649.1"/>
      <point x="980.22" y="478.67"/>
      <point x="980.22" y="329.1" type="qcurve" smooth="yes"/>
      <point x="980.22" y="170.16"/>
      <point x="760.49" y="-19.75"/>
      <point x="557.16" y="-20.56" type="qcurve" smooth="yes"/>
      <point x="336.04" y="-21.369999999999997"/>
      <point x="142.23" y="148.14999999999998"/>
      <point x="142.23" y="293.08000000000004" type="qcurve" smooth="yes"/>
      <point x="142.23" y="387.843667820074"/>
      <point x="209.73000000000002" y="537.12"/>
      <point x="263.37" y="623.0999999999999" type="qcurve" smooth="yes"/>
      <point x="426.31" y="884.0" type="line"/>
      <point x="200.48999999999998" y="884.0" type="line"/>
      <point x="175.3" y="732.25" type="line"/>
      <point x="58.5" y="732.25" type="line"/>
      <point x="58.5" y="1015.5" type="line"/>
      <point x="709.02" y="1015.5" type="line"/>
      <point x="709.02" y="911.0" type="line"/>
    </contour>
  </outline>
</glyph>
<glyph name="horizontalbarH" format="2">
  <advance width="1455"/>
  <outline>
    <contour>
      <point x="1397.6" y="1007.86" type="line"/>
      <point x="1207.2" y="1006.7" type="line"/>
      <point x="1207.2" y="1153.8999999999999" type="line"/>
      <point x="1407.6" y="1155.06" type="line"/>
    </contour>
    <contour>
      <point x="55.9" y="1006.7" type="line"/>
      <point x="46.9" y="1153.8999999999999" type="line"/>
      <point x="254.29999999999998" y="1153.8999999999999" type="line"/>
      <point x="254.29999999999998" y="1006.7" type="line"/>
    </contour>
    <contour>
      <point x="254.29999999999998" y="1006.7" type="line"/>
      <point x="254.29999999999998" y="1153.8999999999999" type="line"/>
      <point x="1207.2" y="1153.8999999999999" type="line"/>
      <point x="1207.2" y="1006.7" type="line"/>
    </contour>
  </outline>
</glyph>
<glyph name="horizontalbarlc" format="2">
  <advance width="827"/>
  <outline>
    <contour>
      <point x="370.34" y="657.92" type="line"/>
      <point x="75.14999999999999" y="657.92" type="line"/>
      <point x="86.66" y="778.22" type="line"/>
      <point x="400.07" y="778.22" type="line"/>
      <point x="701.42" y="778.22" type="line"/>
      <point x="701.42" y="657.92" type="line"/>
    </contour>
  </outline>
</glyph>
<glyph name="hornU" format="2">
  <advance width="1496"/>
  <outline>
    <contour>
      <point x="43.93" y="1379.53" type="line"/>
      <point x="43.93" y="1500.0" type="line"/>
      <point x="654.0999999999999" y="1500.0" type="line"/>
      <point x="654.0999999999999" y="1379.53" type="line"/>
      <point x="492.53000000000003" y="1345.53" type="line"/>
      <point x="488.99" y="794.0" type="line"/>
      <point x="491.95" y="467.15000000000003" type="line" smooth="yes"/>
      <point x="493.63999999999993" y="285.69"/>
      <point x="655.23" y="139.48"/>
      <point x="800.0799999999999" y="139.48" type="qcurve" smooth="yes"/>
      <point x="932.5500000000001" y="139.48"/>
      <point x="1108.31" y="302.24"/>
      <point x="1108.89" y="485.6" type="qcurve" smooth="yes"/>
      <point x="1110.16" y="794.0" type="line"/>
      <point x="1108.89" y="1345.53" type="line"/>
      <point x="946.2900000000001" y="1379.53" type="line"/>
      <point x="946.2900000000001" y="1500.0" type="line"/>
      <point x="1244.3899999999999" y="1500.0" type="line"/>
      <point x="1242.6999999999998" y="794.0" type="line"/>
      <point x="1244.97" y="479.95000000000005" type="line" smooth="yes"/>
      <point x="1247.24" y="224.91"/>
      <point x="971.7600000000001" y="-25.669999999999998"/>
      <point x="745.84" y="-25.669999999999998" type="qcurve" smooth="yes"/>
      <point x="501.96" y="-25.669999999999998"/>
      <point x="209.37" y="217.65"/>
      <point x="210.64000000000001" y="467.95000000000005" type="qcurve" smooth="yes"/>
      <point x="211.91" y="794.0" type="line"/>
      <point x="210.64000000000001" y="1345.53" type="line"/>
    </contour>
  </outline>
</glyph>
<glyph name="horncomb.case" format="2">
  <advance width="1024"/>
  <outline>
    <contour>
      <point x="311.96" y="1465.68" type="line"/>
      <point x="347.82" y="1458.8"/>
      <point x="406.62" y="1451.6100000000001"/>
      <point x="444.1" y="1451.6100000000001" type="qcurve" smooth="yes"/>
      <point x="493.27" y="1451.6100000000001"/>
      <point x="557.8" y="1499.49"/>
      <point x="557.8" y="1559.17" type="qcurve" smooth="yes"/>
      <point x="557.8" y="1596.92"/>
      <point x="547.35" y="1678.92"/>
      <point x="537.02" y="1729.74" type="qcurve"/>
      <point x="665.5" y="1729.74" type="line"/>
      <point x="687.93" y="1684.96"/>
      <point x="718.88" y="1571.76"/>
      <point x="718.88" y="1505.74" type="qcurve" smooth="yes"/>
      <point x="718.88" y="1415.48"/>
      <point x="584.0699999999999" y="1321.8"/>
      <point x="491.26" y="1321.8" type="qcurve" smooth="yes"/>
      <point x="453.78" y="1321.8"/>
      <point x="356.12" y="1335.45"/>
      <point x="311.96" y="1350.83" type="qcurve"/>
    </contour>
  </outline>
</glyph>
<glyph name="hungarumlautcomb.case" format="2">
  <advance width="1024"/>
  <outline>
    <contour>
      <point x="599.56" y="1918.96" type="qcurve" smooth="yes"/>
      <point x="602.5" y="1877.91"/>
      <point x="562.88" y="1823.1200000000001"/>
      <point x="523.46" y="1792.64" type="qcurve" smooth="yes"/>
      <point x="270.9" y="1594.79" type="line"/>
      <point x="201.64999999999998" y="1667.94" type="line"/>
      <point x="362.77" y="1889.25" type="line" smooth="yes"/>
      <point x="394.30999999999995" y="1932.33"/>
      <point x="463.21" y="1999.65"/>
      <point x="500.17" y="2000.91" type="qcurve" smooth="yes"/>
      <point x="536.63" y="2001.75"/>
      <point x="597.04" y="1952.26"/>
    </contour>
    <contour>
      <point x="962.32" y="1920.22" type="qcurve" smooth="yes"/>
      <point x="965.6800000000001" y="1878.75"/>
      <point x="926.48" y="1823.96"/>
      <point x="887.48" y="1793.06" type="qcurve" smooth="yes"/>
      <point x="634.92" y="1594.79" type="line"/>
      <point x="564.83" y="1667.94" type="line"/>
      <point x="726.64" y="1889.67" type="line" smooth="yes"/>
      <point x="759.02" y="1934.01"/>
      <point x="826.39" y="2000.49"/>
      <point x="864.19" y="2001.33" type="qcurve" smooth="yes"/>
      <point x="899.8100000000001" y="2002.59"/>
      <point x="960.64" y="1953.1"/>
    </contour>
  </outline>
</glyph>
<glyph name="nine.tab" format="2">
  <advance width="1072"/>
  <outline>
    <contour>
      <point x="1019.62" y="866.93" type="qcurve" smooth="yes"/>
      <point x="1019.62" y="516.92"/>
      <point x="601.47" y="12.000000000000002"/>
      <point x="240.22" y="-73.45" type="qcurve"/>
      <point x="220.87" y="42.809999999999995" type="line"/>
      <point x="452.42" y="125.01"/>
      <point x="737.8100000000001" y="514.67"/>
      <point x="737.8100000000001" y="873.43" type="qcurve" smooth="yes"/>
      <point x="737.8100000000001" y="1153.13"/>
      <point x="606.1199999999999" y="1403.53"/>
      <point x="492.9200000000001" y="1403.53" type="qcurve" smooth="yes"/>
      <point x="395.57000000000005" y="1403.53"/>
      <point x="290.83" y="1211.72"/>
      <point x="290.83" y="1037.39" type="qcurve" smooth="yes"/>
      <point x="290.83" y="858.54"/>
      <point x="397.64" y="701.37"/>
      <point x="490.34" y="701.37" type="qcurve" smooth="yes"/>
      <point x="536.07" y="701.37"/>
      <point x="598.64" y="717.98"/>
      <point x="622.4000000000001" y="729.8399999999999" type="qcurve"/>
      <point x="653.77" y="649.92" type="line"/>
      <point x="624.88" y="615.4699999999999"/>
      <point x="502.56" y="561.5"/>
      <point x="429.28" y="561.5" type="qcurve" smooth="yes"/>
      <point x="247.48999999999998" y="561.5"/>
      <point x="33.02" y="796.92"/>
      <point x="33.02" y="987.03" type="qcurve" smooth="yes"/>
      <point x="33.02" y="1238.6899999999998"/>
      <point x="297.01" y="1522.28"/>
      <point x="499.33" y="1522.28" type="qcurve" smooth="yes"/>
      <point x="728.82" y="1522.28"/>
      <point x="1019.62" y="1171.56"/>
    </contour>
  </outline>
</glyph>
<glyph name="one.tab" format="2">
  <advance width="1072"/>
  <outline>
    <contour>
      <point x="158.69" y="0.0" type="line"/>
      <point x="158.69" y="101.2" type="line"/>
      <point x="435.29" y="136.20000000000002" type="line"/>
      <point x="435.29" y="754.0" type="line"/>
      <point x="433.29" y="1342.6299999999999" type="line"/>
      <point x="160.89" y="1376.6299999999999" type="line"/>
      <point x="160.89" y="1487.83" type="line"/>
      <point x="675.9100000000001" y="1510.83" type="line"/>
      <point x="707.9100000000001" y="1475.83" type="line"/>
      <point x="701.9100000000001" y="754.0" type="line"/>
      <point x="701.9100000000001" y="136.20000000000002" type="line"/>
      <point x="978.5100000000001" y="101.2" type="line"/>
      <point x="978.5100000000001" y="0.0" type="line"/>
    </contour>
  </outline>
</glyph>
<glyph name="shcha.bgr" format="2">
  <advance width="1809"/>
  <outline>
    <contour>
      <point x="787.6400000000001" y="156.14999999999998" type="line"/>
      <point x="733.99" y="74.87"/>
      <point x="561.03" y="-17.42"/>
      <point x="450.63" y="-17.42" type="qcurve" smooth="yes"/>
      <point x="303.2" y="-17.42"/>
      <point x="165.14" y="127.83"/>
      <point x="165.14" y="254.35999999999999" type="qcurve" smooth="yes"/>
      <point x="165.14" y="320.70000000000005"/>
      <point x="168.79" y="480.58"/>
      <point x="168.79" y="489.43" type="qcurve" smooth="yes"/>
      <point x="165.25" y="846.65" type="line"/>
      <point x="37.589999999999996" y="876.65" type="line"/>
      <point x="37.589999999999996" y="982.74" type="line"/>
      <point x="358.78999999999996" y="1016.12" type="line"/>
      <point x="402.5" y="1016.12" type="line"/>
      <point x="430.14" y="976.09" type="line"/>
      <point x="428.45" y="480.75" type="line"/>
      <point x="428.87" y="301.56" type="line" smooth="yes"/>
      <point x="428.87" y="233.11"/>
      <point x="503.31000000000006" y="157.36"/>
      <point x="566.15" y="157.36" type="qcurve" smooth="yes"/>
      <point x="623.47" y="157.05"/>
      <point x="737.99" y="214.16"/>
      <point x="770.26" y="274.78000000000003" type="qcurve"/>
    </contour>
    <contour>
      <point x="1376.42" y="29.459999999999997" type="line"/>
      <point x="1356.2" y="137.51" type="line"/>
      <point x="1308.92" y="67.52999999999999"/>
      <point x="1142.5600000000002" y="-17.42"/>
      <point x="1044.19" y="-17.42" type="qcurve" smooth="yes"/>
      <point x="896.7600000000001" y="-17.42"/>
      <point x="758.7" y="127.83"/>
      <point x="758.7" y="254.35999999999999" type="qcurve" smooth="yes"/>
      <point x="758.7" y="320.70000000000005"/>
      <point x="762.35" y="480.58"/>
      <point x="762.35" y="489.43" type="qcurve" smooth="yes"/>
      <point x="758.8100000000001" y="846.65" type="line"/>
      <point x="631.15" y="876.65" type="line"/>
      <point x="631.15" y="982.74" type="line"/>
      <point x="952.3499999999999" y="1016.12" type="line"/>
      <point x="996.06" y="1016.12" type="line"/>
      <point x="1023.7" y="976.09" type="line"/>
      <point x="1022.01" y="480.75" type="line"/>
      <point x="1022.4300000000001" y="301.56" type="line" smooth="yes"/>
      <point x="1022.4300000000001" y="233.11"/>
      <point x="1095.32" y="157.36"/>
      <point x="1156.61" y="157.36" type="qcurve" smooth="yes"/>
      <point x="1212.38" y="157.05"/>
      <point x="1322.56" y="214.46999999999997"/>
      <point x="1354.52" y="274.78000000000003" type="qcurve"/>
      <point x="1355.1000000000001" y="480.75" type="line"/>
      <point x="1353.52" y="846.65" type="line"/>
      <point x="1241.76" y="876.65" type="line"/>
      <point x="1241.76" y="982.74" type="line"/>
      <point x="1546.75" y="1016.12" type="line"/>
      <point x="1590.46" y="1016.12" type="line"/>
      <point x="1618.1" y="976.09" type="line"/>
      <point x="1615.6799999999998" y="480.75" type="line"/>
      <point x="1617.6799999999998" y="120.26" type="line"/>
      <point x="1748.4499999999998" y="120.26" type="line"/>
      <point x="1758.4499999999998" y="-318.0" type="line"/>
      <point x="1652.05" y="-318.0" type="line"/>
      <point x="1561.21" y="0.0" type="line"/>
      <point x="1415.6299999999999" y="0.0" type="line"/>
    </contour>
  </outline>
</glyph>
<glyph name="six.tab" format="2">
  <advance width="1072"/>
  <outline>
    <contour>
      <point x="56.809999999999995" y="632.73" type="qcurve" smooth="yes"/>
      <point x="56.809999999999995" y="982.74"/>
      <point x="468.76" y="1487.66"/>
      <point x="830.01" y="1573.11" type="qcurve"/>
      <point x="847.68" y="1459.3700000000001" type="line"/>
      <point x="616.13" y="1377.17"/>
      <point x="338.62" y="984.99"/>
      <point x="338.62" y="626.23" type="qcurve" smooth="yes"/>
      <point x="338.62" y="346.53"/>
      <point x="470.31" y="96.13"/>
      <point x="580.9899999999999" y="96.13" type="qcurve" smooth="yes"/>
      <point x="671.04" y="96.13"/>
      <point x="785.5999999999999" y="282.56"/>
      <point x="785.5999999999999" y="459.17" type="qcurve" smooth="yes"/>
      <point x="785.5999999999999" y="638.02"/>
      <point x="678.79" y="795.1899999999999"/>
      <point x="586.09" y="795.1899999999999" type="qcurve" smooth="yes"/>
      <point x="540.3599999999999" y="795.1899999999999"/>
      <point x="477.78999999999996" y="778.58"/>
      <point x="454.03000000000003" y="766.72" type="qcurve"/>
      <point x="422.66" y="846.64" type="line"/>
      <point x="451.55" y="881.09"/>
      <point x="573.87" y="935.06"/>
      <point x="647.15" y="935.06" type="qcurve" smooth="yes"/>
      <point x="824.91" y="935.06"/>
      <point x="1043.41" y="704.6"/>
      <point x="1043.41" y="509.53000000000003" type="qcurve" smooth="yes"/>
      <point x="1043.41" y="250.39000000000001"/>
      <point x="785.24" y="-22.62"/>
      <point x="566.24" y="-22.62" type="qcurve" smooth="yes"/>
      <point x="348.78000000000003" y="-22.62"/>
      <point x="56.809999999999995" y="328.1"/>
    </contour>
  </outline>
</glyph>
<glyph name="soft.bgr" format="2">
  <advance width="1036"/>
  <outline>
    <contour>
      <point x="582.44" y="-20.56" type="qcurve" smooth="yes"/>
      <point x="352.20000000000005" y="-21.369999999999997"/>
      <point x="166.1" y="157.86"/>
      <point x="166.1" y="320.72999999999996" type="qcurve" smooth="yes"/>
      <point x="166.1" y="379.08"/>
      <point x="168.79" y="459.85"/>
      <point x="168.79" y="489.43" type="qcurve" smooth="yes"/>
      <point x="165.25" y="846.65" type="line"/>
      <point x="37.589999999999996" y="876.65" type="line"/>
      <point x="37.589999999999996" y="982.74" type="line"/>
      <point x="358.78999999999996" y="1016.12" type="line"/>
      <point x="402.5" y="1016.12" type="line"/>
      <point x="430.14" y="976.09" type="line"/>
      <point x="429.14" y="649.1" type="line"/>
      <point x="581.06" y="649.1" type="line" smooth="yes"/>
      <point x="797.12" y="649.41"/>
      <point x="1000.5" y="478.67"/>
      <point x="1000.5" y="329.1" type="qcurve" smooth="yes"/>
      <point x="1000.5" y="170.16"/>
      <point x="783.77" y="-19.75"/>
    </contour>
    <contour>
      <point x="582.17" y="99.23" type="qcurve" smooth="yes"/>
      <point x="665.0400000000001" y="99.23"/>
      <point x="735.12" y="226.01"/>
      <point x="735.12" y="327.86" type="qcurve" smooth="yes"/>
      <point x="735.12" y="417.25"/>
      <point x="658.93" y="530.39"/>
      <point x="556.15" y="530.7" type="qcurve" smooth="yes"/>
      <point x="428.45" y="530.7" type="line"/>
      <point x="428.87" y="323.32000000000005" type="line" smooth="yes"/>
      <point x="429.29" y="212.7"/>
      <point x="499.8" y="99.23"/>
    </contour>
  </outline>
</glyph>
<glyph name="three.tab" format="2">
  <advance width="1072"/>
  <outline>
    <contour>
      <point x="17.2" y="137.86" type="qcurve"/>
      <point x="91.7" y="254.98000000000002" type="line"/>
      <point x="150.17999999999998" y="194.03"/>
      <point x="299.61" y="121.28999999999999"/>
      <point x="399.44" y="121.28999999999999" type="qcurve" smooth="yes"/>
      <point x="508.39" y="121.28999999999999"/>
      <point x="657.9699999999999" y="258.33000000000004"/>
      <point x="657.9699999999999" y="410.75" type="qcurve" smooth="yes"/>
      <point x="657.9699999999999" y="579.06"/>
      <point x="452.36" y="721.8"/>
      <point x="298.65" y="721.8" type="qcurve" smooth="yes"/>
      <point x="252.28" y="721.8" type="line"/>
      <point x="218.54" y="835.2" type="line"/>
      <point x="320.80999999999995" y="840.47" type="line" smooth="yes"/>
      <point x="463.86" y="847.58"/>
      <point x="632.94" y="998.87"/>
      <point x="632.01" y="1152.94" type="qcurve" smooth="yes"/>
      <point x="631.39" y="1264.05"/>
      <point x="522.92" y="1372.74"/>
      <point x="435.31" y="1372.74" type="qcurve" smooth="yes"/>
      <point x="348.42999999999995" y="1372.74"/>
      <point x="209.0" y="1302.93"/>
      <point x="143.68" y="1232.0600000000002" type="qcurve"/>
      <point x="78.46" y="1342.4" type="line"/>
      <point x="146.85" y="1418.4799999999998"/>
      <point x="357.7" y="1521.24"/>
      <point x="511.09" y="1521.24" type="qcurve" smooth="yes"/>
      <point x="699.77" y="1521.24"/>
      <point x="925.26" y="1339.6100000000001"/>
      <point x="925.26" y="1184.31" type="qcurve" smooth="yes"/>
      <point x="925.26" y="1025.76"/>
      <point x="756.28" y="844.93"/>
      <point x="591.5" y="804.65" type="qcurve"/>
      <point x="591.5" y="797.65" type="line"/>
      <point x="753.1800000000001" y="773.75"/>
      <point x="960.6899999999999" y="572.7"/>
      <point x="960.6899999999999" y="396.28999999999996" type="qcurve" smooth="yes"/>
      <point x="960.6899999999999" y="202.5"/>
      <point x="684.34" y="-23.24"/>
      <point x="460.04999999999995" y="-23.24" type="qcurve" smooth="yes"/>
      <point x="310.18" y="-23.24"/>
      <point x="80.63" y="63.46"/>
    </contour>
  </outline>
</glyph>
<glyph name="two.lf" format="2">
  <advance width="1019"/>
  <outline>
    <contour>
      <point x="53.150000000000006" y="0.0" type="line"/>
      <point x="53.150000000000006" y="134.09" type="line"/>
      <point x="70.05" y="259.33"/>
      <point x="238.16" y="514.94"/>
      <point x="379.16" y="646.54" type="qcurve" smooth="yes"/>
      <point x="527.33" y="783.69"/>
      <point x="645.22" y="981.77"/>
      <point x="645.22" y="1114.4" type="qcurve" smooth="yes"/>
      <point x="645.22" y="1230.37"/>
      <point x="531.5400000000001" y="1355.01"/>
      <point x="435.53999999999996" y="1355.01" type="qcurve" smooth="yes"/>
      <point x="338.46" y="1355.01"/>
      <point x="182.02" y="1264.33"/>
      <point x="121.80999999999999" y="1183.47" type="qcurve"/>
      <point x="46.58" y="1287.18" type="line"/>
      <point x="115.36" y="1384.97"/>
      <point x="346.25" y="1521.86"/>
      <point x="520.7600000000001" y="1521.86" type="qcurve" smooth="yes"/>
      <point x="704.25" y="1521.86"/>
      <point x="926.3399999999999" y="1325.82"/>
      <point x="927.89" y="1142.23" type="qcurve" smooth="yes"/>
      <point x="929.75" y="935.79"/>
      <point x="704.5699999999999" y="665.11"/>
      <point x="557.78" y="562.88" type="qcurve" smooth="yes"/>
      <point x="415.03" y="468.18"/>
      <point x="261.54" y="303.54"/>
      <point x="235.13" y="227.53" type="qcurve"/>
      <point x="242.42999999999998" y="214.67000000000002" type="line"/>
      <point x="964.83" y="214.67000000000002" type="line"/>
      <point x="964.83" y="0.0" type="line"/>
    </contour>
  </outline>
</glyph>
<glyph name="ve.bgr" format="2">
  <advance width="1085"/>
  <outline>
    <contour>
      <point x="95.83" y="421.59" type="qcurve" smooth="yes"/>
      <point x="95.83" y="1106.79" type="line" smooth="yes"/>
      <point x="95.83" y="1300.176725518661"/>
      <point x="312.71999999999997" y="1528.3200000000002"/>
      <point x="535.1" y="1528.3200000000002" type="qcurve" smooth="yes"/>
      <point x="741.7299999999999" y="1528.3200000000002"/>
      <point x="971.0799999999999" y="1327.486938775514"/>
      <point x="971.0799999999999" y="1147.0" type="qcurve" smooth="yes"/>
      <point x="971.0799999999999" y="1019.1899999999999"/>
      <point x="844.37" y="835.99"/>
      <point x="724.42" y="799.24" type="qcurve"/>
      <point x="724.42" y="795.24" type="line"/>
      <point x="868.64" y="769.4"/>
      <point x="1023.0799999999999" y="585.46"/>
      <point x="1023.0799999999999" y="427.54" type="qcurve" smooth="yes"/>
      <point x="1023.0799999999999" y="196.9"/>
      <point x="766.12" y="-20.9"/>
      <point x="549.1999999999999" y="-20.9" type="qcurve" smooth="yes"/>
      <point x="315.52000000000004" y="-20.9"/>
      <point x="95.83" y="216.49"/>
    </contour>
    <contour>
      <point x="535.1" y="1402.8200000000002" type="qcurve" smooth="yes"/>
      <point x="444.34000000000003" y="1402.8200000000002"/>
      <point x="354.54999999999995" y="1275.500505768635"/>
      <point x="354.54999999999995" y="1131.86" type="qcurve" smooth="yes"/>
      <point x="354.54999999999995" y="848.82" type="line"/>
      <point x="497.1" y="848.82" type="line" smooth="yes"/>
      <point x="601.64" y="848.82"/>
      <point x="714.0500000000001" y="998.835805243458"/>
      <point x="714.0500000000001" y="1140.82" type="qcurve" smooth="yes"/>
      <point x="714.0500000000001" y="1275.58536"/>
      <point x="624.16" y="1402.8200000000002"/>
    </contour>
    <contour>
      <point x="354.54999999999995" y="411.36" type="line" smooth="yes"/>
      <point x="354.54999999999995" y="249.22"/>
      <point x="450.39" y="104.6"/>
      <point x="549.1999999999999" y="104.6" type="qcurve" smooth="yes"/>
      <point x="655.35" y="104.6"/>
      <point x="764.0500000000001" y="249.94"/>
      <point x="764.0500000000001" y="420.96" type="qcurve" smooth="yes"/>
      <point x="764.0500000000001" y="573.227222222236"/>
      <point x="631.77" y="733.18"/>
      <point x="506.1" y="733.18" type="qcurve" smooth="yes"/>
      <point x="354.54999999999995" y="733.18" type="line"/>
    </contour>
  </outline>
</glyph>
<glyph name="zhe.bgr" format="2">
  <advance width="1669"/>
  <outline>
    <contour>
      <point x="581.4300000000001" y="0.0" type="line"/>
      <point x="581.4300000000001" y="92.4" type="line"/>
      <point x="700.33" y="127.4" type="line"/>
      <point x="702.33" y="528.55" type="line"/>
      <point x="700.33" y="1361.9199999999998" type="line"/>
      <point x="560.49" y="1393.6" type="line"/>
      <point x="560.49" y="1500.0" type="line"/>
      <point x="893.64" y="1534.0" type="line"/>
      <point x="925.64" y="1534.0" type="line"/>
      <point x="962.63" y="1497.35" type="line"/>
      <point x="962.5999999999999" y="535.6500000000001" type="line"/>
      <point x="962.2099999999999" y="127.4" type="line"/>
      <point x="1080.8400000000001" y="92.4" type="line"/>
      <point x="1080.8400000000001" y="0.0" type="line"/>
    </contour>
    <contour>
      <point x="831.48" y="315.63" type="line"/>
      <point x="831.48" y="449.38" type="line"/>
      <point x="1270.96" y="880.0" type="line"/>
      <point x="1146.7600000000002" y="910.0" type="line"/>
      <point x="1146.7600000000002" y="1015.5" type="line"/>
      <point x="1585.06" y="1015.5" type="line"/>
      <point x="1585.06" y="910.0" type="line"/>
      <point x="1436.31" y="875.0" type="line"/>
    </contour>
    <contour>
      <point x="1042.37" y="564.8100000000001" type="line"/>
      <point x="1226.22" y="738.51" type="line"/>
      <point x="1559.93" y="127.4" type="line"/>
      <point x="1664.51" y="92.4" type="line"/>
      <point x="1664.51" y="0.0" type="line"/>
      <point x="1279.88" y="0.0" type="line"/>
      <point x="1266.64" y="88.3" type="line"/>
      <point x="1279.42" y="120.3" type="line"/>
    </contour>
    <contour>
      <point x="831.48" y="313.53000000000003" type="line"/>
      <point x="208.41000000000003" y="875.0" type="line"/>
      <point x="66.21000000000001" y="910.0" type="line"/>
      <point x="66.21000000000001" y="1015.5" type="line"/>
      <point x="515.9300000000001" y="1015.5" type="line"/>
      <point x="515.9300000000001" y="910.0" type="line"/>
      <point x="391.73" y="880.0" type="line"/>
      <point x="831.48" y="449.11" type="line"/>
    </contour>
    <contour>
      <point x="620.32" y="564.8100000000001" type="line"/>
      <point x="382.85" y="120.3" type="line"/>
      <point x="395.63" y="88.3" type="line"/>
      <point x="382.39" y="0.0" type="line"/>
      <point x="4.380000000000003" y="0.0" type="line"/>
      <point x="4.380000000000003" y="92.4" type="line"/>
      <point x="113.22" y="127.4" type="line"/>
      <point x="446.93000000000006" y="738.51" type="line"/>
    </contour>
  </outline>
</glyph>
